<?xml version="1.0" encoding="utf-8"?>
<!-- Generator: Adobe Illustrator 16.0.0, SVG Export Plug-In . SVG Version: 6.00 Build 0)  -->
<!DOCTYPE svg PUBLIC "-//W3C//DTD SVG 1.1//EN" "http://www.w3.org/Graphics/SVG/1.1/DTD/svg11.dtd">
<svg version="1.1" id="Layer_1" xmlns="http://www.w3.org/2000/svg" xmlns:xlink="http://www.w3.org/1999/xlink" x="0px" y="0px"
	 width="230px" height="40px" viewBox="0 0 230 40" enable-background="new 0 0 230 40" xml:space="preserve">
<g id="Layer_2" display="none">
	<rect x="-12.5" y="-10" display="inline" fill="#222222" width="304.25" height="90.25"/>
</g>
<g>
	<g>
		<defs>
			<rect id="SVGID_1_" y="1.32" width="33" height="37.36"/>
		</defs>
		<clipPath id="SVGID_2_">
			<use xlink:href="#SVGID_1_"  overflow="visible"/>
		</clipPath>
		<path clip-path="url(#SVGID_2_)" fill="#EE3524" d="M25.837,2.939c-0.75-1.616-3.133-2.104-5.322-1.089
			C18.323,2.865,17.154,5,17.903,6.616c0.75,1.616,3.135,2.104,5.326,1.089C25.418,6.691,26.587,4.557,25.837,2.939"/>
	</g>
	<g>
		<defs>
			<rect id="SVGID_3_" y="1.32" width="33" height="37.36"/>
		</defs>
		<clipPath id="SVGID_4_">
			<use xlink:href="#SVGID_3_"  overflow="visible"/>
		</clipPath>
		<path clip-path="url(#SVGID_4_)" fill="#00529B" d="M19.872,34.835c0.761-0.272-1.901,1.001-2.585,1.36
			C15.181,37.3,12.652,37.9,10.7,38.318c-3.903,0.834-7.268,0.242-9.166-1.971c-3.798-4.425-0.299-13.656,7.817-20.621
			c4.056-3.483,8.5-5.74,12.402-6.572c1.952-0.418,3.769-0.477,5.334-0.158c0,0,4.388,0.73,2.248,6.111
			c0,0-5.575,12.121-21.255,18.806c0,0,10.059-7.055,14.911-15.86c0,0,3.851-6.346-2.041-6.232c0,0-2.506-0.019-6.38,2.241
			c-3.418,1.873-7.729,5.295-10.079,11.21c0,0-4.049,9.662,7.167,10.682C11.659,35.954,15.713,36.32,19.872,34.835"/>
	</g>
	<g>
		<defs>
			<rect id="SVGID_5_" y="1.32" width="33" height="37.36"/>
		</defs>
		<clipPath id="SVGID_6_">
			<use xlink:href="#SVGID_5_"  overflow="visible"/>
		</clipPath>
		<path clip-path="url(#SVGID_6_)" fill="#2DA343" d="M28.769,17.923c-0.628,0.937-1.855,2.724-3.091,4.277
			c1.435,0.116,2.846,0.502,1.84,3.302c0,0-1.661,4.301-6.509,8.648c0,0,8.189-4.767,11.128-11.03
			C32.137,23.12,35.561,16.503,28.769,17.923"/>
	</g>
</g>
<g enable-background="new    ">
	<path fill="#FFFFFF" d="M52.916,10.642l2.227,0.244c-0.143,1.335-0.659,2.434-1.548,3.296s-2.056,1.294-3.501,1.294
		c-1.217,0-2.206-0.306-2.964-0.918s-1.343-1.442-1.753-2.49s-0.615-2.204-0.615-3.467c0-2.031,0.482-3.684,1.445-4.956
		s2.289-1.909,3.975-1.909c1.322,0,2.422,0.407,3.301,1.221s1.432,1.979,1.66,3.496l-2.227,0.234
		c-0.41-2.012-1.315-3.018-2.715-3.018c-0.898,0-1.597,0.418-2.095,1.255s-0.747,2.049-0.747,3.638c0,1.614,0.267,2.834,0.801,3.657
		s1.24,1.235,2.119,1.235c0.703,0,1.302-0.276,1.797-0.83S52.851,11.411,52.916,10.642z"/>
	<path fill="#FFFFFF" d="M65.084,15.271h-2.227V8.816c0-0.696-0.148-1.187-0.444-1.47s-0.643-0.425-1.04-0.425
		c-0.631,0-1.162,0.251-1.592,0.752s-0.645,1.328-0.645,2.48v5.117H56.91V1.941h2.227v5.195c0.553-1.419,1.523-2.129,2.91-2.129
		c2.025,0,3.037,1.162,3.037,3.486V15.271z"/>
	<path fill="#FFFFFF" d="M75.875,15.271h-2.07v-2.129c-0.56,1.556-1.598,2.334-3.115,2.334c-0.898,0-1.611-0.278-2.139-0.835
		s-0.791-1.333-0.791-2.329V5.408h2.275v6.426c0,0.71,0.156,1.175,0.469,1.396s0.619,0.332,0.918,0.332
		c0.482,0,0.973-0.217,1.475-0.649s0.752-1.355,0.752-2.769V5.408h2.227V15.271z"/>
	<path fill="#FFFFFF" d="M86.715,15.271h-2.227V9.109c0-0.651-0.15-1.141-0.449-1.47s-0.661-0.493-1.084-0.493
		c-0.58,0-1.087,0.254-1.523,0.762s-0.654,1.272-0.654,2.295v5.068h-2.227V5.408h2.031v2.285c0.709-1.66,1.706-2.49,2.988-2.49
		c0.866,0,1.606,0.273,2.222,0.82s0.923,1.507,0.923,2.881V15.271z"/>
	<path fill="#FFFFFF" d="M98.375,3.523v1.709h-0.684c-0.299,0-0.562,0.036-0.786,0.107s-0.444,0.303-0.659,0.693
		c0.781,0.638,1.172,1.348,1.172,2.129c0,0.872-0.366,1.595-1.099,2.168s-1.701,0.859-2.905,0.859c-0.521,0-1.129-0.085-1.826-0.254
		c-0.456,0.208-0.684,0.53-0.684,0.967c0,0.241,0.111,0.462,0.332,0.664s0.557,0.303,1.006,0.303h2.93
		c1.002,0,1.789,0.259,2.358,0.776s0.854,1.16,0.854,1.929c0,0.931-0.431,1.702-1.294,2.314s-2.14,0.918-3.833,0.918
		c-3.184,0-4.775-0.889-4.775-2.666c0-0.879,0.479-1.546,1.436-2.002C89.306,13.618,89,13.074,89,12.507
		c0-0.859,0.524-1.543,1.572-2.051c-0.912-0.554-1.367-1.315-1.367-2.285c0-0.82,0.335-1.521,1.006-2.1s1.689-0.869,3.057-0.869
		c0.625,0,1.26,0.068,1.904,0.205c0.299-1.257,1.09-1.885,2.373-1.885H98.375z M90.875,14.734c-0.319,0.293-0.479,0.576-0.479,0.85
		c0,0.449,0.267,0.845,0.801,1.187s1.383,0.513,2.549,0.513c1.712,0,2.568-0.439,2.568-1.318c0-0.325-0.15-0.571-0.449-0.737
		s-0.641-0.249-1.025-0.249h-2.363C92.027,14.978,91.494,14.897,90.875,14.734z M93.316,9.871c1.211,0,1.816-0.569,1.816-1.709
		c0-0.437-0.151-0.804-0.454-1.104s-0.744-0.449-1.323-0.449c-0.586,0-1.04,0.156-1.362,0.469S91.51,7.781,91.51,8.25
		c0,0.481,0.16,0.872,0.479,1.172S92.75,9.871,93.316,9.871z"/>
	<path fill="#FFFFFF" d="M107.32,10.642l2.227,0.244c-0.143,1.335-0.659,2.434-1.548,3.296s-2.056,1.294-3.501,1.294
		c-1.217,0-2.206-0.306-2.964-0.918s-1.343-1.442-1.753-2.49s-0.615-2.204-0.615-3.467c0-2.031,0.482-3.684,1.445-4.956
		s2.289-1.909,3.975-1.909c1.322,0,2.422,0.407,3.301,1.221s1.432,1.979,1.66,3.496l-2.227,0.234
		c-0.41-2.012-1.315-3.018-2.715-3.018c-0.898,0-1.597,0.418-2.095,1.255s-0.747,2.049-0.747,3.638c0,1.614,0.267,2.834,0.801,3.657
		s1.24,1.235,2.119,1.235c0.703,0,1.302-0.276,1.797-0.83S107.255,11.411,107.32,10.642z"/>
	<path fill="#FFFFFF" d="M119.488,15.271h-2.227V8.816c0-0.696-0.148-1.187-0.444-1.47s-0.644-0.425-1.04-0.425
		c-0.631,0-1.162,0.251-1.592,0.752s-0.645,1.328-0.645,2.48v5.117h-2.227V1.941h2.227v5.195c0.553-1.419,1.523-2.129,2.91-2.129
		c2.025,0,3.037,1.162,3.037,3.486V15.271z"/>
	<path fill="#FFFFFF" d="M128.434,12.126l2.012,0.273c-0.26,0.892-0.768,1.628-1.523,2.207s-1.703,0.869-2.842,0.869
		c-1.367,0-2.467-0.459-3.301-1.377s-1.25-2.161-1.25-3.73c0-1.491,0.42-2.725,1.26-3.701s1.979-1.465,3.418-1.465
		c1.406,0,2.494,0.481,3.262,1.445s1.152,2.2,1.152,3.711l-0.01,0.254h-6.768c0,0.671,0.063,1.208,0.19,1.611
		s0.38,0.755,0.757,1.055s0.85,0.449,1.416,0.449C127.307,13.728,128.049,13.194,128.434,12.126z M128.297,9.177
		c-0.006-0.71-0.22-1.289-0.64-1.738s-0.938-0.674-1.558-0.674c-0.611,0-1.123,0.21-1.533,0.63s-0.65,1.014-0.723,1.782H128.297z"/>
	<path fill="#FFFFFF" d="M136.51,15.476c-1.459,0-2.572-0.524-3.34-1.572s-1.152-2.249-1.152-3.604c0-1.458,0.425-2.673,1.274-3.643
		s1.972-1.455,3.364-1.455c1.322,0,2.407,0.472,3.257,1.416s1.274,2.171,1.274,3.682c0,1.556-0.441,2.808-1.323,3.755
		S137.863,15.476,136.51,15.476z M136.588,13.64c1.498,0,2.246-1.116,2.246-3.35c0-1.009-0.18-1.805-0.537-2.388
		s-0.908-0.874-1.65-0.874c-0.768,0-1.338,0.301-1.709,0.903s-0.557,1.401-0.557,2.397c0,1.074,0.197,1.895,0.591,2.461
		S135.904,13.64,136.588,13.64z"/>
	<path fill="#FFFFFF" d="M151.393,15.271h-2.227V9.109c0-0.651-0.15-1.141-0.449-1.47s-0.66-0.493-1.084-0.493
		c-0.58,0-1.088,0.254-1.523,0.762s-0.654,1.272-0.654,2.295v5.068h-2.227V5.408h2.031v2.285c0.709-1.66,1.705-2.49,2.988-2.49
		c0.865,0,1.606,0.273,2.222,0.82s0.923,1.507,0.923,2.881V15.271z"/>
	<path fill="#FFFFFF" d="M163.053,3.523v1.709h-0.684c-0.3,0-0.562,0.036-0.786,0.107s-0.444,0.303-0.659,0.693
		c0.781,0.638,1.172,1.348,1.172,2.129c0,0.872-0.366,1.595-1.099,2.168s-1.7,0.859-2.905,0.859c-0.521,0-1.129-0.085-1.826-0.254
		c-0.455,0.208-0.684,0.53-0.684,0.967c0,0.241,0.111,0.462,0.332,0.664s0.557,0.303,1.006,0.303h2.93
		c1.003,0,1.789,0.259,2.358,0.776s0.854,1.16,0.854,1.929c0,0.931-0.432,1.702-1.294,2.314s-2.14,0.918-3.833,0.918
		c-3.184,0-4.775-0.889-4.775-2.666c0-0.879,0.479-1.546,1.436-2.002c-0.611-0.521-0.918-1.064-0.918-1.631
		c0-0.859,0.523-1.543,1.572-2.051c-0.912-0.554-1.367-1.315-1.367-2.285c0-0.82,0.336-1.521,1.006-2.1s1.689-0.869,3.057-0.869
		c0.625,0,1.26,0.068,1.904,0.205c0.3-1.257,1.091-1.885,2.373-1.885H163.053z M155.553,14.734c-0.318,0.293-0.479,0.576-0.479,0.85
		c0,0.449,0.268,0.845,0.801,1.187s1.383,0.513,2.549,0.513c1.712,0,2.568-0.439,2.568-1.318c0-0.325-0.149-0.571-0.449-0.737
		s-0.642-0.249-1.025-0.249h-2.363C156.705,14.978,156.172,14.897,155.553,14.734z M157.994,9.871c1.211,0,1.816-0.569,1.816-1.709
		c0-0.437-0.151-0.804-0.454-1.104s-0.743-0.449-1.323-0.449c-0.586,0-1.04,0.156-1.362,0.469s-0.483,0.703-0.483,1.172
		c0,0.481,0.16,0.872,0.479,1.172S157.428,9.871,157.994,9.871z"/>
	<path fill="#FFFFFF" d="M174.615,15.271h-2.334l-5.059-8.516c-0.078-0.13-0.205-0.342-0.381-0.635
		c-0.078-0.13-0.198-0.335-0.361-0.615v9.766h-1.934V1.941h2.656l4.668,7.852c0.039,0.065,0.322,0.544,0.85,1.436V1.941h1.895
		V15.271z"/>
	<path fill="#FFFFFF" d="M185.855,15.271h-2.119c-0.188-0.599-0.303-1.263-0.342-1.992c-0.593,1.465-1.706,2.197-3.34,2.197
		c-0.983,0-1.772-0.288-2.368-0.864s-0.894-1.301-0.894-2.173c0-2.266,1.989-3.398,5.967-3.398c0.156,0,0.368,0.003,0.635,0.01
		V8.308c0-1.022-0.696-1.533-2.09-1.533c-1.354,0-2.122,0.511-2.305,1.533l-1.895-0.283c0.104-0.82,0.527-1.496,1.27-2.026
		s1.816-0.796,3.223-0.796c0.762,0,1.384,0.063,1.865,0.19s0.889,0.342,1.221,0.645s0.562,0.632,0.688,0.986s0.19,0.955,0.19,1.802
		v4.453C185.563,13.923,185.66,14.587,185.855,15.271z M183.395,10.251c-2.878,0-4.316,0.687-4.316,2.061
		c0,0.41,0.145,0.76,0.435,1.05s0.728,0.435,1.313,0.435c0.847,0,1.486-0.269,1.919-0.806s0.649-1.147,0.649-1.831V10.251z"/>
	<path fill="#FFFFFF" d="M202.955,15.271h-2.334V9.128c0-1.276-0.566-1.914-1.699-1.914c-0.657,0-1.184,0.241-1.577,0.723
		s-0.591,1.201-0.591,2.158v5.176h-2.363V9.128c0-1.296-0.53-1.943-1.592-1.943c-0.645,0-1.187,0.261-1.626,0.781
		s-0.659,1.23-0.659,2.129v5.176h-2.295V5.408h2.158v2.1c0.703-1.536,1.8-2.305,3.291-2.305c1.452,0,2.396,0.769,2.832,2.305
		c0.794-1.536,1.892-2.305,3.291-2.305c0.95,0,1.716,0.296,2.295,0.889s0.869,1.328,0.869,2.207V15.271z"/>
	<path fill="#FFFFFF" d="M209.146,9.285v1.826h-4.902V9.285H209.146z"/>
	<path fill="#FFFFFF" d="M218.551,15.271h-2.08v-1.992c-0.573,1.465-1.543,2.197-2.91,2.197c-1.211,0-2.139-0.505-2.783-1.514
		s-0.967-2.263-0.967-3.76c0-1.394,0.335-2.607,1.006-3.643s1.624-1.553,2.861-1.553c1.27,0,2.151,0.579,2.646,1.738V1.941h2.227
		V15.271z M216.324,9.451c0-0.801-0.19-1.424-0.571-1.87s-0.874-0.669-1.479-0.669c-0.657,0-1.172,0.286-1.543,0.859
		s-0.557,1.429-0.557,2.568c0,2.2,0.69,3.301,2.07,3.301c0.547,0,1.03-0.236,1.45-0.708s0.63-1.076,0.63-1.812V9.451z"/>
	<path fill="#FFFFFF" d="M225.074,15.476c-1.458,0-2.571-0.524-3.34-1.572s-1.152-2.249-1.152-3.604
		c0-1.458,0.425-2.673,1.274-3.643s1.971-1.455,3.364-1.455c1.321,0,2.407,0.472,3.257,1.416s1.274,2.171,1.274,3.682
		c0,1.556-0.441,2.808-1.323,3.755S226.429,15.476,225.074,15.476z M225.152,13.64c1.497,0,2.246-1.116,2.246-3.35
		c0-1.009-0.179-1.805-0.537-2.388s-0.908-0.874-1.65-0.874c-0.769,0-1.338,0.301-1.709,0.903s-0.557,1.401-0.557,2.397
		c0,1.074,0.197,1.895,0.591,2.461S224.469,13.64,225.152,13.64z"/>
</g>
<g enable-background="new    ">
	<path fill="#FFFFFF" d="M50.787,21.805l-0.234,3.34l3.027-1.152l0.479,1.758l-3.086,0.684l1.982,2.451l-1.543,1.025l-1.543-2.676
		l-1.553,2.676l-1.533-1.025l1.973-2.451L45.67,25.75l0.479-1.758l3.027,1.152l-0.225-3.34H50.787z"/>
	<path fill="#FFFFFF" d="M62.516,21.805l-0.234,3.34l3.027-1.152l0.479,1.758l-3.086,0.684l1.982,2.451l-1.543,1.025l-1.543-2.676
		l-1.553,2.676l-1.533-1.025l1.973-2.451l-3.086-0.684l0.479-1.758l3.027,1.152l-0.225-3.34H62.516z"/>
	<path fill="#FFFFFF" d="M82.125,35.271h-8.203v-13.33h2.529v11.152h5.674V35.271z"/>
	<path fill="#FFFFFF" d="M85.982,24.256h-2.227v-2.314h2.227V24.256z M85.982,35.271h-2.227v-9.863h2.227V35.271z"/>
	<path fill="#FFFFFF" d="M89.664,35.271h-1.006v-13.33h2.227v4.814c0.423-0.736,0.846-1.221,1.27-1.455s0.918-0.352,1.484-0.352
		c1.081,0,1.976,0.459,2.686,1.377s1.064,2.189,1.064,3.818c0,1.471-0.35,2.727-1.05,3.77c-0.7,1.041-1.704,1.563-3.013,1.563
		c-1.315,0-2.337-0.609-3.066-1.826L89.664,35.271z M90.885,31.063c0,0.879,0.19,1.527,0.571,1.947s0.874,0.631,1.479,0.631
		c0.586,0,1.078-0.242,1.475-0.723c0.397-0.482,0.609-1.426,0.635-2.832c0-1.029-0.179-1.822-0.537-2.379s-0.863-0.834-1.514-0.834
		c-0.612,0-1.117,0.236-1.514,0.713c-0.397,0.475-0.596,1.145-0.596,2.012V31.063z"/>
	<path fill="#FFFFFF" d="M101.656,35.271H99.43v-9.863h2.012v2.354c0.287-0.918,0.68-1.59,1.182-2.012
		c0.501-0.424,1.016-0.635,1.543-0.635c0.072,0,0.169,0.002,0.293,0.01v2.393c-1.133,0-1.883,0.361-2.251,1.084
		s-0.552,1.422-0.552,2.1V35.271z"/>
	<path fill="#FFFFFF" d="M114.498,35.271h-2.119c-0.189-0.6-0.303-1.264-0.342-1.992c-0.592,1.465-1.706,2.197-3.34,2.197
		c-0.983,0-1.772-0.289-2.368-0.865s-0.894-1.301-0.894-2.172c0-2.266,1.989-3.398,5.967-3.398c0.156,0,0.368,0.002,0.635,0.01
		v-0.742c0-1.023-0.697-1.533-2.09-1.533c-1.354,0-2.123,0.51-2.305,1.533l-1.895-0.283c0.104-0.82,0.527-1.496,1.27-2.027
		c0.742-0.529,1.816-0.795,3.223-0.795c0.762,0,1.383,0.063,1.865,0.189s0.889,0.342,1.221,0.645s0.562,0.633,0.688,0.986
		c0.127,0.355,0.19,0.955,0.19,1.803v4.453C114.205,33.924,114.303,34.588,114.498,35.271z M112.037,30.252
		c-2.877,0-4.316,0.686-4.316,2.061c0,0.41,0.145,0.76,0.435,1.049c0.29,0.291,0.728,0.436,1.313,0.436
		c0.846,0,1.486-0.27,1.919-0.807s0.649-1.146,0.649-1.83V30.252z"/>
	<path fill="#FFFFFF" d="M119.098,35.271h-2.227v-9.863h2.012v2.354c0.287-0.918,0.68-1.59,1.182-2.012
		c0.502-0.424,1.016-0.635,1.543-0.635c0.072,0,0.17,0.002,0.293,0.01v2.393c-1.133,0-1.883,0.361-2.251,1.084
		s-0.552,1.422-0.552,2.1V35.271z"/>
	<path fill="#FFFFFF" d="M131.344,25.408l-3.838,11.23c-0.234,0.689-0.555,1.225-0.962,1.605s-0.981,0.572-1.724,0.572
		c-0.293,0-0.719-0.023-1.279-0.068V36.98l1.064,0.02c0.469,0,0.815-0.076,1.04-0.23c0.225-0.152,0.401-0.424,0.532-0.814
		s0.195-0.619,0.195-0.684c0-0.039-0.068-0.242-0.205-0.605l-3.389-9.258h2.334l2.393,6.504l2.061-6.504H131.344z"/>
</g>
</svg>
