<?xml version="1.0" encoding="utf-8"?>
<!-- Generator: Adobe Illustrator 16.0.0, SVG Export Plug-In . SVG Version: 6.00 Build 0)  -->
<!DOCTYPE svg PUBLIC "-//W3C//DTD SVG 1.1//EN" "http://www.w3.org/Graphics/SVG/1.1/DTD/svg11.dtd">
<svg version="1.1" id="Layer_1" xmlns="http://www.w3.org/2000/svg" xmlns:xlink="http://www.w3.org/1999/xlink" x="0px" y="0px"
	 width="93px" height="93px" viewBox="0 0 93 93" enable-background="new 0 0 93 93" xml:space="preserve">
<g>
	<path fill="#FFE782" d="M27.294,50.856c0.061-0.043,0.12-0.088,0.182-0.128c0.083-0.056,0.17-0.106,0.257-0.156
		c0.063-0.037,0.125-0.076,0.19-0.11c0.09-0.048,0.183-0.091,0.276-0.134c0.065-0.03,0.13-0.063,0.197-0.09
		c0.097-0.041,0.197-0.074,0.297-0.109c0.066-0.023,0.131-0.049,0.199-0.07c0.105-0.032,0.214-0.057,0.323-0.083
		c0.065-0.015,0.128-0.034,0.194-0.048c0.121-0.024,0.245-0.04,0.368-0.056c0.056-0.008,0.11-0.02,0.167-0.025
		c0.181-0.018,0.365-0.027,0.55-0.027h0h2.116v-2.577h-3.956c-0.479,0-0.868-0.389-0.868-0.869V35.471c0-0.001,0-0.002,0-0.003
		v-0.086c0-0.479,0.389-0.868,0.869-0.868h3.956v-9.212h0.868h0.869v9.212h8.598c0.479,0,0.868,0.389,0.868,0.868v0.084
		c0,0.001,0,0.002,0,0.002v10.905c0,0.48-0.389,0.869-0.869,0.869h-8.598v2.577h13.393V38.799c0-1.861,1.515-3.376,3.376-3.376
		c0.9,0,1.748,0.352,2.387,0.989c0.637,0.638,0.988,1.486,0.987,2.388l0.001,5.678c1.322-0.457,2.945,0,3.932,0.926
		c0.441-0.355,0.996-0.6,1.758-0.6c0.217,0,0.428,0.022,0.635,0.06V19.258H34.349v4.382H33.48h-0.868v-4.382h-2.116
		c-2.073,0-3.759,1.686-3.759,3.759V51.31c0.048-0.046,0.101-0.086,0.151-0.13c0.056-0.049,0.112-0.099,0.17-0.146
		C27.135,50.973,27.214,50.915,27.294,50.856z M43.792,25.684h13.858c0.479,0,0.868,0.389,0.868,0.868
		c0,0.48-0.389,0.868-0.868,0.868H43.792c-0.48,0-0.869-0.388-0.869-0.868C42.923,26.072,43.312,25.684,43.792,25.684z
		 M43.792,29.961h13.858c0.479,0,0.868,0.389,0.868,0.868s-0.389,0.868-0.868,0.868H43.792c-0.48,0-0.869-0.389-0.869-0.868
		S43.312,29.961,43.792,29.961z M39.829,25.684h0.824c0.48,0,0.869,0.389,0.869,0.868c0,0.48-0.389,0.868-0.869,0.868h-0.824
		c-0.479,0-0.868-0.388-0.868-0.868C38.96,26.072,39.349,25.684,39.829,25.684z M39.829,29.961h0.824
		c0.48,0,0.869,0.389,0.869,0.868s-0.389,0.868-0.869,0.868h-0.824c-0.479,0-0.868-0.389-0.868-0.868S39.349,29.961,39.829,29.961z"
		/>
	<path fill="#FFFFFF" d="M47.741,55.728v-4.172h-4.476c0.591,0.172,1.132,0.488,1.58,0.936L47.741,55.728z"/>
	<path fill="#FFFFFF" d="M39.616,52.491c0.447-0.447,0.989-0.764,1.58-0.936h-10.7c-2.073,0-3.759,1.687-3.759,3.76V55.9
		c0,2.071,1.686,3.758,3.759,3.758h10.957l-1.853-1.956C38.177,56.278,38.176,53.933,39.616,52.491z M35.301,55.886v0.869h-5.534
		v-0.869v-0.868h5.534V55.886z"/>
	<polygon fill="#1B1C1C" points="29.767,55.886 29.767,56.755 35.301,56.755 35.301,55.886 35.301,55.018 29.767,55.018 	"/>
	<path fill="#1B1C1C" d="M43.792,31.697h13.858c0.479,0,0.868-0.389,0.868-0.868s-0.389-0.868-0.868-0.868H43.792
		c-0.48,0-0.869,0.389-0.869,0.868S43.312,31.697,43.792,31.697z"/>
	<path fill="#1B1C1C" d="M43.792,27.42h13.858c0.479,0,0.868-0.388,0.868-0.868c0-0.479-0.389-0.868-0.868-0.868H43.792
		c-0.48,0-0.869,0.389-0.869,0.868C42.923,27.032,43.312,27.42,43.792,27.42z"/>
	<path fill="#1B1C1C" d="M39.829,31.697h0.824c0.48,0,0.869-0.389,0.869-0.868s-0.389-0.868-0.869-0.868h-0.824
		c-0.479,0-0.868,0.389-0.868,0.868S39.349,31.697,39.829,31.697z"/>
	<path fill="#1B1C1C" d="M39.829,27.42h0.824c0.48,0,0.869-0.388,0.869-0.868c0-0.479-0.389-0.868-0.869-0.868h-0.824
		c-0.479,0-0.868,0.389-0.868,0.868C38.96,27.032,39.349,27.42,39.829,27.42z"/>
	<path fill="#FCCFB8" d="M66.264,51.521c0-0.915-0.233-2.009-1.344-2.025l0,0c-0.451,0-0.819,0.146-1.324,0.877
		c-0.166,0.239-0.436,0.372-0.715,0.372c-0.086,0-0.174-0.011-0.259-0.037c-0.025-0.008-0.045-0.025-0.069-0.034
		c0-0.001-0.001-0.001-0.002-0.002c-0.318-0.133-0.535-0.437-0.537-0.787c0-0.002-0.001-0.004-0.001-0.006v-1.508
		c0-0.387-0.122-0.745-0.328-1.041c-0.212-0.305-0.515-0.539-0.868-0.67c-0.199-0.074-0.411-0.12-0.635-0.12
		c-0.465,0-0.699,0.15-1.142,0.733c-0.165,0.218-0.422,0.335-0.691,0.335c-0.035,0-0.069,0.006-0.104,0.002
		c-0.307-0.037-0.57-0.234-0.693-0.518c-0.245-0.569-1.148-1.068-1.934-1.068c-0.508,0-0.994,0.228-1.334,0.625
		c-0.169,0.196-0.411,0.298-0.66,0.298c-0.101,0-0.202-0.013-0.301-0.049c-0.341-0.126-0.566-0.451-0.566-0.814L52.755,38.8
		c0-0.438-0.171-0.85-0.479-1.16c-0.31-0.31-0.721-0.479-1.158-0.479c-0.904,0-1.64,0.735-1.64,1.639v11.021v0.868v0.868v4.33v2.113
		c0,0.36-0.222,0.683-0.558,0.812c-0.336,0.128-0.717,0.036-0.957-0.232l-2.409-2.692l-1.971-2.202
		c-0.337-0.335-0.829-0.539-1.353-0.539c-0.524,0-1.016,0.204-1.387,0.574c-0.584,0.585-0.717,1.45-0.406,2.167
		c0.095,0.22,0.229,0.427,0.407,0.605l3,3.167l0.823,0.868l0.823,0.868l4.65,4.908c0.06,0.063,0.1,0.14,0.138,0.216h14.704
		c0.022-0.037,0.035-0.078,0.063-0.112c0.007-0.01,1.218-1.575,1.218-4.728V51.521z"/>
	<path fill="#1B1C1C" d="M68,51.521c0-2.258-1.198-3.734-3.102-3.763c-0.447,0-0.834,0.09-1.169,0.234
		c-0.095-0.904-0.532-1.708-1.177-2.282V18.389c0-0.479-0.389-0.868-0.868-0.868H30.496c-3.028,0-5.493,2.463-5.496,5.49v32.305
		v0.003V55.9c0,3.029,2.466,5.494,5.496,5.494h12.602L48,66.569c-0.844,0.193-1.477,0.947-1.477,1.849v5.161
		c0,1.048,0.852,1.9,1.9,1.9h17.546c1.048,0,1.9-0.853,1.9-1.9v-5.161c0-0.722-0.411-1.345-1.007-1.666
		C67.339,65.861,68,64.184,68,61.679V51.521z M48.26,73.579v-5.161c0-0.09,0.073-0.163,0.163-0.163h0.219h0.868h0.869h14.47h0.869
		h0.251c0.09,0,0.163,0.073,0.163,0.163v2.568v2.593c0,0.091-0.073,0.164-0.163,0.164H48.423
		C48.333,73.743,48.26,73.67,48.26,73.579z M65.046,66.406c-0.028,0.034-0.041,0.075-0.063,0.112H50.278
		c-0.038-0.076-0.078-0.152-0.138-0.216l-4.65-4.908l-0.823-0.868l-0.823-0.868l-3-3.167c-0.179-0.179-0.312-0.386-0.407-0.605
		c-0.311-0.717-0.178-1.582,0.406-2.167c0.371-0.37,0.863-0.574,1.387-0.574c0.523,0,1.016,0.204,1.353,0.539l1.971,2.202
		l2.409,2.692c0.24,0.269,0.621,0.36,0.957,0.232c0.336-0.129,0.558-0.451,0.558-0.812v-2.113v-4.33v-0.868v-0.868V38.799
		c0-0.903,0.735-1.639,1.64-1.639c0.438,0,0.849,0.17,1.158,0.479c0.309,0.311,0.479,0.722,0.479,1.16l0.001,7.284
		c0,0.363,0.226,0.688,0.566,0.814c0.099,0.036,0.2,0.049,0.301,0.049c0.249,0,0.491-0.102,0.66-0.298
		c0.34-0.397,0.826-0.625,1.334-0.625c0.785,0,1.688,0.499,1.934,1.068c0.123,0.283,0.387,0.48,0.693,0.518
		c0.035,0.004,0.069-0.002,0.104-0.002c0.27,0,0.526-0.117,0.691-0.335c0.442-0.583,0.677-0.733,1.142-0.733
		c0.224,0,0.436,0.046,0.635,0.12c0.354,0.131,0.656,0.365,0.868,0.67c0.206,0.296,0.328,0.654,0.328,1.041v1.508
		c0,0.002,0.001,0.004,0.001,0.006c0.002,0.351,0.219,0.654,0.537,0.787c0.001,0.001,0.002,0.001,0.002,0.002
		c0.024,0.009,0.044,0.026,0.069,0.034c0.085,0.026,0.173,0.037,0.259,0.037c0.279,0,0.549-0.133,0.715-0.372
		c0.505-0.73,0.873-0.877,1.324-0.877l0,0c1.11,0.017,1.344,1.11,1.344,2.025v10.157C66.264,64.831,65.053,66.396,65.046,66.406z
		 M30.496,59.658c-2.073,0-3.759-1.687-3.759-3.758v-0.585c0-2.073,1.686-3.76,3.759-3.76h10.7c-0.59,0.172-1.133,0.488-1.58,0.936
		c-1.44,1.441-1.439,3.787-0.016,5.211l1.853,1.956H30.496z M26.736,51.31V23.017c0-2.073,1.687-3.759,3.759-3.759h2.116v4.382
		h0.868h0.869v-4.382h26.468v25.605c-0.207-0.037-0.418-0.06-0.635-0.06c-0.762,0-1.316,0.244-1.758,0.6
		c-0.986-0.926-2.609-1.383-3.932-0.926L54.491,38.8c0.001-0.901-0.351-1.75-0.987-2.388c-0.639-0.638-1.486-0.989-2.387-0.989
		c-1.861,0-3.376,1.515-3.376,3.376v11.021H34.349v-2.577h8.598c0.48,0,0.869-0.389,0.869-0.869V35.468c0,0,0-0.001,0-0.002v-0.084
		c0-0.479-0.389-0.868-0.868-0.868h-8.598v-9.212H33.48h-0.868v9.212h-3.956c-0.48,0-0.869,0.389-0.869,0.868v0.086
		c0,0.001,0,0.002,0,0.003v10.902c0,0.48,0.389,0.869,0.868,0.869h3.956v2.577h-2.116h0c-0.186,0-0.369,0.01-0.55,0.027
		c-0.057,0.006-0.111,0.018-0.167,0.025c-0.124,0.016-0.248,0.031-0.368,0.056c-0.066,0.014-0.129,0.033-0.194,0.048
		c-0.108,0.026-0.217,0.051-0.323,0.083c-0.068,0.021-0.133,0.047-0.199,0.07c-0.1,0.035-0.2,0.068-0.297,0.109
		c-0.067,0.027-0.131,0.06-0.197,0.09c-0.093,0.043-0.187,0.086-0.276,0.134c-0.065,0.034-0.127,0.073-0.19,0.11
		c-0.087,0.05-0.173,0.101-0.257,0.156c-0.062,0.04-0.121,0.085-0.182,0.128c-0.08,0.059-0.16,0.116-0.237,0.178
		c-0.059,0.047-0.114,0.097-0.17,0.146C26.837,51.224,26.785,51.264,26.736,51.31z M30.635,36.25h1.977h0.868h0.869h6.618
		L35.8,41.533l0,0.001l-1.451-1.485l-0.869-0.888l-0.868-0.889L30.635,36.25L30.635,36.25z M29.524,37.599l3.088,3.158l0.868,0.889
		l0.869,0.888l0.83,0.85c0.164,0.167,0.387,0.262,0.621,0.262c0,0,0,0,0,0c0.233,0,0.457-0.095,0.621-0.262l5.657-5.785v7.907
		h-7.729H33.48h-0.868h-3.088V37.599z M47.741,51.556v4.172l-2.896-3.236c-0.447-0.447-0.989-0.764-1.58-0.936H47.741z"/>
	<path fill="#F16469" d="M65.969,73.743c0.09,0,0.163-0.073,0.163-0.164v-2.593v-2.568c0-0.09-0.073-0.163-0.163-0.163h-0.251
		h-0.869h-14.47H49.51h-0.868h-0.219c-0.09,0-0.163,0.073-0.163,0.163v5.161c0,0.091,0.073,0.164,0.163,0.164H65.969z"/>
	<path fill="#FFFFFF" d="M33.48,45.505h0.869h7.729v-7.907l-5.657,5.785c-0.164,0.167-0.387,0.262-0.621,0.262c0,0,0,0,0,0
		c-0.234,0-0.458-0.095-0.621-0.262l-0.83-0.85l-0.869-0.888l-0.868-0.889l-3.088-3.158v7.906h3.088H33.48z"/>
	<polygon fill="#FFFFFF" points="33.48,39.161 34.349,40.049 35.8,41.534 35.8,41.533 40.967,36.25 34.349,36.25 33.48,36.25 
		32.612,36.25 30.635,36.25 30.634,36.25 32.612,38.272 	"/>
</g>
</svg>
