<?xml version="1.0" encoding="utf-8"?>
<!-- Generator: Adobe Illustrator 16.0.0, SVG Export Plug-In . SVG Version: 6.00 Build 0)  -->
<!DOCTYPE svg PUBLIC "-//W3C//DTD SVG 1.1//EN" "http://www.w3.org/Graphics/SVG/1.1/DTD/svg11.dtd">
<svg version="1.1" id="Layer_1" xmlns="http://www.w3.org/2000/svg" xmlns:xlink="http://www.w3.org/1999/xlink" x="0px" y="0px"
	 width="93px" height="93px" viewBox="0 0 93 93" enable-background="new 0 0 93 93" xml:space="preserve">
<g>
	<defs>
		<rect id="SVGID_1_" x="20" y="21.267" width="53" height="50.465"/>
	</defs>
	<clipPath id="SVGID_2_">
		<use xlink:href="#SVGID_1_"  overflow="visible"/>
	</clipPath>
	<path clip-path="url(#SVGID_2_)" fill="#20C675" d="M72.011,25.561c0-1.825-1.479-3.304-3.303-3.304H24.293
		c-1.825,0-3.304,1.479-3.304,3.304v25.938h51.021V25.561z"/>
	<path clip-path="url(#SVGID_2_)" fill="#1B1B1B" d="M72.011,52.488H20.99c-0.547,0-0.99-0.443-0.99-0.99V25.561
		c0-2.367,1.926-4.293,4.293-4.293h44.415c2.366,0,4.292,1.926,4.292,4.293v25.938C73,52.045,72.557,52.488,72.011,52.488z
		 M21.979,50.508h49.042V25.561c0-1.276-1.037-2.314-2.313-2.314H24.293c-1.276,0-2.314,1.039-2.314,2.314V50.508z"/>
	<polygon clip-path="url(#SVGID_2_)" fill="#FFFFFF" points="54.048,63.822 53.278,59.645 39.726,59.645 38.952,63.822 
		38.836,64.457 54.166,64.457 	"/>
	
		<polygon clip-path="url(#SVGID_2_)" fill="none" stroke="#1B1B1B" stroke-width="3" stroke-linecap="round" stroke-linejoin="round" points="
		54.048,63.822 53.278,59.645 39.726,59.645 38.952,63.822 38.836,64.457 54.166,64.457 	"/>
	<polyline clip-path="url(#SVGID_2_)" fill="#FFFFFF" points="55.186,69.979 54.166,64.457 38.836,64.457 37.816,69.979 	"/>
	
		<polyline clip-path="url(#SVGID_2_)" fill="none" stroke="#1B1B1B" stroke-width="3" stroke-linecap="round" stroke-linejoin="round" points="
		55.186,69.979 54.166,64.457 38.836,64.457 37.816,69.979 	"/>
	<polyline clip-path="url(#SVGID_2_)" fill="#FFFFFF" points="55.186,69.979 54.048,63.822 53.278,59.645 39.726,59.645 
		38.953,63.822 37.816,69.979 	"/>
	<path clip-path="url(#SVGID_2_)" fill="#1B1B1B" d="M55.184,70.969c-0.467,0-0.883-0.334-0.971-0.811l-1.759-9.525H40.549
		l-1.76,9.525c-0.099,0.537-0.617,0.895-1.153,0.793c-0.537-0.098-0.893-0.615-0.793-1.152l1.91-10.334
		c0.087-0.471,0.496-0.811,0.973-0.811h13.553c0.478,0,0.886,0.342,0.974,0.811l1.906,10.334c0.1,0.537-0.256,1.055-0.793,1.152
		C55.305,70.963,55.244,70.969,55.184,70.969z"/>
	<path clip-path="url(#SVGID_2_)" fill="#FFFFFF" d="M20.99,51.498v6.119c0,1.824,1.479,3.305,3.304,3.305h44.415
		c1.824,0,3.303-1.48,3.303-3.305v-6.119H20.99z"/>
	<path clip-path="url(#SVGID_2_)" fill="#1B1B1B" d="M68.708,61.91H24.293c-2.367,0-4.293-1.926-4.293-4.293v-6.119
		c0-0.547,0.443-0.99,0.99-0.99h51.021c0.546,0,0.989,0.443,0.989,0.99v6.119C73,59.984,71.074,61.91,68.708,61.91z M21.979,52.488
		v5.129c0,1.277,1.039,2.314,2.314,2.314h44.415c1.275,0,2.313-1.037,2.313-2.314v-5.129H21.979z"/>
	<line clip-path="url(#SVGID_2_)" fill="#FFFFFF" x1="44.525" y1="56.277" x2="48.476" y2="56.277"/>
	<path clip-path="url(#SVGID_2_)" fill="#1B1B1B" d="M48.476,57.266h-3.95c-0.547,0-0.99-0.442-0.99-0.988
		c0-0.547,0.443-0.99,0.99-0.99h3.95c0.546,0,0.989,0.443,0.989,0.99C49.465,56.823,49.021,57.266,48.476,57.266z"/>
	<line clip-path="url(#SVGID_2_)" fill="#FFFFFF" x1="31.269" y1="70.744" x2="61.734" y2="70.744"/>
	<path clip-path="url(#SVGID_2_)" fill="#1B1B1B" d="M61.734,71.732H31.269c-0.546,0-0.989-0.443-0.989-0.988
		c0-0.547,0.443-0.99,0.989-0.99h30.466c0.546,0,0.989,0.443,0.989,0.99C62.724,71.289,62.28,71.732,61.734,71.732z"/>
</g>
</svg>
