<?xml version="1.0" encoding="utf-8"?>
<!-- Generator: Adobe Illustrator 16.0.0, SVG Export Plug-In . SVG Version: 6.00 Build 0)  -->
<!DOCTYPE svg PUBLIC "-//W3C//DTD SVG 1.1//EN" "http://www.w3.org/Graphics/SVG/1.1/DTD/svg11.dtd">
<svg version="1.1" id="Layer_1" xmlns="http://www.w3.org/2000/svg" xmlns:xlink="http://www.w3.org/1999/xlink" x="0px" y="0px"
	 width="93px" height="93px" viewBox="0 0 93 93" enable-background="new 0 0 93 93" xml:space="preserve">
<g>
	<rect x="29.404" y="30.137" fill="#FFFFFF" width="34.191" height="41.126"/>
	<g>
		<defs>
			<rect id="SVGID_1_" x="28.5" y="20.833" width="36" height="51.335"/>
		</defs>
		<clipPath id="SVGID_2_">
			<use xlink:href="#SVGID_1_"  overflow="visible"/>
		</clipPath>
		<path clip-path="url(#SVGID_2_)" fill="#1B1C1C" d="M63.596,72.168H29.404c-0.5,0-0.904-0.404-0.904-0.904V45.56
			c0-0.5,0.405-0.904,0.904-0.904s0.904,0.405,0.904,0.904v24.8h32.383v-9.377c0-0.5,0.405-0.904,0.904-0.904
			s0.904,0.404,0.904,0.904v10.281C64.5,71.764,64.095,72.168,63.596,72.168z"/>
		<path clip-path="url(#SVGID_2_)" fill="#1B1C1C" d="M63.596,56.746c-0.499,0-0.904-0.406-0.904-0.904V31.041H30.308v9.378
			c0,0.5-0.405,0.904-0.904,0.904c-0.5,0-0.904-0.404-0.904-0.904V30.137c0-0.5,0.405-0.904,0.904-0.904h34.191
			c0.499,0,0.904,0.405,0.904,0.904v25.705C64.5,56.34,64.095,56.746,63.596,56.746z"/>
		<path clip-path="url(#SVGID_2_)" fill="#89C7ED" d="M54.698,27.462h-3.352c0.044-0.263,0.072-0.531,0.072-0.806
			c0-2.716-2.202-4.919-4.919-4.919c-2.716,0-4.918,2.203-4.918,4.919c0,0.275,0.029,0.543,0.071,0.806H38.3
			c-0.593,0-1.074,0.481-1.074,1.075v3.442c0,0.594,0.481,1.075,1.074,1.075h16.398c0.593,0,1.075-0.481,1.075-1.075v-3.442
			C55.773,27.943,55.291,27.462,54.698,27.462 M46.5,28.349c-0.936,0-1.693-0.758-1.693-1.693c0-0.936,0.758-1.693,1.693-1.693
			c0.935,0,1.694,0.758,1.694,1.693C48.193,27.591,47.435,28.349,46.5,28.349"/>
		<path clip-path="url(#SVGID_2_)" fill="#1B1C1C" d="M54.698,33.958H38.3c-1.091,0-1.978-0.888-1.978-1.979v-3.442
			c0-1.091,0.887-1.979,1.978-1.979h2.377c0.052-3.166,2.644-5.725,5.822-5.725s5.77,2.559,5.823,5.725h2.376
			c1.091,0,1.979,0.888,1.979,1.979v3.442C56.678,33.07,55.789,33.958,54.698,33.958z M38.3,28.366c-0.094,0-0.17,0.077-0.17,0.171
			v3.442c0,0.094,0.076,0.171,0.17,0.171h16.398c0.095,0,0.171-0.077,0.171-0.171v-3.442c0-0.094-0.076-0.171-0.171-0.171h-3.352
			c-0.267,0-0.519-0.117-0.69-0.32c-0.172-0.203-0.246-0.472-0.201-0.734c0.041-0.241,0.061-0.456,0.061-0.657
			c0-2.214-1.802-4.015-4.016-4.015c-2.213,0-4.015,1.801-4.015,4.015c0,0.197,0.02,0.408,0.06,0.664
			c0.042,0.261-0.033,0.528-0.205,0.729c-0.171,0.202-0.423,0.317-0.688,0.317H38.3z M46.5,29.253c-1.432,0-2.597-1.165-2.597-2.597
			s1.165-2.597,2.597-2.597s2.598,1.165,2.598,2.597S47.932,29.253,46.5,29.253z M46.5,25.867c-0.435,0-0.789,0.354-0.789,0.789
			s0.354,0.789,0.789,0.789c0.436,0,0.791-0.354,0.791-0.789S46.935,25.867,46.5,25.867z"/>
		<path clip-path="url(#SVGID_2_)" fill="#1B1C1C" d="M56.596,42.289H40.473c-0.5,0-0.904-0.405-0.904-0.904
			s0.405-0.904,0.904-0.904h16.123c0.5,0,0.904,0.405,0.904,0.904S57.096,42.289,56.596,42.289z"/>
		<path clip-path="url(#SVGID_2_)" fill="#1B1C1C" d="M56.596,47.111H40.473c-0.5,0-0.904-0.405-0.904-0.905
			c0-0.499,0.405-0.904,0.904-0.904h16.123c0.5,0,0.904,0.405,0.904,0.904C57.5,46.706,57.096,47.111,56.596,47.111z"/>
		<path clip-path="url(#SVGID_2_)" fill="#1B1C1C" d="M56.596,51.933H40.473c-0.5,0-0.904-0.405-0.904-0.903
			c0-0.5,0.405-0.904,0.904-0.904h16.123c0.5,0,0.904,0.404,0.904,0.904C57.5,51.527,57.096,51.933,56.596,51.933z"/>
		<path clip-path="url(#SVGID_2_)" fill="#1B1C1C" d="M56.596,56.755H40.473c-0.5,0-0.904-0.405-0.904-0.904
			s0.405-0.903,0.904-0.903h16.123c0.5,0,0.904,0.404,0.904,0.903S57.096,56.755,56.596,56.755z"/>
		<path clip-path="url(#SVGID_2_)" fill="#1B1C1C" d="M56.596,61.576H40.473c-0.5,0-0.904-0.404-0.904-0.903
			s0.405-0.904,0.904-0.904h16.123c0.5,0,0.904,0.405,0.904,0.904S57.096,61.576,56.596,61.576z"/>
		<path clip-path="url(#SVGID_2_)" fill="#1B1C1C" d="M36.908,42.289h-0.857c-0.5,0-0.904-0.405-0.904-0.904
			s0.405-0.904,0.904-0.904h0.857c0.5,0,0.904,0.405,0.904,0.904S37.407,42.289,36.908,42.289z"/>
		<path clip-path="url(#SVGID_2_)" fill="#1B1C1C" d="M36.908,47.111h-0.857c-0.5,0-0.904-0.405-0.904-0.905
			c0-0.499,0.405-0.904,0.904-0.904h0.857c0.5,0,0.904,0.405,0.904,0.904C37.812,46.706,37.407,47.111,36.908,47.111z"/>
		<path clip-path="url(#SVGID_2_)" fill="#1B1C1C" d="M36.908,51.933h-0.857c-0.5,0-0.904-0.405-0.904-0.903
			c0-0.5,0.405-0.904,0.904-0.904h0.857c0.5,0,0.904,0.404,0.904,0.904C37.812,51.527,37.407,51.933,36.908,51.933z"/>
		<path clip-path="url(#SVGID_2_)" fill="#1B1C1C" d="M36.908,56.755h-0.857c-0.5,0-0.904-0.405-0.904-0.904
			s0.405-0.903,0.904-0.903h0.857c0.5,0,0.904,0.404,0.904,0.903S37.407,56.755,36.908,56.755z"/>
		<path clip-path="url(#SVGID_2_)" fill="#1B1C1C" d="M36.908,61.576h-0.857c-0.5,0-0.904-0.404-0.904-0.903
			s0.405-0.904,0.904-0.904h0.857c0.5,0,0.904,0.405,0.904,0.904S37.407,61.576,36.908,61.576z"/>
	</g>
</g>
</svg>
