<?xml version="1.0" encoding="utf-8"?>
<!-- Generator: Adobe Illustrator 16.0.0, SVG Export Plug-In . SVG Version: 6.00 Build 0)  -->
<!DOCTYPE svg PUBLIC "-//W3C//DTD SVG 1.1//EN" "http://www.w3.org/Graphics/SVG/1.1/DTD/svg11.dtd">
<svg version="1.1" id="Layer_1" xmlns="http://www.w3.org/2000/svg" xmlns:xlink="http://www.w3.org/1999/xlink" x="0px" y="0px"
	 width="93px" height="93px" viewBox="0 0 93 93" enable-background="new 0 0 93 93" xml:space="preserve">
<g>
	<polygon fill="#00BEF3" points="37.347,33.666 23.349,43.896 37.381,43.896 37.381,33.666 	"/>
	<g>
		<defs>
			<rect id="SVGID_1_" x="22.5" y="21.334" width="48" height="50.332"/>
		</defs>
		<clipPath id="SVGID_2_">
			<use xlink:href="#SVGID_1_"  overflow="visible"/>
		</clipPath>
		<path clip-path="url(#SVGID_2_)" fill="#1B1C1C" d="M37.381,44.744H23.349c-0.367,0-0.693-0.236-0.807-0.585
			c-0.114-0.349,0.009-0.731,0.306-0.948l13.999-10.23c0.146-0.106,0.321-0.164,0.5-0.164c0.469,0,0.883,0.38,0.883,0.849v10.23
			C38.229,44.364,37.85,44.744,37.381,44.744z M25.948,43.047h10.584v-7.735L25.948,43.047z"/>
	</g>
	<polygon fill="#FFFFFF" points="55.653,33.666 37.38,33.666 37.38,43.896 55.658,43.896 55.658,33.668 	"/>
	<path fill="#1B1C1C" d="M55.658,44.744H37.38c-0.469,0-0.848-0.38-0.848-0.849v-10.23c0-0.469,0.379-0.849,0.848-0.849h18.273
		c0.159,0,0.313,0.044,0.448,0.129c0.25,0.155,0.404,0.43,0.404,0.723v10.227C56.506,44.364,56.126,44.744,55.658,44.744z
		 M38.229,43.047h16.58v-8.533h-16.58V43.047z"/>
	<polygon fill="#00BEF3" points="55.658,33.668 55.658,43.896 69.652,43.896 	"/>
	<g>
		<defs>
			<rect id="SVGID_3_" x="22.5" y="21.334" width="48" height="50.332"/>
		</defs>
		<clipPath id="SVGID_4_">
			<use xlink:href="#SVGID_3_"  overflow="visible"/>
		</clipPath>
		<path clip-path="url(#SVGID_4_)" fill="#1B1C1C" d="M69.652,44.745H55.658c-0.469,0-0.85-0.38-0.85-0.849V33.668
			c0-0.319,0.18-0.612,0.465-0.756c0.283-0.145,0.626-0.118,0.885,0.071l13.994,10.228c0.297,0.216,0.42,0.599,0.307,0.948
			C70.345,44.508,70.02,44.745,69.652,44.745z M56.506,43.047h10.547L56.506,35.34V43.047z"/>
	</g>
	<rect x="35.99" y="22.183" fill="#FFFFFF" width="21.02" height="28.778"/>
	<g>
		<defs>
			<rect id="SVGID_5_" x="22.5" y="21.334" width="48" height="50.332"/>
		</defs>
		<clipPath id="SVGID_6_">
			<use xlink:href="#SVGID_5_"  overflow="visible"/>
		</clipPath>
		<path clip-path="url(#SVGID_6_)" fill="#1B1C1C" d="M57.859,51.81H35.141V21.334h22.718V51.81z M36.838,50.112h19.324V23.031
			H36.838V50.112z"/>
	</g>
	<rect x="34.629" y="24.876" fill="#FFFFFF" width="23.742" height="32.504"/>
	<path fill="#1B1C1C" d="M59.22,58.23H33.781V24.028H59.22V58.23z M35.478,56.533h22.045V25.725H35.478V56.533z"/>
	<polyline fill="#FFFFFF" points="60.072,27.987 60.072,65.15 32.928,65.15 32.928,27.987 	"/>
	<polygon fill="#1B1C1C" points="60.922,65.998 32.079,65.998 32.079,27.987 33.776,27.987 33.776,64.301 59.225,64.301 
		59.225,27.987 60.922,27.987 	"/>
	<path fill="#FFFFFF" d="M37.074,33.312h18.851H37.074z"/>
	<rect x="37.075" y="32.463" fill="#1B1C1C" width="18.851" height="1.697"/>
	<path fill="#FFFFFF" d="M37.074,36.937h18.851H37.074z"/>
	<rect x="37.075" y="36.088" fill="#1B1C1C" width="18.851" height="1.697"/>
	<rect x="35.99" y="22.183" fill="#FFFFFF" width="21.02" height="28.778"/>
	<g>
		<defs>
			<rect id="SVGID_7_" x="22.5" y="21.334" width="48" height="50.332"/>
		</defs>
		<clipPath id="SVGID_8_">
			<use xlink:href="#SVGID_7_"  overflow="visible"/>
		</clipPath>
		<path clip-path="url(#SVGID_8_)" fill="#1B1C1C" d="M57.859,51.81H35.141V21.334h22.718V51.81z M36.838,50.112h19.324V23.031
			H36.838V50.112z"/>
	</g>
	<rect x="34.629" y="24.876" fill="#FFFFFF" width="23.742" height="32.504"/>
	<path fill="#1B1C1C" d="M59.22,58.23H33.781V24.028H59.22V58.23z M35.478,56.533h22.045V25.725H35.478V56.533z"/>
	<polyline fill="#FFFFFF" points="40.357,27.987 49.894,27.987 53.287,27.987 56.68,27.987 60.072,27.987 60.072,32.632 
		60.072,37.278 60.072,41.923 60.072,46.568 60.072,51.214 60.072,55.859 60.072,60.505 60.072,65.15 56.68,65.15 53.287,65.15 
		49.894,65.15 46.5,65.15 43.107,65.15 39.714,65.15 36.32,65.15 32.927,65.15 32.927,60.505 32.927,55.859 32.927,51.214 
		32.927,46.568 32.927,41.923 32.927,37.278 32.927,32.632 32.927,27.987 36.32,27.987 	"/>
	<polygon fill="#1B1C1C" points="60.922,65.998 32.079,65.998 32.079,27.139 36.32,27.139 36.32,28.836 33.776,28.836 
		33.776,64.301 59.225,64.301 59.225,28.836 40.357,28.836 40.357,27.139 60.922,27.139 	"/>
	<path fill="#FFFFFF" d="M37.246,27.987h1.98H37.246z"/>
	<rect x="37.246" y="27.139" fill="#1B1C1C" width="1.98" height="1.697"/>
	<path fill="#FFFFFF" d="M37.074,33.312h18.851H37.074z"/>
	<rect x="37.075" y="32.463" fill="#1B1C1C" width="18.851" height="1.697"/>
	<path fill="#FFFFFF" d="M37.074,36.937h18.851H37.074z"/>
	<rect x="37.075" y="36.088" fill="#1B1C1C" width="18.851" height="1.697"/>
	<polyline fill="#00BEF3" points="69.652,70.816 69.652,43.896 23.348,43.896 23.348,70.816 	"/>
	<g>
		<defs>
			<rect id="SVGID_9_" x="22.5" y="21.334" width="48" height="50.332"/>
		</defs>
		<clipPath id="SVGID_10_">
			<use xlink:href="#SVGID_9_"  overflow="visible"/>
		</clipPath>
		<path clip-path="url(#SVGID_10_)" fill="#FFFFFF" d="M54.846,54.664c0,0.297-0.241,0.537-0.538,0.537H38.693
			c-0.297,0-0.539-0.24-0.539-0.537v-3.231c0-0.296,0.242-0.538,0.539-0.538h15.615c0.297,0,0.538,0.242,0.538,0.538V54.664z"/>
		<path clip-path="url(#SVGID_10_)" fill="#1B1C1C" d="M54.308,56.05H38.693c-0.765,0-1.387-0.622-1.387-1.386v-3.231
			c0-0.765,0.622-1.387,1.387-1.387h15.615c0.765,0,1.386,0.622,1.386,1.387v3.231C55.693,55.428,55.072,56.05,54.308,56.05z
			 M39.003,54.354h14.994v-2.61H39.003V54.354z"/>
		<path clip-path="url(#SVGID_10_)" fill="#1B1C1C" d="M69.652,71.666H34.134v-1.697h34.669V44.745H24.197v25.224h4.939v1.697
			h-5.788c-0.469,0-0.848-0.381-0.848-0.85v-26.92c0-0.469,0.379-0.849,0.848-0.849h46.304c0.468,0,0.849,0.38,0.849,0.849v26.92
			C70.501,71.285,70.12,71.666,69.652,71.666z"/>
		<rect x="30.493" y="69.969" clip-path="url(#SVGID_10_)" fill="#1B1C1C" width="2.228" height="1.697"/>
		<rect x="39.388" y="65.313" clip-path="url(#SVGID_10_)" fill="#1B1C1C" width="29.697" height="1.697"/>
	</g>
</g>
</svg>
