<?xml version="1.0" encoding="utf-8"?>
<!-- Generator: Adobe Illustrator 16.0.0, SVG Export Plug-In . SVG Version: 6.00 Build 0)  -->
<!DOCTYPE svg PUBLIC "-//W3C//DTD SVG 1.1//EN" "http://www.w3.org/Graphics/SVG/1.1/DTD/svg11.dtd">
<svg version="1.1" id="Layer_1" xmlns="http://www.w3.org/2000/svg" xmlns:xlink="http://www.w3.org/1999/xlink" x="0px" y="0px"
	 width="93px" height="93px" viewBox="0 0 93 93" enable-background="new 0 0 93 93" xml:space="preserve">
<g>
	<defs>
		<rect id="SVGID_1_" x="19.5" y="21.02" width="54" height="50.96"/>
	</defs>
	<clipPath id="SVGID_2_">
		<use xlink:href="#SVGID_1_"  overflow="visible"/>
	</clipPath>
	<rect x="20.506" y="28.052" clip-path="url(#SVGID_2_)" fill="#FFFFFF" width="51.988" height="37.405"/>
	<path clip-path="url(#SVGID_2_)" fill="#1B1B1B" d="M59.498,29.058H33.503c-0.556,0-1.006-0.45-1.006-1.006
		c0-0.555,0.45-1.005,1.006-1.005h25.995c0.555,0,1.006,0.45,1.006,1.005C60.504,28.607,60.053,29.058,59.498,29.058z"/>
	<polygon clip-path="url(#SVGID_2_)" fill="#1B1B1B" points="21.512,51.431 19.5,51.431 19.5,27.046 27.004,27.046 27.004,29.058 
		21.512,29.058 	"/>
	<polygon clip-path="url(#SVGID_2_)" fill="#1B1B1B" points="73.5,66.463 19.5,66.463 19.5,56.107 21.511,56.107 21.511,64.451 
		71.488,64.451 71.488,51.431 73.5,51.431 	"/>
	<rect x="71.488" y="42.079" clip-path="url(#SVGID_2_)" fill="#1B1B1B" width="2.012" height="4.676"/>
	<polygon clip-path="url(#SVGID_2_)" fill="#1B1B1B" points="73.499,37.403 71.487,37.403 71.487,29.058 65.996,29.058 
		65.996,27.046 73.499,27.046 	"/>
	<path clip-path="url(#SVGID_2_)" fill="#1B1B1B" d="M68.962,71.98H24.037c-0.556,0-1.006-0.451-1.006-1.006
		c0-0.557,0.45-1.006,1.006-1.006h44.925c0.556,0,1.006,0.449,1.006,1.006C69.968,71.529,69.518,71.98,68.962,71.98z"/>
	<path clip-path="url(#SVGID_2_)" fill="#FF6464" d="M36.9,30.496c0,1.247-1.011,2.259-2.259,2.259
		c-1.247,0-2.258-1.012-2.258-2.259v-6.212c0-1.247,1.011-2.258,2.258-2.258c1.248,0,2.259,1.011,2.259,2.258V30.496z"/>
	<path clip-path="url(#SVGID_2_)" fill="#1B1B1B" d="M34.642,33.76c-1.8,0-3.264-1.464-3.264-3.264v-6.212
		c0-1.799,1.464-3.264,3.264-3.264c1.8,0,3.265,1.464,3.265,3.264v6.212C37.906,32.295,36.442,33.76,34.642,33.76z M34.642,23.032
		c-0.69,0-1.252,0.562-1.252,1.252v6.212c0,0.691,0.562,1.253,1.252,1.253c0.691,0,1.253-0.562,1.253-1.253v-6.212
		C35.895,23.593,35.333,23.032,34.642,23.032z"/>
	<path clip-path="url(#SVGID_2_)" fill="#FF6464" d="M48.759,30.496c0,1.247-1.012,2.259-2.259,2.259
		c-1.247,0-2.258-1.012-2.258-2.259v-6.212c0-1.247,1.011-2.258,2.258-2.258c1.248,0,2.259,1.011,2.259,2.258V30.496z"/>
	<path clip-path="url(#SVGID_2_)" fill="#1B1B1B" d="M46.5,33.76c-1.8,0-3.264-1.464-3.264-3.264v-6.212
		c0-1.799,1.464-3.264,3.264-3.264c1.801,0,3.265,1.464,3.265,3.264v6.212C49.765,32.295,48.301,33.76,46.5,33.76z M46.5,23.032
		c-0.69,0-1.252,0.562-1.252,1.252v6.212c0,0.691,0.562,1.253,1.252,1.253c0.692,0,1.253-0.562,1.253-1.253v-6.212
		C47.753,23.593,47.191,23.032,46.5,23.032z"/>
	<path clip-path="url(#SVGID_2_)" fill="#FF6464" d="M60.615,30.496c0,1.247-1.011,2.259-2.258,2.259
		c-1.248,0-2.258-1.012-2.258-2.259v-6.212c0-1.247,1.01-2.258,2.258-2.258c1.247,0,2.258,1.011,2.258,2.258V30.496z"/>
	<path clip-path="url(#SVGID_2_)" fill="#1B1B1B" d="M58.357,33.76c-1.8,0-3.264-1.464-3.264-3.264v-6.212
		c0-1.799,1.464-3.264,3.264-3.264s3.264,1.464,3.264,3.264v6.212C61.621,32.295,60.157,33.76,58.357,33.76z M58.357,23.032
		c-0.69,0-1.252,0.562-1.252,1.252v6.212c0,0.691,0.562,1.253,1.252,1.253s1.252-0.562,1.252-1.253v-6.212
		C59.609,23.593,59.048,23.032,58.357,23.032z"/>
	<rect x="27.155" y="40.29" clip-path="url(#SVGID_2_)" fill="#6895C8" width="11.072" height="15.345"/>
	<path clip-path="url(#SVGID_2_)" fill="#1B1B1B" d="M38.227,56.641H27.155c-0.556,0-1.006-0.451-1.006-1.006V40.29
		c0-0.556,0.45-1.006,1.006-1.006h11.072c0.556,0,1.006,0.45,1.006,1.006v15.345C39.233,56.189,38.783,56.641,38.227,56.641z
		 M28.161,54.629h9.061V41.295h-9.061V54.629z"/>
	<rect x="43.472" y="40.936" clip-path="url(#SVGID_2_)" fill="#1B1B1B" width="1.942" height="2.011"/>
	<rect x="47.355" y="40.936" clip-path="url(#SVGID_2_)" fill="#1B1B1B" width="20.203" height="2.011"/>
	<rect x="43.472" y="46.957" clip-path="url(#SVGID_2_)" fill="#1B1B1B" width="1.942" height="2.012"/>
	<rect x="47.355" y="46.957" clip-path="url(#SVGID_2_)" fill="#1B1B1B" width="20.203" height="2.012"/>
	<rect x="43.472" y="52.979" clip-path="url(#SVGID_2_)" fill="#1B1B1B" width="1.942" height="2.012"/>
	<rect x="47.355" y="52.979" clip-path="url(#SVGID_2_)" fill="#1B1B1B" width="20.203" height="2.012"/>
</g>
</svg>
