<?xml version="1.0" encoding="utf-8"?>
<!-- Generator: Adobe Illustrator 16.0.0, SVG Export Plug-In . SVG Version: 6.00 Build 0)  -->
<!DOCTYPE svg PUBLIC "-//W3C//DTD SVG 1.1//EN" "http://www.w3.org/Graphics/SVG/1.1/DTD/svg11.dtd">
<svg version="1.1" id="Layer_1" xmlns="http://www.w3.org/2000/svg" xmlns:xlink="http://www.w3.org/1999/xlink" x="0px" y="0px"
	 width="87px" height="40px" viewBox="0 0 87 40" enable-background="new 0 0 87 40" xml:space="preserve">
<g>
	<path d="M14.88,20.08c-0.507,0.4-1.253,0.807-2.24,1.22c-0.987,0.414-2.034,0.8-3.14,1.16c-1.107,0.36-2.194,0.68-3.26,0.96
		c-1.067,0.28-1.934,0.487-2.6,0.62c-0.187,0.054-0.474,0.026-0.86-0.08c-0.387-0.106-0.753-0.146-1.1-0.12
		c-0.187,0-0.38-0.053-0.58-0.16c-0.2-0.105-0.34-0.306-0.42-0.6c-0.054-0.213-0.054-0.373,0-0.48c0.053-0.105,0.12-0.266,0.2-0.479
		c0.026-0.106,0.053-0.227,0.08-0.36c0.026-0.133,0.066-0.24,0.12-0.319c0.16-0.214,0.293-0.32,0.4-0.32
		c0.88-0.133,1.886-0.333,3.02-0.601c1.133-0.266,2.266-0.553,3.4-0.859c1.133-0.307,2.207-0.613,3.22-0.92
		c1.013-0.307,1.826-0.566,2.44-0.78c0.186-0.053,0.42-0.133,0.7-0.24c0.28-0.106,0.566-0.206,0.86-0.3
		c0.293-0.093,0.56-0.18,0.8-0.26c0.24-0.08,0.426-0.12,0.56-0.12c0.133,0,0.2,0.02,0.2,0.06s-0.02,0.094-0.06,0.16
		c-0.04,0.067-0.087,0.127-0.14,0.181c-0.054,0.054-0.067,0.094-0.04,0.119c-0.027,0.134-0.06,0.234-0.1,0.301
		s-0.094,0.134-0.16,0.199c-0.067,0.067-0.14,0.147-0.22,0.24c-0.08,0.094-0.174,0.234-0.28,0.42c-0.08,0.16-0.194,0.387-0.34,0.681
		C15.193,19.693,15.04,19.92,14.88,20.08z M10.8,6.84c0.48,0.24,0.767,0.561,0.86,0.96c0.093,0.4,0.1,0.827,0.02,1.28
		C11.626,9.427,11.533,9.733,11.4,10c-0.134,0.267-0.267,0.574-0.4,0.92c-0.214,0.507-0.474,1.047-0.78,1.62
		c-0.307,0.573-0.634,1.087-0.98,1.54c-0.694,0.854-1.454,1.587-2.28,2.2c-0.827,0.613-1.694,1.026-2.6,1.239
		c-0.16-0.133-0.26-0.293-0.3-0.479s-0.114-0.4-0.22-0.64c-0.08-0.24-0.187-0.46-0.32-0.66c-0.134-0.2-0.214-0.42-0.24-0.66
		C3.253,14.707,3.26,14.347,3.3,14s0.086-0.6,0.14-0.76c0.16-0.721,0.46-1.554,0.9-2.5s0.966-1.866,1.58-2.76
		c0.613-0.894,1.28-1.714,2-2.461c0.72-0.746,1.453-1.293,2.2-1.64c0.08,0,0.146-0.013,0.2-0.04h0.24
		c0.053,0.054,0.046,0.134-0.02,0.24c-0.067,0.106-0.074,0.187-0.02,0.24c0.133,0.134,0.2,0.254,0.2,0.359
		c-0.054,0.134-0.127,0.34-0.22,0.62c-0.094,0.28-0.247,0.567-0.46,0.86L9.68,6.64C10.026,6.64,10.4,6.707,10.8,6.84z M5.84,14.08
		c0.346-0.16,0.78-0.44,1.3-0.84c0.52-0.4,1.026-0.847,1.52-1.34c0.493-0.493,0.913-0.993,1.26-1.5
		c0.346-0.507,0.52-0.946,0.52-1.32c-0.054-0.213-0.26-0.394-0.62-0.54c-0.36-0.146-0.74-0.246-1.14-0.3
		c-0.587,0.934-1.134,1.927-1.64,2.979C6.533,12.273,6.133,13.227,5.84,14.08z M10.52,24c-0.134,1.12-0.287,2.36-0.46,3.72
		c-0.174,1.36-0.26,2.761-0.26,4.2c0,0.133-0.014,0.28-0.04,0.44C9.733,32.52,9.68,32.586,9.6,32.56
		c-0.054-0.054-0.127-0.146-0.22-0.279C9.286,32.146,9.2,32.053,9.12,32c-0.214-0.187-0.347-0.347-0.4-0.48
		c-0.214-0.8-0.287-1.659-0.22-2.579c0.066-0.921,0.2-1.807,0.4-2.66c0.2-0.854,0.42-1.613,0.66-2.28
		c0.24-0.666,0.426-1.146,0.56-1.44c0.373,0,0.546,0.147,0.52,0.44C10.613,23.294,10.573,23.627,10.52,24z"/>
	<path d="M37.919,9.28c-0.507,0.854-1.047,1.739-1.62,2.66c-0.574,0.92-1.14,1.866-1.7,2.84c-0.56,0.974-1.1,1.967-1.62,2.979
		c-0.52,1.014-0.98,2.04-1.38,3.08c-0.08,0.134-0.187,0.2-0.32,0.2c-0.08-0.106-0.127-0.2-0.14-0.28
		c-0.014-0.08-0.047-0.213-0.1-0.399c-0.054-0.134-0.12-0.294-0.2-0.48s-0.12-0.346-0.12-0.479c0-0.187-0.007-0.36-0.02-0.521
		c-0.014-0.16-0.007-0.293,0.02-0.399c0.506-1.547,1.14-3.04,1.9-4.48c0.76-1.44,1.486-2.813,2.18-4.12
		c-0.454,0.16-1.067,0.467-1.84,0.92l-1.08,0.601c-0.187,0.106-0.36,0.199-0.52,0.279s-0.307,0.16-0.44,0.24
		c-0.107,0.054-0.227,0.067-0.36,0.04c-0.134-0.026-0.307-0.066-0.52-0.12c-0.16-0.053-0.334-0.1-0.52-0.14
		c-0.187-0.04-0.307-0.113-0.36-0.22c-0.054-0.106-0.06-0.207-0.02-0.301c0.04-0.093,0.073-0.192,0.1-0.3
		c0.026-0.106,0.04-0.2,0.04-0.28s0.013-0.146,0.04-0.199c1.013-0.96,2.146-1.727,3.4-2.301c1.253-0.572,2.533-0.859,3.84-0.859
		c0.053,0.026,0.2,0.134,0.44,0.319c0.08,0.08,0.266,0.2,0.56,0.36c0.293,0.16,0.48,0.307,0.56,0.44c0.133,0.187,0.133,0.354,0,0.5
		C37.986,9.007,37.919,9.146,37.919,9.28z M38.04,14.72c0.133,0.721,0.246,1.561,0.34,2.521c0.093,0.96,0.18,1.939,0.26,2.939
		c0.08,1,0.153,1.974,0.22,2.92c0.066,0.947,0.126,1.78,0.18,2.5v0.681c-0.187-0.106-0.3-0.227-0.34-0.36
		c-0.04-0.133-0.126-0.293-0.26-0.479c-0.054-0.106-0.12-0.2-0.2-0.28s-0.146-0.173-0.2-0.28c-0.32-1.786-0.607-3.58-0.86-5.38
		s-0.46-3.62-0.62-5.46l0.12-0.36c0.026-0.053,0.053-0.1,0.08-0.14c0.026-0.04,0.053-0.086,0.08-0.14
		c0.026-0.08,0.066-0.12,0.12-0.12c0.106,0,0.186,0.066,0.24,0.2c0.053,0.133,0.146,0.267,0.28,0.399
		c0.213,0.214,0.346,0.354,0.4,0.42C37.933,14.367,37.986,14.507,38.04,14.72z M46.359,20.84l-1.4,4.88
		c0.801-0.16,1.646-0.373,2.541-0.64c0.893-0.267,1.806-0.553,2.739-0.86c0.933-0.306,1.854-0.62,2.761-0.939
		c0.906-0.32,1.772-0.627,2.6-0.92c0.053-0.026,0.173-0.073,0.359-0.141c0.187-0.066,0.293-0.086,0.32-0.06
		c0.053,0.054,0.014,0.16-0.12,0.32c-0.134,0.159-0.214,0.307-0.239,0.439l-0.721,0.76c-0.187,0.214-0.32,0.447-0.4,0.7
		c-0.08,0.254-0.239,0.474-0.479,0.66c-1.2,0.934-2.587,1.74-4.16,2.42S47.093,28.653,45.68,29c-0.428,0.027-0.801-0.013-1.12-0.12
		c-0.187-0.053-0.308-0.2-0.36-0.439c-0.054-0.24-0.146-0.427-0.28-0.561c-0.08-0.187-0.18-0.32-0.3-0.399
		c-0.12-0.08-0.207-0.2-0.26-0.36c-0.054-0.16-0.08-0.333-0.08-0.521V26c0-0.666,0.086-1.32,0.26-1.96
		c0.173-0.64,0.38-1.3,0.62-1.98c0.24-0.68,0.5-1.399,0.78-2.159c0.279-0.761,0.526-1.58,0.74-2.46
		c0.025-0.054,0.046-0.106,0.06-0.16c0.013-0.054,0.06-0.08,0.14-0.08c0.054,0,0.101,0.014,0.141,0.04s0.086,0.054,0.14,0.08
		c0.106,0.054,0.173,0.094,0.2,0.12c0.266,0.64,0.346,1.286,0.24,1.939C46.492,20.034,46.412,20.52,46.359,20.84z M51.439,6.56
		c0.106,1.04,0.153,2.147,0.141,3.32c-0.015,1.174-0.067,2.34-0.16,3.5c-0.094,1.16-0.207,2.273-0.34,3.34
		c-0.135,1.067-0.254,2.014-0.361,2.84l-0.039-0.04l-0.32-0.239c-0.134-0.08-0.24-0.187-0.32-0.32l-0.24-0.4
		c-0.053-0.053-0.159-0.14-0.319-0.26s-0.254-0.272-0.28-0.46c0.053-2.08,0.1-4.093,0.141-6.04c0.039-1.946,0.033-3.92-0.021-5.92
		c0-0.187,0.013-0.38,0.04-0.58c0.026-0.2,0.094-0.353,0.2-0.46c0.053-0.053,0.106-0.06,0.159-0.02c0.054,0.04,0.107,0.06,0.16,0.06
		c0.107,0,0.24,0.054,0.4,0.16s0.293,0.214,0.4,0.32c0.08,0.08,0.166,0.134,0.26,0.159c0.094,0.027,0.166,0.08,0.22,0.16
		C51.293,5.92,51.386,6.214,51.439,6.56z"/>
	<path d="M67.719,21.84c-0.293-0.213-0.474-0.479-0.539-0.8c-0.067-0.32-0.141-0.64-0.221-0.96s-0.167-0.593-0.26-0.82
		c-0.094-0.226-0.127-0.54-0.1-0.939c0.053-0.88,0.346-1.847,0.88-2.9c0.533-1.053,1.173-2.093,1.92-3.12
		c0.746-1.026,1.513-1.986,2.3-2.88c0.786-0.893,1.46-1.606,2.02-2.14c0.24-0.214,0.486-0.307,0.74-0.28
		c0.253,0.027,0.5,0.066,0.74,0.12c0.133,0.054,0.26,0.073,0.38,0.06c0.12-0.013,0.193,0.047,0.22,0.181
		c-0.693,1.12-1.373,2.22-2.04,3.3c-0.666,1.08-1.319,2.153-1.96,3.22c1.2,0.507,2.214,1.307,3.04,2.4s1.547,2.359,2.16,3.8
		c0.054,0.134,0.134,0.174,0.24,0.12s0.187-0.014,0.24,0.12c0.053,0.106,0.066,0.293,0.04,0.56c-0.027,0.267-0.014,0.467,0.04,0.601
		c0.08,0.239,0.12,0.394,0.12,0.46s-0.015,0.113-0.04,0.14c-0.107,0-0.207-0.073-0.301-0.22s-0.206-0.273-0.34-0.38
		s-0.28-0.2-0.439-0.28c-0.16-0.08-0.294-0.187-0.4-0.32c-0.64-1.04-1.34-2.066-2.1-3.08c-0.761-1.013-1.754-1.906-2.98-2.68
		c-0.533,0.907-1.04,1.807-1.52,2.7c-0.48,0.894-0.935,1.807-1.36,2.739L67.719,21.84z M84.68,26.8
		c0.025,0.534,0.039,1.141,0.039,1.82s-0.007,1.394-0.02,2.14c-0.014,0.747-0.047,1.507-0.1,2.28c-0.054,0.773-0.12,1.506-0.2,2.2
		c-0.054,0.08-0.12,0.053-0.2-0.08c-0.08-0.134-0.146-0.214-0.2-0.24c-0.16-0.054-0.307-0.14-0.439-0.26
		c-0.134-0.12-0.214-0.26-0.24-0.42c-0.027-0.16-0.074-0.294-0.14-0.4c-0.067-0.106-0.101-0.227-0.101-0.359
		c-0.026-0.935-0.033-1.914-0.02-2.94c0.013-1.026,0.033-2.113,0.06-3.26c-0.454,0.08-1.02,0.214-1.7,0.399
		c-0.68,0.188-1.38,0.387-2.1,0.601s-1.4,0.439-2.04,0.68s-1.134,0.454-1.48,0.64c-0.08,0.054-0.153,0.014-0.22-0.119
		c-0.066-0.134-0.153-0.28-0.26-0.44c-0.107-0.133-0.227-0.267-0.36-0.4c-0.134-0.133-0.227-0.266-0.279-0.399
		c-0.055-0.134-0.047-0.307,0.02-0.521c0.066-0.213,0.246-0.439,0.54-0.68c0.426-0.32,0.92-0.64,1.479-0.96
		c0.561-0.32,1.146-0.6,1.761-0.84c0.613-0.24,1.239-0.413,1.88-0.521c0.64-0.106,1.266-0.106,1.88,0
		c0.16,0.054,0.347,0.101,0.56,0.141c0.214,0.04,0.4,0.1,0.561,0.18c0.187,0.08,0.333,0.22,0.439,0.42s0.227,0.367,0.36,0.5
		c0.133,0.134,0.246,0.254,0.34,0.36S84.652,26.587,84.68,26.8z M83.919,3.4c0.32,1.333,0.547,2.859,0.681,4.58
		c0.133,1.72,0.166,3.5,0.1,5.34s-0.214,3.653-0.44,5.439c-0.227,1.787-0.54,3.414-0.939,4.88c-0.08,0-0.2-0.105-0.36-0.319
		s-0.307-0.427-0.439-0.641c-0.268-0.373-0.494-0.713-0.681-1.02s-0.279-0.633-0.279-0.98c0.105-1.439,0.206-2.833,0.3-4.18
		c0.093-1.347,0.18-2.72,0.26-4.12c0.08-1.399,0.14-2.853,0.18-4.36c0.04-1.506,0.061-3.126,0.061-4.859
		c0.026-0.08,0.086-0.187,0.18-0.32c0.094-0.133,0.193-0.266,0.3-0.399c0.08-0.134,0.141-0.261,0.181-0.381
		c0.04-0.119,0.1-0.192,0.18-0.22c0.213-0.08,0.366,0.074,0.46,0.46C83.752,2.687,83.839,3.054,83.919,3.4z"/>
</g>
</svg>
