<?xml version="1.0" encoding="utf-8"?>
<!-- Generator: Adobe Illustrator 16.0.0, SVG Export Plug-In . SVG Version: 6.00 Build 0)  -->
<!DOCTYPE svg PUBLIC "-//W3C//DTD SVG 1.1//EN" "http://www.w3.org/Graphics/SVG/1.1/DTD/svg11.dtd">
<svg version="1.1" id="Layer_1" xmlns="http://www.w3.org/2000/svg" xmlns:xlink="http://www.w3.org/1999/xlink" x="0px" y="0px"
	 width="437px" height="138.256px" viewBox="0 -23.347 437 138.256" enable-background="new 0 -23.347 437 138.256"
	 xml:space="preserve">
<g>
	<g>
		<defs>
			<rect id="SVGID_1_" y="-23.347" width="437" height="138.257"/>
		</defs>
		<clipPath id="SVGID_2_">
			<use xlink:href="#SVGID_1_"  overflow="visible"/>
		</clipPath>
		<path clip-path="url(#SVGID_2_)" fill="#BEC6E5" d="M17.461,1.373v0.915c1.886,0.115,2.985,0.716,2.985,1.734
			c0,1.132-1.33,1.758-3.596,1.758c-2.256,0-3.599-0.625-3.599-1.758c0-1.029,1.122-1.631,3.019-1.734V1.373h-4.128v-0.95h9.451
			v0.95H17.461z M12.627-0.939c2.093-0.15,3.401-0.879,3.552-1.805H13.09v-0.938h3.18v-0.994h1.191v0.994h3.181v0.938h-3.088
			c0.15,0.926,1.457,1.654,3.55,1.805l-0.37,0.911c-1.815-0.15-3.215-0.75-3.875-1.675c-0.648,0.924-2.047,1.524-3.875,1.675
			L12.627-0.939z M16.85,3.154c-1.54,0-2.383,0.301-2.383,0.867s0.843,0.855,2.383,0.855c1.549,0,2.393-0.289,2.393-0.855
			S18.399,3.154,16.85,3.154"/>
	</g>
	<g>
		<defs>
			<rect id="SVGID_3_" y="-23.347" width="437" height="138.257"/>
		</defs>
		<clipPath id="SVGID_4_">
			<use xlink:href="#SVGID_3_"  overflow="visible"/>
		</clipPath>
		<path clip-path="url(#SVGID_4_)" fill="#BEC6E5" d="M27.771,1.258C26.58,0.92,25.7,0.193,25.227-0.722
			c-0.464,1.042-1.343,1.864-2.567,2.244l-0.579-0.926C23.688,0.1,24.59-1.137,24.59-2.445v-0.093h-2.197v-0.948h2.197v-1.237h1.204
			v1.237h2.186v0.948h-2.198v0.093c0,1.193,0.949,2.325,2.546,2.787L27.771,1.258z M30.802,3.823c0,1.226-1.34,1.956-3.529,1.956
			c-2.185,0-3.515-0.73-3.515-1.956c0-1.225,1.331-1.94,3.515-1.94C29.461,1.883,30.802,2.598,30.802,3.823 M29.61,3.823
			c0-0.659-0.844-1.019-2.337-1.019c-1.479,0-2.324,0.359-2.324,1.019s0.844,1.028,2.324,1.028
			C28.766,4.851,29.61,4.483,29.61,3.823 M29.564-1.787v-2.889h1.191v6.325h-1.191v-2.451h-1.885v-0.985H29.564z"/>
	</g>
	<g>
		<defs>
			<rect id="SVGID_5_" y="-23.347" width="437" height="138.257"/>
		</defs>
		<clipPath id="SVGID_6_">
			<use xlink:href="#SVGID_5_"  overflow="visible"/>
		</clipPath>
		<path clip-path="url(#SVGID_6_)" fill="#BEC6E5" d="M38.207,0.102c-1.748,0.345-3.319,0.451-4.848,0.451h-0.842v-4.71h1.191v3.725
			c1.363-0.022,2.81-0.127,4.349-0.439L38.207,0.102z M33.535,1.763h6.674v3.887h-6.674V1.763z M34.702,4.694h4.338V2.715h-4.338
			V4.694z M41.688-1.367h-1.479v2.601h-1.193v-5.898h1.193v2.312h1.479V-1.367z"/>
	</g>
	<g>
		<defs>
			<rect id="SVGID_7_" y="-23.347" width="437" height="138.257"/>
		</defs>
		<clipPath id="SVGID_8_">
			<use xlink:href="#SVGID_7_"  overflow="visible"/>
		</clipPath>
		<polygon clip-path="url(#SVGID_8_)" fill="#BEC6E5" points="51.467,3.547 51.467,4.53 42.005,4.53 42.005,3.547 46.124,3.547 
			46.124,1.084 43.163,1.084 43.163,-3.88 50.311,-3.88 50.311,-2.92 44.354,-2.92 44.354,0.121 50.404,0.121 50.404,1.084 
			47.315,1.084 47.315,3.547 		"/>
	</g>
	<g>
		<defs>
			<rect id="SVGID_9_" y="-23.347" width="437" height="138.257"/>
		</defs>
		<clipPath id="SVGID_10_">
			<use xlink:href="#SVGID_9_"  overflow="visible"/>
		</clipPath>
		<path clip-path="url(#SVGID_10_)" fill="#BEC6E5" d="M61.396,3.43v0.983h-9.439V3.43h2.176V0.054h1.179V3.43h1.4V0.054h1.179V3.43
			H61.396z M59.221-2.72h-6.327v-0.975h7.518v1.102c0,1.305,0,2.707-0.37,4.73l-1.191-0.139c0.37-1.91,0.37-3.321,0.37-4.592V-2.72z
			"/>
	</g>
	<g>
		<defs>
			<rect id="SVGID_11_" y="-23.347" width="437" height="138.257"/>
		</defs>
		<clipPath id="SVGID_12_">
			<use xlink:href="#SVGID_11_"  overflow="visible"/>
		</clipPath>
		<path clip-path="url(#SVGID_12_)" fill="#BEC6E5" d="M68.963,1.257v1.144h1.225v3.378h-1.191V3.35h-6.048v-0.95h1.318V1.257
			h-2.383v-0.96h9.463v0.96H68.963z M62.902-2.406c0-1.262,1.445-2.027,3.724-2.027c2.268,0,3.725,0.765,3.725,2.027
			c0,1.259-1.457,2.023-3.725,2.023C64.348-0.384,62.902-1.147,62.902-2.406 M64.129-2.406c0,0.693,0.936,1.084,2.497,1.084
			c1.549,0,2.487-0.391,2.487-1.084c0-0.709-0.938-1.102-2.487-1.102C65.064-3.508,64.129-3.117,64.129-2.406 M67.771,1.257h-2.313
			v1.144h2.313V1.257z"/>
	</g>
	<g>
		<defs>
			<rect id="SVGID_13_" y="-23.347" width="437" height="138.257"/>
		</defs>
		<clipPath id="SVGID_14_">
			<use xlink:href="#SVGID_13_"  overflow="visible"/>
		</clipPath>
		<path clip-path="url(#SVGID_14_)" fill="#BEC6E5" d="M77.524,1.258c-1.19-0.338-2.071-1.065-2.543-1.98
			c-0.464,1.042-1.343,1.864-2.567,2.244l-0.58-0.926c1.608-0.496,2.51-1.733,2.51-3.041v-0.093h-2.197v-0.948h2.197v-1.237h1.204
			v1.237h2.186v0.948h-2.198v0.093c0,1.193,0.95,2.325,2.546,2.787L77.524,1.258z M80.556,3.823c0,1.226-1.341,1.956-3.529,1.956
			c-2.186,0-3.516-0.73-3.516-1.956c0-1.225,1.33-1.94,3.516-1.94C79.214,1.883,80.556,2.598,80.556,3.823 M79.364,3.823
			c0-0.659-0.844-1.019-2.337-1.019c-1.48,0-2.324,0.359-2.324,1.019s0.844,1.028,2.324,1.028
			C78.52,4.851,79.364,4.483,79.364,3.823 M79.317-1.787v-2.889h1.191v6.325h-1.191v-2.451h-1.885v-0.985H79.317z"/>
	</g>
	<g>
		<defs>
			<rect id="SVGID_15_" y="-23.347" width="437" height="138.257"/>
		</defs>
		<clipPath id="SVGID_16_">
			<use xlink:href="#SVGID_15_"  overflow="visible"/>
		</clipPath>
		<path clip-path="url(#SVGID_16_)" fill="#BEC6E5" d="M20.904,19.665c-1.734-0.545-2.922-1.666-3.636-3.058
			c-0.694,1.528-1.951,2.753-3.769,3.344l-1.138-1.749c2.549-0.814,3.704-2.8,3.737-4.736h-3.143v-1.767h8.508v1.767h-3.091
			c0.033,1.834,1.189,3.668,3.668,4.482L20.904,19.665z M14.636,20.886h10.649v5.536h-2.259V22.67h-8.39V20.886z M25.285,20.19
			h-2.259v-9.426h2.259V20.19z"/>
	</g>
	<g>
		<defs>
			<rect id="SVGID_17_" y="-23.347" width="437" height="138.257"/>
		</defs>
		<clipPath id="SVGID_18_">
			<use xlink:href="#SVGID_17_"  overflow="visible"/>
		</clipPath>
		<path clip-path="url(#SVGID_18_)" fill="#BEC6E5" d="M41.033,18.338v1.786H26.888v-1.786h5.926v-2.019h2.241v2.021h5.978V18.338z
			 M39.436,17.22c-2.632-0.372-4.533-1.461-5.518-3.02c-0.984,1.543-2.887,2.648-5.501,3.02l-0.833-1.75
			c3.516-0.425,5.196-2.205,5.196-3.971V11.04h2.294v0.458c0,1.815,1.647,3.546,5.178,3.971L39.436,17.22z M28.451,21.227h10.868
			v5.196h-2.241v-3.43h-8.627V21.227z"/>
	</g>
	<g>
		<defs>
			<rect id="SVGID_19_" y="-23.347" width="437" height="138.257"/>
		</defs>
		<clipPath id="SVGID_20_">
			<use xlink:href="#SVGID_19_"  overflow="visible"/>
		</clipPath>
		<path clip-path="url(#SVGID_20_)" fill="#BEC6E5" d="M49.855,12.381c0,4.79-1.615,8.693-7.167,11.376l-1.172-1.766
			c3.991-1.917,5.723-4.362,6.046-7.827h-5.214v-1.783H49.855z M54.508,26.389H52.25V10.753h2.259V26.389z"/>
	</g>
	<g>
		<defs>
			<rect id="SVGID_21_" y="-23.347" width="437" height="138.257"/>
		</defs>
		<clipPath id="SVGID_22_">
			<use xlink:href="#SVGID_21_"  overflow="visible"/>
		</clipPath>
		<path clip-path="url(#SVGID_22_)" fill="#BEC6E5" d="M65.603,19.699c-3.226,0.594-6.859,0.662-9.542,0.678l-0.204-1.783
			c0.866,0,1.833,0,2.852-0.018v-3.039H60.9v2.955c1.546-0.068,3.108-0.186,4.568-0.39L65.603,19.699z M62.241,17.219
			c0.255-1.461,0.323-2.6,0.341-3.531h-5.826v-1.783h8.034v0.966c0,1.089,0,2.633-0.358,4.605L62.241,17.219z M60.373,24.352h8.676
			v1.78H58.131v-4.704h2.242V24.352z M70.427,15.523v1.849h-1.869v5.096h-2.242V10.751h2.242v4.771H70.427z"/>
	</g>
	<g>
		<defs>
			<rect id="SVGID_23_" y="-23.347" width="437" height="138.257"/>
		</defs>
		<clipPath id="SVGID_24_">
			<use xlink:href="#SVGID_23_"  overflow="visible"/>
		</clipPath>
		<path clip-path="url(#SVGID_24_)" fill="#BEC6E5" d="M17.461,69.66v0.914c1.886,0.117,2.985,0.717,2.985,1.736
			c0,1.133-1.33,1.758-3.596,1.758c-2.256,0-3.599-0.625-3.599-1.758c0-1.029,1.122-1.631,3.019-1.736V69.66h-4.128v-0.947h9.451
			v0.947H17.461z M12.627,67.348c2.093-0.15,3.401-0.879,3.552-1.805H13.09V64.61h3.18v-0.998h1.191v0.998h3.181v0.934h-3.088
			c0.15,0.926,1.457,1.654,3.55,1.805l-0.37,0.914c-1.815-0.152-3.215-0.752-3.875-1.68c-0.648,0.928-2.047,1.529-3.875,1.68
			L12.627,67.348z M16.85,71.44c-1.54,0-2.383,0.301-2.383,0.871c0,0.566,0.843,0.855,2.383,0.855c1.549,0,2.393-0.289,2.393-0.855
			C19.243,71.742,18.399,71.44,16.85,71.44"/>
	</g>
	<g>
		<defs>
			<rect id="SVGID_25_" y="-23.347" width="437" height="138.257"/>
		</defs>
		<clipPath id="SVGID_26_">
			<use xlink:href="#SVGID_25_"  overflow="visible"/>
		</clipPath>
		<path clip-path="url(#SVGID_26_)" fill="#BEC6E5" d="M27.771,69.545c-1.191-0.332-2.072-1.064-2.544-1.975
			c-0.464,1.039-1.343,1.859-2.567,2.238l-0.579-0.922c1.608-0.498,2.509-1.736,2.509-3.045v-0.09h-2.197v-0.951h2.197v-1.234h1.204
			v1.234h2.186v0.951h-2.198v0.09c0,1.191,0.949,2.328,2.546,2.789L27.771,69.545z M30.802,72.114c0,1.229-1.34,1.955-3.529,1.955
			c-2.185,0-3.515-0.727-3.515-1.955c0-1.227,1.331-1.943,3.515-1.943C29.461,70.17,30.802,70.887,30.802,72.114 M29.61,72.114
			c0-0.66-0.844-1.018-2.337-1.018c-1.479,0-2.324,0.357-2.324,1.018s0.844,1.029,2.324,1.029
			C28.766,73.141,29.61,72.772,29.61,72.114 M29.564,66.504v-2.893h1.191v6.33h-1.191v-2.455h-1.885v-0.982H29.564L29.564,66.504z"
			/>
	</g>
	<g>
		<defs>
			<rect id="SVGID_27_" y="-23.347" width="437" height="138.257"/>
		</defs>
		<clipPath id="SVGID_28_">
			<use xlink:href="#SVGID_27_"  overflow="visible"/>
		</clipPath>
		<path clip-path="url(#SVGID_28_)" fill="#BEC6E5" d="M38.207,68.389c-1.748,0.348-3.319,0.451-4.848,0.451h-0.842v-4.707h1.191
			v3.727c1.363-0.025,2.81-0.127,4.349-0.439L38.207,68.389z M33.535,70.055h6.674v3.887h-6.674V70.055z M34.702,72.981h4.338V71
			h-4.338V72.981z M41.688,66.92h-1.479v2.602h-1.193v-5.898h1.193v2.316h1.479V66.92z"/>
	</g>
	<g>
		<defs>
			<rect id="SVGID_29_" y="-23.347" width="437" height="138.257"/>
		</defs>
		<clipPath id="SVGID_30_">
			<use xlink:href="#SVGID_29_"  overflow="visible"/>
		</clipPath>
		<polygon clip-path="url(#SVGID_30_)" fill="#BEC6E5" points="51.467,71.836 51.467,72.819 42.005,72.819 42.005,71.836 
			46.124,71.836 46.124,69.369 43.163,69.369 43.163,64.41 50.311,64.41 50.311,65.369 44.354,65.369 44.354,68.412 50.404,68.412 
			50.404,69.369 47.315,69.369 47.315,71.836 		"/>
	</g>
	<g>
		<defs>
			<rect id="SVGID_31_" y="-23.347" width="437" height="138.257"/>
		</defs>
		<clipPath id="SVGID_32_">
			<use xlink:href="#SVGID_31_"  overflow="visible"/>
		</clipPath>
		<path clip-path="url(#SVGID_32_)" fill="#BEC6E5" d="M61.396,71.723v0.98h-9.439v-0.98h2.176v-3.381h1.179v3.381h1.4v-3.381h1.179
			v3.381H61.396z M59.221,65.567h-6.327v-0.971h7.518v1.098c0,1.307,0,2.707-0.37,4.73l-1.191-0.139
			c0.37-1.908,0.37-3.318,0.37-4.592V65.567z"/>
	</g>
	<g>
		<defs>
			<rect id="SVGID_33_" y="-23.347" width="437" height="138.257"/>
		</defs>
		<clipPath id="SVGID_34_">
			<use xlink:href="#SVGID_33_"  overflow="visible"/>
		</clipPath>
		<path clip-path="url(#SVGID_34_)" fill="#BEC6E5" d="M68.963,69.545v1.148h1.225v3.375h-1.191v-2.428h-6.048v-0.947h1.318v-1.148
			h-2.383v-0.959h9.463v0.959H68.963z M62.902,65.879c0-1.258,1.445-2.023,3.724-2.023c2.268,0,3.725,0.766,3.725,2.023
			c0,1.264-1.457,2.023-3.725,2.023C64.348,67.903,62.902,67.143,62.902,65.879 M64.129,65.879c0,0.693,0.936,1.088,2.497,1.088
			c1.549,0,2.487-0.395,2.487-1.088c0-0.705-0.938-1.102-2.487-1.102C65.064,64.778,64.129,65.174,64.129,65.879 M67.771,69.545
			h-2.313v1.148h2.313V69.545z"/>
	</g>
	<g>
		<defs>
			<rect id="SVGID_35_" y="-23.347" width="437" height="138.257"/>
		</defs>
		<clipPath id="SVGID_36_">
			<use xlink:href="#SVGID_35_"  overflow="visible"/>
		</clipPath>
		<path clip-path="url(#SVGID_36_)" fill="#BEC6E5" d="M77.524,69.545c-1.19-0.332-2.071-1.064-2.543-1.975
			c-0.464,1.039-1.343,1.859-2.567,2.238l-0.58-0.922c1.608-0.498,2.51-1.736,2.51-3.045v-0.09h-2.197v-0.951h2.197v-1.234h1.204
			v1.234h2.186v0.951h-2.198v0.09c0,1.191,0.95,2.328,2.546,2.789L77.524,69.545z M80.556,72.114c0,1.229-1.341,1.955-3.529,1.955
			c-2.186,0-3.516-0.727-3.516-1.955c0-1.227,1.33-1.943,3.516-1.943C79.214,70.17,80.556,70.887,80.556,72.114 M79.364,72.114
			c0-0.66-0.844-1.018-2.337-1.018c-1.48,0-2.324,0.357-2.324,1.018s0.844,1.029,2.324,1.029
			C78.52,73.141,79.364,72.772,79.364,72.114 M79.317,66.504v-2.893h1.191v6.33h-1.191v-2.455h-1.885v-0.982H79.317L79.317,66.504z"
			/>
	</g>
	<g>
		<defs>
			<rect id="SVGID_37_" y="-23.347" width="437" height="138.257"/>
		</defs>
		<clipPath id="SVGID_38_">
			<use xlink:href="#SVGID_37_"  overflow="visible"/>
		</clipPath>
		<path clip-path="url(#SVGID_38_)" fill="#BEC6E5" d="M18.339,83.266c0,2.551,1.258,5.248,3.871,6.336l-1.223,1.764
			c-1.816-0.779-3.056-2.311-3.752-4.193c-0.696,2.039-1.952,3.754-3.788,4.586l-1.272-1.785c2.615-1.17,3.89-4.041,3.89-6.707
			v-0.865h-3.262v-1.85h8.763v1.85h-3.227V83.266z M25.251,94.696H23.01V79.055h2.241V94.696z"/>
	</g>
	<g>
		<defs>
			<rect id="SVGID_39_" y="-23.347" width="437" height="138.257"/>
		</defs>
		<clipPath id="SVGID_40_">
			<use xlink:href="#SVGID_39_"  overflow="visible"/>
		</clipPath>
		<path clip-path="url(#SVGID_40_)" fill="#BEC6E5" d="M39.961,79.055v9.254h-2.24V86.34h-3.396
			c-0.748,0.799-1.868,1.291-3.124,1.291c-2.311,0-4.11-1.631-4.11-3.891c0-2.24,1.8-3.871,4.11-3.871
			c1.272,0,2.395,0.492,3.142,1.291h3.378v-2.107h2.24V79.055z M33.205,83.742c0-1.223-0.85-1.951-2.004-1.951
			c-1.137,0-1.987,0.729-1.987,1.951c0,1.238,0.85,1.971,1.987,1.971C32.354,85.713,33.205,84.981,33.205,83.742 M29.317,89.026
			h10.645v5.688h-2.24v-3.922h-8.405V89.026z M37.721,84.559v-1.613h-2.479c0.051,0.254,0.084,0.508,0.084,0.797
			c0,0.271-0.033,0.543-0.084,0.816H37.721z"/>
	</g>
	<g>
		<defs>
			<rect id="SVGID_41_" y="-23.347" width="437" height="138.257"/>
		</defs>
		<clipPath id="SVGID_42_">
			<use xlink:href="#SVGID_41_"  overflow="visible"/>
		</clipPath>
		<polygon clip-path="url(#SVGID_42_)" fill="#BEC6E5" points="55.646,91.096 55.646,92.93 41.483,92.93 41.483,91.096 
			47.428,91.096 47.428,87.836 43.129,87.836 43.129,80.125 54.015,80.125 54.015,81.926 45.39,81.926 45.39,86.033 54.134,86.033 
			54.134,87.836 49.669,87.836 49.669,91.096 		"/>
	</g>
	<g>
		<defs>
			<rect id="SVGID_43_" y="-23.347" width="437" height="138.257"/>
		</defs>
		<clipPath id="SVGID_44_">
			<use xlink:href="#SVGID_43_"  overflow="visible"/>
		</clipPath>
		<path clip-path="url(#SVGID_44_)" fill="#BEC6E5" d="M61.952,82.52c0,2.953,1.138,5.822,3.72,6.979l-1.327,1.785
			c-1.715-0.836-2.85-2.361-3.497-4.248c-0.679,2.006-1.852,3.633-3.6,4.518l-1.394-1.801c2.65-1.221,3.838-4.26,3.838-7.232v-2.258
			h2.258V82.52L61.952,82.52z M69.204,79.039v15.691h-2.241v-8.982h-3.008v-1.803h3.008v-4.906H69.204z"/>
	</g>
	<g>
		<defs>
			<rect id="SVGID_45_" y="-23.347" width="437" height="138.257"/>
		</defs>
		<clipPath id="SVGID_46_">
			<use xlink:href="#SVGID_45_"  overflow="visible"/>
		</clipPath>
		<path clip-path="url(#SVGID_46_)" fill="#BEC6E5" d="M80.199,87.989c-3.227,0.594-6.86,0.662-9.543,0.678l-0.203-1.783
			c0.866,0,1.833,0,2.852-0.016v-3.043h2.191v2.955c1.546-0.066,3.107-0.188,4.567-0.391L80.199,87.989z M76.836,85.51
			c0.255-1.461,0.323-2.6,0.341-3.533h-5.825v-1.781h8.033v0.967c0,1.086,0,2.631-0.358,4.602L76.836,85.51z M74.968,92.639h8.676
			v1.785H72.726v-4.703h2.242V92.639z M85.022,83.811v1.852h-1.868v5.094h-2.242V79.039h2.242v4.771H85.022z"/>
	</g>
	<g>
		<defs>
			<rect id="SVGID_47_" y="-23.347" width="437" height="138.257"/>
		</defs>
		<clipPath id="SVGID_48_">
			<use xlink:href="#SVGID_47_"  overflow="visible"/>
		</clipPath>
		<path clip-path="url(#SVGID_48_)" fill="#BEC6E5" d="M128.72-3.531h-7.933V-4.75h3.199v-1.386h1.534v1.386h3.2V-3.531z
			 M124.746,1.948c-1.934,0-3.26-0.982-3.26-2.442c0-1.475,1.326-2.457,3.26-2.457c1.935,0,3.259,0.982,3.259,2.457
			C128.004,0.966,126.68,1.948,124.746,1.948 M122.424,3.004h8.841V7.38h-1.533V4.24h-7.308V3.004L122.424,3.004z M124.746,0.771
			c1.073,0,1.8-0.475,1.8-1.265c0-0.802-0.728-1.28-1.8-1.28c-1.072,0-1.786,0.478-1.786,1.28
			C122.96,0.297,123.674,0.771,124.746,0.771 M133.17-1.193h-1.905v3.542h-1.533v-8.408h1.533v3.601h1.905V-1.193z"/>
	</g>
	<g>
		<defs>
			<rect id="SVGID_49_" y="-23.347" width="437" height="138.257"/>
		</defs>
		<clipPath id="SVGID_50_">
			<use xlink:href="#SVGID_49_"  overflow="visible"/>
		</clipPath>
		<path clip-path="url(#SVGID_50_)" fill="#BEC6E5" d="M139.642,1.249c-1.19-0.463-2.024-1.357-2.53-2.427
			c-0.491,1.235-1.368,2.276-2.665,2.843l-0.804-1.177c1.803-0.817,2.708-2.501,2.708-4.036v-1.694h1.491v1.694
			c0,1.491,0.877,2.965,2.618,3.648L139.642,1.249z M145.166,4.924c0,1.532-1.756,2.457-4.554,2.457s-4.554-0.924-4.554-2.457
			c0-1.55,1.756-2.471,4.554-2.471S145.166,3.374,145.166,4.924 M143.633,4.924c0-0.834-1.132-1.294-3.021-1.294
			c-1.891,0-3.021,0.46-3.021,1.294c0,0.82,1.131,1.28,3.021,1.28C142.5,6.204,143.633,5.743,143.633,4.924 M142.218,1.768h-1.443
			v-7.577h1.443v3.2h1.415v-3.436h1.457v8.246h-1.457v-3.56h-1.415V1.768z"/>
	</g>
	<g>
		<defs>
			<rect id="SVGID_51_" y="-23.347" width="437" height="138.257"/>
		</defs>
		<clipPath id="SVGID_52_">
			<use xlink:href="#SVGID_51_"  overflow="visible"/>
		</clipPath>
		<path clip-path="url(#SVGID_52_)" fill="#BEC6E5" d="M158.813,4.358v1.265h-12.145V4.358h2.796V0.013h1.52v4.344h1.8V0.013h1.52
			v4.344H158.813z M156.014-3.561h-8.143v-1.25h9.676v1.416c0,1.682,0,3.483-0.477,6.088l-1.531-0.178
			c0.475-2.457,0.475-4.273,0.475-5.91V-3.561z"/>
	</g>
	<g>
		<defs>
			<rect id="SVGID_53_" y="-23.347" width="437" height="138.257"/>
		</defs>
		<clipPath id="SVGID_54_">
			<use xlink:href="#SVGID_53_"  overflow="visible"/>
		</clipPath>
		<path clip-path="url(#SVGID_54_)" fill="#BEC6E5" d="M168.693,1.563v1.47h1.578V7.38h-1.534V4.254h-7.783V3.033h1.696v-1.47
			h-3.066V0.326h12.175v1.237H168.693z M160.895-3.156c0-1.624,1.86-2.608,4.793-2.608c2.916,0,4.791,0.985,4.791,2.608
			c0,1.621-1.875,2.603-4.791,2.603C162.755-0.553,160.895-1.536,160.895-3.156 M162.473-3.156c0,0.889,1.203,1.396,3.215,1.396
			c1.994,0,3.199-0.507,3.199-1.396c0-0.91-1.205-1.417-3.199-1.417C163.676-4.573,162.473-4.065,162.473-3.156 M167.16,1.563
			h-2.977v1.472h2.977V1.563z"/>
	</g>
	<g>
		<defs>
			<rect id="SVGID_55_" y="-23.347" width="437" height="138.257"/>
		</defs>
		<clipPath id="SVGID_56_">
			<use xlink:href="#SVGID_55_"  overflow="visible"/>
		</clipPath>
		<path clip-path="url(#SVGID_56_)" fill="#BEC6E5" d="M184.737,0.712v1.236h-5.21v2.516h-1.533V1.948h-5.447V0.712H184.737z
			 M175.568,5.876h7.814v1.25h-9.348V3.242h1.533V5.876z M183.16-0.612h-9.065v-4.854h9.065V-0.612z M181.656-4.247h-6.058v2.414
			h6.058V-4.247z"/>
	</g>
	<g>
		<defs>
			<rect id="SVGID_57_" y="-23.347" width="437" height="138.257"/>
		</defs>
		<clipPath id="SVGID_58_">
			<use xlink:href="#SVGID_57_"  overflow="visible"/>
		</clipPath>
		<path clip-path="url(#SVGID_58_)" fill="#BEC6E5" d="M190.359,3.599c1.148-0.059,2.295-0.133,3.366-0.299l0.118,1.133
			c-2.872,0.504-5.982,0.535-8.289,0.535l-0.209-1.265c1.027,0,2.233,0,3.483-0.044v-1.31c-1.491-0.253-2.456-1.162-2.456-2.443
			c0-1.514,1.309-2.516,3.229-2.516c1.906,0,3.215,1.001,3.215,2.516c0,1.282-0.966,2.203-2.457,2.443V3.599z M193.576-3.278h-7.994
			v-1.235h3.247V-6.03h1.53v1.516h3.217V-3.278z M189.602,1.23c1.058,0,1.771-0.504,1.771-1.324c0-0.83-0.714-1.337-1.771-1.337
			c-1.057,0-1.786,0.507-1.786,1.337C187.815,0.725,188.545,1.23,189.602,1.23 M197.938,0.816h-1.92V7.38h-1.534V-6.077h1.534v5.627
			h1.92V0.816z"/>
	</g>
	<g>
		<defs>
			<rect id="SVGID_59_" y="-23.347" width="437" height="138.257"/>
		</defs>
		<clipPath id="SVGID_60_">
			<use xlink:href="#SVGID_59_"  overflow="visible"/>
		</clipPath>
		<path clip-path="url(#SVGID_60_)" fill="#BEC6E5" d="M202.133,1.217c-1.281,0.062-2.502,0.075-3.557,0.075l-0.195-1.249
			c2.471-0.015,5.775-0.044,8.619-0.404l0.117,1.103c-1.131,0.194-2.305,0.327-3.451,0.386v2.589h-1.533V1.217L202.133,1.217z
			 M199.408-3.186c0-1.432,1.354-2.368,3.334-2.368c1.964,0,3.32,0.936,3.32,2.368c0,1.427-1.356,2.365-3.32,2.365
			C200.762-0.821,199.408-1.759,199.408-3.186 M209.902,5.876v1.25h-9.705V3.154h1.533v2.722H209.902z M200.866-3.186
			c0,0.758,0.759,1.232,1.876,1.232c1.102,0,1.861-0.475,1.861-1.232c0-0.761-0.76-1.236-1.861-1.236
			C201.625-4.422,200.866-3.948,200.866-3.186 M208.056,1.827v-7.904h1.534V4.151h-1.534v-1.25h-2.634V1.827H208.056z"/>
	</g>
	<g>
		<defs>
			<rect id="SVGID_61_" y="-23.347" width="437" height="138.257"/>
		</defs>
		<clipPath id="SVGID_62_">
			<use xlink:href="#SVGID_61_"  overflow="visible"/>
		</clipPath>
		<path clip-path="url(#SVGID_62_)" fill="#BEC6E5" d="M218.088-0.494c0.597,0,1.072,0.478,1.072,1.07
			c0,0.597-0.476,1.074-1.072,1.074c-0.598,0-1.072-0.477-1.072-1.074C217.016-0.016,217.49-0.494,218.088-0.494"/>
	</g>
	<g>
		<defs>
			<rect id="SVGID_63_" y="-23.347" width="437" height="138.257"/>
		</defs>
		<clipPath id="SVGID_64_">
			<use xlink:href="#SVGID_63_"  overflow="visible"/>
		</clipPath>
		<path clip-path="url(#SVGID_64_)" fill="#BEC6E5" d="M233.385,1.069c-2.531,0.431-5.505,0.473-7.665,0.473l-0.177-1.265h1.579
			v-4.136h-1.223v-1.247h7.084v1.247h-1.206v3.945c0.521-0.013,1.029-0.072,1.519-0.134L233.385,1.069z M236.732,4.924
			c0,1.548-1.727,2.455-4.539,2.455s-4.524-0.907-4.524-2.455c0-1.578,1.712-2.486,4.524-2.486S236.732,3.346,236.732,4.924
			 M228.592,0.249c0.566-0.015,1.133-0.031,1.714-0.059v-4.049h-1.714V0.249z M235.201,4.924c0-0.849-1.087-1.294-3.006-1.294
			c-1.92,0-2.991,0.445-2.991,1.294c0,0.818,1.071,1.278,2.991,1.278C234.114,6.202,235.201,5.742,235.201,4.924 M235.143-0.078
			h-1.949v-1.236h1.949v-1.218h-1.949v-1.235h1.949v-2.292h1.533v8.26h-1.533V-0.078z"/>
	</g>
	<g>
		<defs>
			<rect id="SVGID_65_" y="-23.347" width="437" height="138.257"/>
		</defs>
		<clipPath id="SVGID_66_">
			<use xlink:href="#SVGID_65_"  overflow="visible"/>
		</clipPath>
		<path clip-path="url(#SVGID_66_)" fill="#BEC6E5" d="M244.412,1.249c-1.189-0.463-2.023-1.357-2.531-2.427
			c-0.489,1.235-1.367,2.276-2.664,2.843l-0.805-1.177c1.803-0.817,2.711-2.501,2.711-4.036v-1.694h1.488v1.694
			c0,1.491,0.877,2.965,2.618,3.648L244.412,1.249z M249.936,4.924c0,1.532-1.758,2.457-4.557,2.457s-4.557-0.924-4.557-2.457
			c0-1.55,1.758-2.471,4.557-2.471S249.936,3.374,249.936,4.924 M248.401,4.924c0-0.834-1.132-1.294-3.021-1.294
			s-3.021,0.46-3.021,1.294c0,0.82,1.131,1.28,3.021,1.28S248.401,5.743,248.401,4.924 M246.986,1.768h-1.442v-7.577h1.442v3.2
			h1.415v-3.436h1.46v8.246h-1.46v-3.56h-1.415V1.768z"/>
	</g>
	<g>
		<defs>
			<rect id="SVGID_67_" y="-23.347" width="437" height="138.257"/>
		</defs>
		<clipPath id="SVGID_68_">
			<use xlink:href="#SVGID_67_"  overflow="visible"/>
		</clipPath>
		<path clip-path="url(#SVGID_68_)" fill="#BEC6E5" d="M263.581,4.358v1.265h-12.146V4.358h2.799V0.013h1.52v4.344h1.799V0.013
			h1.521v4.344H263.581z M260.783-3.561h-8.144v-1.25h9.676v1.416c0,1.682,0,3.483-0.478,6.088l-1.531-0.178
			c0.476-2.457,0.476-4.273,0.476-5.91L260.783-3.561L260.783-3.561z"/>
	</g>
	<g>
		<defs>
			<rect id="SVGID_69_" y="-23.347" width="437" height="138.257"/>
		</defs>
		<clipPath id="SVGID_70_">
			<use xlink:href="#SVGID_69_"  overflow="visible"/>
		</clipPath>
		<path clip-path="url(#SVGID_70_)" fill="#BEC6E5" d="M273.461,1.563v1.47h1.58V7.38h-1.535V4.254h-7.784V3.033h1.698v-1.47h-3.066
			V0.326h12.178v1.237H273.461z M265.663-3.156c0-1.624,1.859-2.608,4.792-2.608c2.917,0,4.793,0.985,4.793,2.608
			c0,1.621-1.876,2.603-4.793,2.603C267.523-0.553,265.663-1.536,265.663-3.156 M267.24-3.156c0,0.889,1.205,1.396,3.215,1.396
			c1.994,0,3.2-0.507,3.2-1.396c0-0.91-1.206-1.417-3.2-1.417C268.445-4.573,267.24-4.065,267.24-3.156 M271.928,1.563h-2.975v1.472
			h2.975V1.563z"/>
	</g>
	<g>
		<defs>
			<rect id="SVGID_71_" y="-23.347" width="437" height="138.257"/>
		</defs>
		<clipPath id="SVGID_72_">
			<use xlink:href="#SVGID_71_"  overflow="visible"/>
		</clipPath>
		<path clip-path="url(#SVGID_72_)" fill="#BEC6E5" d="M281.008,1.217c-1.281,0.062-2.502,0.075-3.556,0.075l-0.194-1.249
			c2.47-0.015,5.775-0.044,8.619-0.404l0.117,1.103c-1.133,0.194-2.307,0.327-3.451,0.386v2.589h-1.535V1.217L281.008,1.217z
			 M278.283-3.186c0-1.432,1.354-2.368,3.334-2.368c1.965,0,3.32,0.936,3.32,2.368c0,1.427-1.355,2.365-3.32,2.365
			C279.637-0.821,278.283-1.759,278.283-3.186 M288.777,5.876v1.25h-9.705V3.154h1.533v2.722H288.777z M279.742-3.186
			c0,0.758,0.761,1.232,1.875,1.232c1.101,0,1.861-0.475,1.861-1.232c0-0.761-0.761-1.236-1.861-1.236
			C280.503-4.422,279.742-3.948,279.742-3.186 M286.93,1.827v-7.904h1.535V4.151h-1.535v-1.25h-2.634V1.827H286.93z"/>
	</g>
	<g>
		<defs>
			<rect id="SVGID_73_" y="-23.347" width="437" height="138.257"/>
		</defs>
		<clipPath id="SVGID_74_">
			<use xlink:href="#SVGID_73_"  overflow="visible"/>
		</clipPath>
		<path clip-path="url(#SVGID_74_)" fill="#BEC6E5" d="M128.691,22.394c-2.249,0.445-4.271,0.581-6.237,0.581h-1.084v-6.058h1.531
			v4.792c1.756-0.031,3.618-0.167,5.596-0.566L128.691,22.394z M122.678,24.539h8.587v4.998h-8.587V24.539z M124.179,28.302h5.582
			v-2.547h-5.582V28.302z M133.17,20.504h-1.905v3.347h-1.533v-7.59h1.533v2.978h1.905V20.504z"/>
	</g>
	<g>
		<defs>
			<rect id="SVGID_75_" y="-23.347" width="437" height="138.257"/>
		</defs>
		<clipPath id="SVGID_76_">
			<use xlink:href="#SVGID_75_"  overflow="visible"/>
		</clipPath>
		<path clip-path="url(#SVGID_76_)" fill="#BEC6E5" d="M145.893,25.354h-5.372v4.361h-1.533v-4.361h-5.283v-1.236h12.188V25.354z
			 M144.391,22.663h-9.214v-5.879h1.534v1.698h6.146v-1.698h1.534V22.663z M142.856,19.714h-6.146v1.713h6.146V19.714z"/>
	</g>
	<g>
		<defs>
			<rect id="SVGID_77_" y="-23.347" width="437" height="138.257"/>
		</defs>
		<clipPath id="SVGID_78_">
			<use xlink:href="#SVGID_77_"  overflow="visible"/>
		</clipPath>
		<path clip-path="url(#SVGID_78_)" fill="#BEC6E5" d="M154.511,23.391c-2.531,0.429-5.509,0.474-7.665,0.474l-0.178-1.266h1.578
			v-4.138h-1.222v-1.248h7.085v1.248h-1.207v3.946c0.521-0.014,1.028-0.072,1.52-0.134L154.511,23.391z M157.859,27.246
			c0,1.548-1.728,2.455-4.539,2.455c-2.813,0-4.525-0.907-4.525-2.455c0-1.578,1.713-2.487,4.525-2.487
			C156.132,24.759,157.859,25.668,157.859,27.246 M149.718,22.572c0.565-0.016,1.131-0.031,1.712-0.059v-4.051h-1.712V22.572z
			 M156.326,27.246c0-0.851-1.086-1.296-3.006-1.296s-2.992,0.445-2.992,1.296c0,0.818,1.072,1.278,2.992,1.278
			C155.24,28.526,156.326,28.064,156.326,27.246 M156.266,22.242h-1.948v-1.234h1.948v-1.22h-1.948v-1.234h1.948v-2.293h1.535v8.263
			h-1.535V22.242z"/>
	</g>
	<g>
		<defs>
			<rect id="SVGID_79_" y="-23.347" width="437" height="138.257"/>
		</defs>
		<clipPath id="SVGID_80_">
			<use xlink:href="#SVGID_79_"  overflow="visible"/>
		</clipPath>
		<path clip-path="url(#SVGID_80_)" fill="#BEC6E5" d="M165.537,23.57c-1.189-0.462-2.023-1.355-2.529-2.426
			c-0.492,1.236-1.369,2.277-2.666,2.843l-0.803-1.178c1.803-0.817,2.709-2.5,2.709-4.035v-1.695h1.49v1.695
			c0,1.491,0.877,2.964,2.617,3.648L165.537,23.57z M171.061,27.246c0,1.532-1.757,2.457-4.555,2.457
			c-2.799,0-4.556-0.925-4.556-2.457c0-1.55,1.757-2.472,4.556-2.472C169.304,24.774,171.061,25.696,171.061,27.246 M169.527,27.246
			c0-0.835-1.133-1.296-3.021-1.296c-1.891,0-3.021,0.461-3.021,1.296c0,0.82,1.131,1.28,3.021,1.28
			C168.395,28.526,169.527,28.066,169.527,27.246 M168.112,24.091h-1.444v-7.578h1.444v3.201h1.415v-3.436h1.457v8.246h-1.457v-3.56
			h-1.415V24.091z"/>
	</g>
	<g>
		<defs>
			<rect id="SVGID_81_" y="-23.347" width="437" height="138.257"/>
		</defs>
		<clipPath id="SVGID_82_">
			<use xlink:href="#SVGID_81_"  overflow="visible"/>
		</clipPath>
		<path clip-path="url(#SVGID_82_)" fill="#BEC6E5" d="M184.709,26.679v1.266h-12.145v-1.266h2.795v-4.344h1.52v4.344h1.801v-4.344
			h1.518v4.344H184.709z M181.91,18.761h-8.143v-1.25h9.676v1.416c0,1.681,0,3.483-0.478,6.087l-1.53-0.177
			c0.475-2.457,0.475-4.273,0.475-5.91V18.761z"/>
	</g>
	<g>
		<defs>
			<rect id="SVGID_83_" y="-23.347" width="437" height="138.257"/>
		</defs>
		<clipPath id="SVGID_84_">
			<use xlink:href="#SVGID_83_"  overflow="visible"/>
		</clipPath>
		<path clip-path="url(#SVGID_84_)" fill="#BEC6E5" d="M194.588,23.883v1.472h1.578v4.347h-1.534v-3.126h-7.784v-1.221h1.697v-1.472
			h-3.064v-1.236h12.173v1.236H194.588z M186.789,19.164c0-1.621,1.861-2.607,4.793-2.607c2.917,0,4.793,0.987,4.793,2.607
			c0,1.622-1.876,2.604-4.793,2.604C188.65,21.768,186.789,20.787,186.789,19.164 M188.367,19.164c0,0.892,1.205,1.399,3.215,1.399
			c1.994,0,3.199-0.507,3.199-1.399c0-0.909-1.205-1.416-3.199-1.416C189.572,17.748,188.367,18.257,188.367,19.164 M193.056,23.883
			h-2.977v1.473h2.977V23.883z"/>
	</g>
	<g>
		<defs>
			<rect id="SVGID_85_" y="-23.347" width="437" height="138.257"/>
		</defs>
		<clipPath id="SVGID_86_">
			<use xlink:href="#SVGID_85_"  overflow="visible"/>
		</clipPath>
		<path clip-path="url(#SVGID_86_)" fill="#BEC6E5" d="M202.133,23.539c-1.281,0.062-2.502,0.075-3.557,0.075l-0.195-1.25
			c2.471-0.013,5.775-0.043,8.619-0.402l0.117,1.101c-1.131,0.196-2.305,0.329-3.451,0.388v2.59h-1.533V23.539L202.133,23.539z
			 M199.408,19.135c0-1.432,1.354-2.37,3.334-2.37c1.964,0,3.32,0.938,3.32,2.37c0,1.428-1.356,2.365-3.32,2.365
			C200.762,21.501,199.408,20.563,199.408,19.135 M209.902,28.198v1.251h-9.705v-3.973h1.533v2.722H209.902z M200.866,19.135
			c0,0.758,0.759,1.233,1.876,1.233c1.102,0,1.861-0.475,1.861-1.233c0-0.761-0.76-1.237-1.861-1.237
			C201.625,17.899,200.866,18.375,200.866,19.135 M208.056,24.149v-7.904h1.534v10.228h-1.534v-1.251h-2.634v-1.073H208.056z"/>
	</g>
	<g>
		<defs>
			<rect id="SVGID_87_" y="-23.347" width="437" height="138.257"/>
		</defs>
		<clipPath id="SVGID_88_">
			<use xlink:href="#SVGID_87_"  overflow="visible"/>
		</clipPath>
		<path clip-path="url(#SVGID_88_)" fill="#BEC6E5" d="M218.088,21.828c0.597,0,1.072,0.476,1.072,1.07
			c0,0.596-0.476,1.074-1.072,1.074c-0.598,0-1.072-0.478-1.072-1.074C217.016,22.304,217.49,21.828,218.088,21.828"/>
	</g>
	<g>
		<defs>
			<rect id="SVGID_89_" y="-23.347" width="437" height="138.257"/>
		</defs>
		<clipPath id="SVGID_90_">
			<use xlink:href="#SVGID_89_"  overflow="visible"/>
		</clipPath>
		<path clip-path="url(#SVGID_90_)" fill="#BEC6E5" d="M230.407,19.566c0,2.501,1.281,4.938,3.334,5.891l-0.908,1.237
			c-1.519-0.758-2.604-2.232-3.184-4.031c-0.597,1.903-1.697,3.468-3.233,4.256l-0.965-1.221c2.097-1.026,3.409-3.616,3.409-6.132
			v-2.218h1.546L230.407,19.566L230.407,19.566z M236.705,16.231v13.487h-1.549v-7.815h-2.872v-1.25h2.872v-4.421H236.705z"/>
	</g>
	<g>
		<defs>
			<rect id="SVGID_91_" y="-23.347" width="437" height="138.257"/>
		</defs>
		<clipPath id="SVGID_92_">
			<use xlink:href="#SVGID_91_"  overflow="visible"/>
		</clipPath>
		<path clip-path="url(#SVGID_92_)" fill="#BEC6E5" d="M250.664,25.354h-5.374v4.361h-1.533v-4.361h-5.282v-1.236h12.188v1.236
			H250.664z M249.162,22.663h-9.215v-5.879h1.534v1.698h6.146v-1.698h1.535V22.663L249.162,22.663z M247.627,19.714h-6.146v1.713
			h6.146V19.714z"/>
	</g>
	<g>
		<defs>
			<rect id="SVGID_93_" y="-23.347" width="437" height="138.257"/>
		</defs>
		<clipPath id="SVGID_94_">
			<use xlink:href="#SVGID_93_"  overflow="visible"/>
		</clipPath>
		<path clip-path="url(#SVGID_94_)" fill="#BEC6E5" d="M259.279,23.391c-2.53,0.429-5.508,0.474-7.663,0.474l-0.181-1.266h1.578
			v-4.138h-1.221v-1.248h7.084v1.248h-1.206v3.946c0.522-0.014,1.029-0.072,1.519-0.134L259.279,23.391z M262.629,27.246
			c0,1.548-1.728,2.455-4.539,2.455c-2.814,0-4.524-0.907-4.524-2.455c0-1.578,1.71-2.487,4.524-2.487
			C260.901,24.759,262.629,25.668,262.629,27.246 M254.487,22.572c0.565-0.016,1.131-0.031,1.712-0.059v-4.051h-1.712V22.572z
			 M261.096,27.246c0-0.851-1.086-1.296-3.006-1.296s-2.99,0.445-2.99,1.296c0,0.818,1.07,1.278,2.99,1.278
			S261.096,28.064,261.096,27.246 M261.035,22.242h-1.949v-1.234h1.949v-1.22h-1.949v-1.234h1.949v-2.293h1.534v8.263h-1.534V22.242
			z"/>
	</g>
	<g>
		<defs>
			<rect id="SVGID_95_" y="-23.347" width="437" height="138.257"/>
		</defs>
		<clipPath id="SVGID_96_">
			<use xlink:href="#SVGID_95_"  overflow="visible"/>
		</clipPath>
		<path clip-path="url(#SVGID_96_)" fill="#BEC6E5" d="M270.308,23.57c-1.191-0.462-2.026-1.355-2.532-2.426
			c-0.49,1.236-1.366,2.277-2.667,2.843l-0.801-1.178c1.801-0.817,2.709-2.5,2.709-4.035v-1.695h1.489v1.695
			c0,1.491,0.876,2.964,2.619,3.648L270.308,23.57z M275.828,27.246c0,1.532-1.756,2.457-4.556,2.457
			c-2.796,0-4.554-0.925-4.554-2.457c0-1.55,1.758-2.472,4.554-2.472C274.072,24.774,275.828,25.696,275.828,27.246 M274.295,27.246
			c0-0.835-1.133-1.296-3.022-1.296c-1.891,0-3.021,0.461-3.021,1.296c0,0.82,1.13,1.28,3.021,1.28
			C273.162,28.526,274.295,28.066,274.295,27.246 M272.883,24.091h-1.445v-7.578h1.445v3.201h1.414v-3.436h1.458v8.246h-1.458v-3.56
			h-1.414V24.091z"/>
	</g>
	<g>
		<defs>
			<rect id="SVGID_97_" y="-23.347" width="437" height="138.257"/>
		</defs>
		<clipPath id="SVGID_98_">
			<use xlink:href="#SVGID_97_"  overflow="visible"/>
		</clipPath>
		<path clip-path="url(#SVGID_98_)" fill="#BEC6E5" d="M289.477,26.679v1.266h-12.146v-1.266h2.798v-4.344h1.519v4.344h1.8v-4.344
			h1.521v4.344H289.477z M286.679,18.761h-8.144v-1.25h9.674v1.416c0,1.681,0,3.483-0.475,6.087l-1.533-0.177
			c0.475-2.457,0.475-4.273,0.475-5.91v-0.166H286.679z"/>
	</g>
	<g>
		<defs>
			<rect id="SVGID_99_" y="-23.347" width="437" height="138.257"/>
		</defs>
		<clipPath id="SVGID_100_">
			<use xlink:href="#SVGID_99_"  overflow="visible"/>
		</clipPath>
		<path clip-path="url(#SVGID_100_)" fill="#BEC6E5" d="M299.357,23.883v1.472h1.577v4.347h-1.533v-3.126h-7.784v-1.221h1.697
			v-1.472h-3.064v-1.236h12.174v1.236H299.357z M291.559,19.164c0-1.621,1.858-2.607,4.793-2.607c2.917,0,4.79,0.987,4.79,2.607
			c0,1.622-1.873,2.604-4.79,2.604C293.417,21.768,291.559,20.787,291.559,19.164 M293.136,19.164c0,0.892,1.205,1.399,3.216,1.399
			c1.994,0,3.198-0.507,3.198-1.399c0-0.909-1.204-1.416-3.198-1.416C294.341,17.748,293.136,18.257,293.136,19.164 M297.823,23.883
			h-2.979v1.473h2.979V23.883z"/>
	</g>
	<g>
		<defs>
			<rect id="SVGID_101_" y="-23.347" width="437" height="138.257"/>
		</defs>
		<clipPath id="SVGID_102_">
			<use xlink:href="#SVGID_101_"  overflow="visible"/>
		</clipPath>
		<path clip-path="url(#SVGID_102_)" fill="#BEC6E5" d="M306.902,23.539c-1.281,0.062-2.499,0.075-3.555,0.075l-0.195-1.25
			c2.469-0.013,5.774-0.043,8.617-0.402l0.118,1.101c-1.129,0.196-2.306,0.329-3.45,0.388v2.59h-1.535V23.539z M304.179,19.135
			c0-1.432,1.353-2.37,3.333-2.37c1.965,0,3.32,0.938,3.32,2.37c0,1.428-1.355,2.365-3.32,2.365
			C305.532,21.501,304.179,20.563,304.179,19.135 M314.672,28.198v1.251h-9.705v-3.973h1.533v2.722H314.672z M305.638,19.135
			c0,0.758,0.759,1.233,1.874,1.233c1.102,0,1.86-0.475,1.86-1.233c0-0.761-0.759-1.237-1.86-1.237
			C306.396,17.899,305.638,18.375,305.638,19.135 M312.826,24.149v-7.904h1.533v10.228h-1.533v-1.251h-2.634v-1.073H312.826z"/>
	</g>
	<g>
		<defs>
			<rect id="SVGID_103_" y="-23.347" width="437" height="138.257"/>
		</defs>
		<clipPath id="SVGID_104_">
			<use xlink:href="#SVGID_103_"  overflow="visible"/>
		</clipPath>
		<path clip-path="url(#SVGID_104_)" fill="#BEC6E5" d="M126.606,58.873c-1.203-0.434-2.07-1.279-2.554-2.369
			c-0.495,1.238-1.437,2.219-2.789,2.701l-0.669-1.029c1.797-0.607,2.777-2.117,2.777-3.754v-1.104h1.288v1.041
			c0,1.547,0.93,2.949,2.627,3.508L126.606,58.873z M129.966,61.772c0,1.35-1.437,2.145-3.781,2.145
			c-2.33,0-3.767-0.795-3.767-2.145c0-1.352,1.438-2.145,3.767-2.145C128.529,59.627,129.966,60.42,129.966,61.772 M128.688,61.772
			c0-0.732-0.917-1.139-2.504-1.139c-1.586,0-2.49,0.406-2.49,1.139c0,0.73,0.903,1.141,2.49,1.141
			C127.772,62.912,128.688,62.502,128.688,61.772 M128.64,55.996h-2.27v-1.041h2.27v-2.242h1.277v6.605h-1.277V55.996z"/>
	</g>
	<g>
		<defs>
			<rect id="SVGID_105_" y="-23.347" width="437" height="138.257"/>
		</defs>
		<clipPath id="SVGID_106_">
			<use xlink:href="#SVGID_105_"  overflow="visible"/>
		</clipPath>
		<path clip-path="url(#SVGID_106_)" fill="#BEC6E5" d="M138.424,59.778c-2.343,0.445-5.008,0.496-6.942,0.508l-0.15-1.018
			c0.832,0,1.823-0.012,2.853-0.035v-0.77c-1.252-0.148-2.034-0.756-2.034-1.672c0-1.066,1.055-1.727,2.667-1.727
			c1.609,0,2.665,0.66,2.665,1.727c0,0.902-0.769,1.525-2.009,1.672v0.707c0.967-0.063,1.947-0.139,2.852-0.273L138.424,59.778z
			 M138.014,54.67h-6.395v-0.943h2.566v-1.053h1.288v1.053h2.541V54.67L138.014,54.67z M134.234,62.664h6.347v1.041h-7.624v-2.791
			h1.277V62.664L134.234,62.664z M134.818,57.617c0.892,0,1.462-0.309,1.462-0.828c0-0.533-0.57-0.854-1.462-0.854
			c-0.895,0-1.464,0.32-1.464,0.854C133.354,57.309,133.923,57.617,134.818,57.617 M141.733,56.516v1.053h-1.537v3.904h-1.276
			v-8.762h1.276v3.805H141.733z"/>
	</g>
	<g>
		<defs>
			<rect id="SVGID_107_" y="-23.347" width="437" height="138.257"/>
		</defs>
		<clipPath id="SVGID_108_">
			<use xlink:href="#SVGID_107_"  overflow="visible"/>
		</clipPath>
		<polygon clip-path="url(#SVGID_108_)" fill="#BEC6E5" points="152.361,61.524 152.361,62.574 142.222,62.574 142.222,61.524 
			146.635,61.524 146.635,58.885 143.46,58.885 143.46,53.565 151.122,53.565 151.122,54.596 144.738,54.596 144.738,57.854 
			151.222,57.854 151.222,58.885 147.914,58.885 147.914,61.524 		"/>
	</g>
	<g>
		<defs>
			<rect id="SVGID_109_" y="-23.347" width="437" height="138.257"/>
		</defs>
		<clipPath id="SVGID_110_">
			<use xlink:href="#SVGID_109_"  overflow="visible"/>
		</clipPath>
		<path clip-path="url(#SVGID_110_)" fill="#BEC6E5" d="M157.064,55.475c0,2.082,1.065,4.115,2.776,4.908l-0.757,1.029
			c-1.266-0.631-2.168-1.859-2.652-3.359c-0.496,1.586-1.412,2.889-2.689,3.545l-0.807-1.016c1.748-0.854,2.839-3.014,2.839-5.107
			v-1.848h1.29V55.475z M162.307,52.699v11.23h-1.289v-6.508h-2.393v-1.041h2.393v-3.68h1.289V52.699z"/>
	</g>
	<g>
		<defs>
			<rect id="SVGID_111_" y="-23.347" width="437" height="138.257"/>
		</defs>
		<clipPath id="SVGID_112_">
			<use xlink:href="#SVGID_111_"  overflow="visible"/>
		</clipPath>
		<path clip-path="url(#SVGID_112_)" fill="#BEC6E5" d="M170.73,59.006c-2.332,0.41-4.971,0.473-6.918,0.473l-0.135-1.041
			c0.668,0,1.438,0,2.23-0.027v-2.291h1.264v2.254c1.165-0.047,2.367-0.123,3.472-0.295L170.73,59.006z M168.461,57.383
			c0.224-1.199,0.26-2.082,0.271-2.775h-4.373v-1.041h5.625v0.645c0,0.758,0,1.859-0.271,3.311L168.461,57.383z M166.65,62.664
			h6.322v1.041h-7.609v-3.322h1.287V62.664L166.65,62.664z M174.101,56.268v1.053h-1.485v3.807h-1.291v-8.404h1.291v3.545H174.101z"
			/>
	</g>
	<g>
		<defs>
			<rect id="SVGID_113_" y="-23.347" width="437" height="138.257"/>
		</defs>
		<clipPath id="SVGID_114_">
			<use xlink:href="#SVGID_113_"  overflow="visible"/>
		</clipPath>
		<path clip-path="url(#SVGID_114_)" fill="#BEC6E5" d="M180.154,57.36c0.496,0,0.893,0.395,0.893,0.895
			c0,0.494-0.396,0.891-0.893,0.891s-0.893-0.396-0.893-0.891C179.262,57.754,179.657,57.36,180.154,57.36"/>
	</g>
	<g>
		<defs>
			<rect id="SVGID_115_" y="-23.347" width="437" height="138.257"/>
		</defs>
		<clipPath id="SVGID_116_">
			<use xlink:href="#SVGID_115_"  overflow="visible"/>
		</clipPath>
		<path clip-path="url(#SVGID_116_)" fill="#BEC6E5" d="M196.473,57.844v1.029h-10.09v-1.029h3.967v-2.059h1.288v2.059H196.473z
			 M195.309,61.821c0,1.301-1.539,2.096-3.918,2.096c-2.418,0-3.941-0.795-3.941-2.096c0-1.289,1.523-2.082,3.941-2.082
			C193.77,59.739,195.309,60.533,195.309,61.821 M193.672,57.037c0.283-1.102,0.297-1.912,0.297-2.75h-6.422v-1.031h7.686v0.941
			c0,0.893,0,1.822-0.31,2.977L193.672,57.037z M194.031,61.821c0-0.693-0.992-1.102-2.641-1.102c-1.662,0-2.676,0.408-2.676,1.102
			c0,0.709,1.014,1.115,2.676,1.115C193.039,62.936,194.031,62.53,194.031,61.821"/>
	</g>
	<g>
		<defs>
			<rect id="SVGID_117_" y="-23.347" width="437" height="138.257"/>
		</defs>
		<clipPath id="SVGID_118_">
			<use xlink:href="#SVGID_117_"  overflow="visible"/>
		</clipPath>
		<path clip-path="url(#SVGID_118_)" fill="#BEC6E5" d="M207.273,60.047h-4.45v3.881h-1.276v-3.881h-4.388v-1.029h10.128
			L207.273,60.047z M197.715,57.198c2.133-0.283,3.706-1.51,3.781-2.814h-3.409v-1.029h8.243v1.029h-3.385
			c0.076,1.305,1.649,2.535,3.781,2.814l-0.459,1.006c-1.847-0.275-3.37-1.191-4.055-2.43c-0.681,1.238-2.192,2.156-4.039,2.43
			L197.715,57.198z"/>
	</g>
	<g>
		<defs>
			<rect id="SVGID_119_" y="-23.347" width="437" height="138.257"/>
		</defs>
		<clipPath id="SVGID_120_">
			<use xlink:href="#SVGID_119_"  overflow="visible"/>
		</clipPath>
		<polygon clip-path="url(#SVGID_120_)" fill="#BEC6E5" points="218.088,61.524 218.088,62.574 207.947,62.574 207.947,61.524 
			212.361,61.524 212.361,58.885 209.187,58.885 209.187,53.565 216.846,53.565 216.846,54.596 210.463,54.596 210.463,57.854 
			216.948,57.854 216.948,58.885 213.637,58.885 213.637,61.524 		"/>
	</g>
	<g>
		<defs>
			<rect id="SVGID_121_" y="-23.347" width="437" height="138.257"/>
		</defs>
		<clipPath id="SVGID_122_">
			<use xlink:href="#SVGID_121_"  overflow="visible"/>
		</clipPath>
		<path clip-path="url(#SVGID_122_)" fill="#BEC6E5" d="M222.789,55.475c0,2.082,1.066,4.115,2.777,4.908l-0.757,1.029
			c-1.265-0.631-2.169-1.859-2.652-3.359c-0.495,1.586-1.413,2.889-2.69,3.545l-0.805-1.016c1.749-0.854,2.838-3.014,2.838-5.107
			v-1.848h1.289V55.475z M228.031,52.699v11.23h-1.288v-6.508h-2.392v-1.041h2.392v-3.68h1.288V52.699z"/>
	</g>
	<g>
		<defs>
			<rect id="SVGID_123_" y="-23.347" width="437" height="138.257"/>
		</defs>
		<clipPath id="SVGID_124_">
			<use xlink:href="#SVGID_123_"  overflow="visible"/>
		</clipPath>
		<path clip-path="url(#SVGID_124_)" fill="#BEC6E5" d="M236.455,59.006c-2.332,0.41-4.97,0.473-6.916,0.473l-0.138-1.041
			c0.669,0,1.438,0,2.231-0.027v-2.291h1.266v2.254c1.164-0.047,2.365-0.123,3.471-0.295L236.455,59.006z M234.186,57.383
			c0.224-1.199,0.261-2.082,0.272-2.775h-4.374v-1.041h5.627v0.645c0,0.758,0,1.859-0.272,3.311L234.186,57.383z M232.376,62.664
			h6.323v1.041h-7.611v-3.322h1.291v2.281H232.376z M239.825,56.268v1.053h-1.486v3.807h-1.288v-8.404h1.288v3.545H239.825z"/>
	</g>
	<g>
		<defs>
			<rect id="SVGID_125_" y="-23.347" width="437" height="138.257"/>
		</defs>
		<clipPath id="SVGID_126_">
			<use xlink:href="#SVGID_125_"  overflow="visible"/>
		</clipPath>
		<path clip-path="url(#SVGID_126_)" fill="#BEC6E5" d="M245.879,57.36c0.495,0,0.892,0.395,0.892,0.895
			c0,0.494-0.396,0.891-0.892,0.891c-0.496,0-0.893-0.396-0.893-0.891C244.986,57.754,245.383,57.36,245.879,57.36"/>
	</g>
	<g>
		<defs>
			<rect id="SVGID_127_" y="-23.347" width="437" height="138.257"/>
		</defs>
		<clipPath id="SVGID_128_">
			<use xlink:href="#SVGID_127_"  overflow="visible"/>
		</clipPath>
		<path clip-path="url(#SVGID_128_)" fill="#BEC6E5" d="M262.244,60.088h-2.525v3.828h-1.302v-3.828h-2.553v3.828h-1.3v-3.828
			h-2.482v-1.057h10.154L262.244,60.088z M253.162,55.6c0-1.498,1.609-2.469,3.978-2.469c2.356,0,3.967,0.971,3.967,2.469
			c0,1.512-1.61,2.479-3.967,2.479C254.771,58.078,253.162,57.112,253.162,55.6 M254.474,55.6c0,0.904,1.054,1.449,2.666,1.449
			c1.599,0,2.651-0.545,2.651-1.449c0-0.896-1.053-1.438-2.651-1.438C255.529,54.162,254.474,54.703,254.474,55.6"/>
	</g>
	<g>
		<defs>
			<rect id="SVGID_129_" y="-23.347" width="437" height="138.257"/>
		</defs>
		<clipPath id="SVGID_130_">
			<use xlink:href="#SVGID_129_"  overflow="visible"/>
		</clipPath>
		<path clip-path="url(#SVGID_130_)" fill="#BEC6E5" d="M273.012,59.242h-4.465v4.674h-1.289v-4.674h-4.373v-1.051h7.275
			c0.323-1.563,0.323-2.73,0.323-3.76H264.1v-1.027h7.636v0.979c0,1.053,0,2.221-0.286,3.807h1.563V59.242L273.012,59.242z"/>
	</g>
	<g>
		<defs>
			<rect id="SVGID_131_" y="-23.347" width="437" height="138.257"/>
		</defs>
		<clipPath id="SVGID_132_">
			<use xlink:href="#SVGID_131_"  overflow="visible"/>
		</clipPath>
		<polygon clip-path="url(#SVGID_132_)" fill="#BEC6E5" points="283.813,61.524 283.813,62.574 273.673,62.574 273.673,61.524 
			278.085,61.524 278.085,58.885 274.912,58.885 274.912,53.565 282.573,53.565 282.573,54.596 276.188,54.596 276.188,57.854 
			282.672,57.854 282.672,58.885 279.361,58.885 279.361,61.524 		"/>
	</g>
	<g>
		<defs>
			<rect id="SVGID_133_" y="-23.347" width="437" height="138.257"/>
		</defs>
		<clipPath id="SVGID_134_">
			<use xlink:href="#SVGID_133_"  overflow="visible"/>
		</clipPath>
		<path clip-path="url(#SVGID_134_)" fill="#BEC6E5" d="M288.514,55.475c0,2.082,1.066,4.115,2.777,4.908l-0.756,1.029
			c-1.268-0.631-2.17-1.859-2.653-3.359c-0.495,1.586-1.414,2.889-2.689,3.545l-0.807-1.016c1.749-0.854,2.839-3.014,2.839-5.107
			v-1.848h1.289V55.475z M293.757,52.699v11.23h-1.289v-6.508h-2.392v-1.041h2.392v-3.68h1.289V52.699z"/>
	</g>
	<g>
		<defs>
			<rect id="SVGID_135_" y="-23.347" width="437" height="138.257"/>
		</defs>
		<clipPath id="SVGID_136_">
			<use xlink:href="#SVGID_135_"  overflow="visible"/>
		</clipPath>
		<path clip-path="url(#SVGID_136_)" fill="#BEC6E5" d="M302.18,59.006c-2.332,0.41-4.971,0.473-6.918,0.473l-0.135-1.041
			c0.668,0,1.438,0,2.23-0.027v-2.291h1.266v2.254c1.163-0.047,2.365-0.123,3.471-0.295L302.18,59.006z M299.91,57.383
			c0.223-1.199,0.26-2.082,0.272-2.775h-4.373v-1.041h5.625v0.645c0,0.758,0,1.859-0.271,3.311L299.91,57.383z M298.101,62.664
			h6.323v1.041h-7.612v-3.322h1.291v2.281H298.101z M305.55,56.268v1.053h-1.486v3.807h-1.288v-8.404h1.288v3.545H305.55z"/>
	</g>
	<g>
		<defs>
			<rect id="SVGID_137_" y="-23.347" width="437" height="138.257"/>
		</defs>
		<clipPath id="SVGID_138_">
			<use xlink:href="#SVGID_137_"  overflow="visible"/>
		</clipPath>
		<path clip-path="url(#SVGID_138_)" fill="#BEC6E5" d="M311.602,57.36c0.496,0,0.894,0.395,0.894,0.895
			c0,0.494-0.397,0.891-0.894,0.891c-0.493,0-0.891-0.396-0.891-0.891C310.711,57.754,311.108,57.36,311.602,57.36"/>
	</g>
	<g>
		<defs>
			<rect id="SVGID_139_" y="-23.347" width="437" height="138.257"/>
		</defs>
		<clipPath id="SVGID_140_">
			<use xlink:href="#SVGID_139_"  overflow="visible"/>
		</clipPath>
		<path clip-path="url(#SVGID_140_)" fill="#BEC6E5" d="M327.958,61.498v1.053h-10.14v-1.053h4.412v-2.256h-3.271v-5.775h1.266
			v1.885h5.304v-1.885h1.266v5.775h-3.286v2.256H327.958z M320.226,58.215h5.304v-1.834h-5.304V58.215z"/>
	</g>
	<g>
		<defs>
			<rect id="SVGID_141_" y="-23.347" width="437" height="138.257"/>
		</defs>
		<clipPath id="SVGID_142_">
			<use xlink:href="#SVGID_141_"  overflow="visible"/>
		</clipPath>
		<path clip-path="url(#SVGID_142_)" fill="#BEC6E5" d="M334.559,58.834c-1.354,0.236-2.492,0.273-4.688,0.273h-0.818v-3.445h3.57
			v-1.301h-3.594v-1.029h4.858v3.297h-3.569v1.439c1.857-0.014,2.887-0.051,4.103-0.262L334.559,58.834z M337.943,61.883
			c0,1.328-1.438,2.094-3.795,2.094c-2.33,0-3.768-0.766-3.768-2.094c0-1.313,1.438-2.096,3.768-2.096
			C336.505,59.789,337.943,60.571,337.943,61.883 M336.665,61.883c0-0.721-0.915-1.113-2.517-1.113
			c-1.599,0-2.489,0.395-2.489,1.113s0.891,1.113,2.489,1.113C335.747,62.998,336.665,62.604,336.665,61.883 M336.604,57.694h-2.009
			v-1.043h2.009v-1.25h-2.009V54.36h2.009v-1.625h1.278v6.869h-1.278V57.694z"/>
	</g>
	<g>
		<defs>
			<rect id="SVGID_143_" y="-23.347" width="437" height="138.257"/>
		</defs>
		<clipPath id="SVGID_144_">
			<use xlink:href="#SVGID_143_"  overflow="visible"/>
		</clipPath>
		<polygon clip-path="url(#SVGID_144_)" fill="#BEC6E5" points="349.537,61.524 349.537,62.574 339.397,62.574 339.397,61.524 
			343.81,61.524 343.81,58.885 340.635,58.885 340.635,53.565 348.297,53.565 348.297,54.596 341.913,54.596 341.913,57.854 
			348.396,57.854 348.396,58.885 345.087,58.885 345.087,61.524 		"/>
	</g>
	<g>
		<defs>
			<rect id="SVGID_145_" y="-23.347" width="437" height="138.257"/>
		</defs>
		<clipPath id="SVGID_146_">
			<use xlink:href="#SVGID_145_"  overflow="visible"/>
		</clipPath>
		<path clip-path="url(#SVGID_146_)" fill="#BEC6E5" d="M354.241,55.475c0,2.082,1.064,4.115,2.774,4.908l-0.755,1.029
			c-1.265-0.631-2.17-1.859-2.654-3.359c-0.495,1.586-1.412,2.889-2.689,3.545l-0.805-1.016c1.749-0.854,2.838-3.014,2.838-5.107
			v-1.848h1.291V55.475z M359.481,52.699v11.23h-1.29v-6.508H355.8v-1.041h2.392v-3.68h1.29V52.699z"/>
	</g>
	<g>
		<defs>
			<rect id="SVGID_147_" y="-23.347" width="437" height="138.257"/>
		</defs>
		<clipPath id="SVGID_148_">
			<use xlink:href="#SVGID_147_"  overflow="visible"/>
		</clipPath>
		<path clip-path="url(#SVGID_148_)" fill="#BEC6E5" d="M367.904,59.006c-2.333,0.41-4.973,0.473-6.919,0.473l-0.136-1.041
			c0.67,0,1.439,0,2.232-0.027v-2.291h1.264v2.254c1.164-0.047,2.367-0.123,3.472-0.295L367.904,59.006z M365.634,57.383
			c0.224-1.199,0.259-2.082,0.273-2.775h-4.373v-1.041h5.627v0.645c0,0.758,0,1.859-0.274,3.311L365.634,57.383z M363.825,62.664
			h6.323v1.041h-7.611v-3.322h1.29v2.281H363.825z M371.275,56.268v1.053h-1.486v3.807H368.5v-8.404h1.289v3.545H371.275z"/>
	</g>
	<g>
		<defs>
			<rect id="SVGID_149_" y="-23.347" width="437" height="138.257"/>
		</defs>
		<clipPath id="SVGID_150_">
			<use xlink:href="#SVGID_149_"  overflow="visible"/>
		</clipPath>
		<path clip-path="url(#SVGID_150_)" fill="#BEC6E5" d="M377.33,57.36c0.495,0,0.891,0.395,0.891,0.895
			c0,0.494-0.396,0.891-0.891,0.891c-0.496,0-0.894-0.396-0.894-0.891C376.437,57.754,376.831,57.36,377.33,57.36"/>
	</g>
	<g>
		<defs>
			<rect id="SVGID_151_" y="-23.347" width="437" height="138.257"/>
		</defs>
		<clipPath id="SVGID_152_">
			<use xlink:href="#SVGID_151_"  overflow="visible"/>
		</clipPath>
		<path clip-path="url(#SVGID_152_)" fill="#BEC6E5" d="M389.232,58.957v0.93c2.021,0.123,3.2,0.832,3.2,2.008
			c0,1.287-1.439,2.021-3.856,2.021c-2.405,0-3.855-0.732-3.855-2.021c0-1.176,1.203-1.885,3.223-2.008v-0.93h-4.411v-1.029h10.127
			v1.029H389.232z M384.611,55.078c0-1.338,1.548-2.146,3.99-2.146c2.444,0,3.993,0.809,3.993,2.146
			c0,1.324-1.549,2.145-3.993,2.145C386.159,57.223,384.611,56.403,384.611,55.078 M385.925,55.078c0,0.732,1.005,1.139,2.677,1.139
			c1.662,0,2.666-0.406,2.666-1.139c0-0.746-1.004-1.152-2.666-1.152C386.93,53.926,385.925,54.332,385.925,55.078 M388.578,60.854
			c-1.637,0-2.555,0.361-2.555,1.041s0.918,1.041,2.555,1.041c1.635,0,2.565-0.361,2.565-1.041S390.213,60.854,388.578,60.854"/>
	</g>
	<g>
		<defs>
			<rect id="SVGID_153_" y="-23.347" width="437" height="138.257"/>
		</defs>
		<clipPath id="SVGID_154_">
			<use xlink:href="#SVGID_153_"  overflow="visible"/>
		</clipPath>
		<path clip-path="url(#SVGID_154_)" fill="#BEC6E5" d="M400.368,59.59c-1.265-0.396-2.206-1.213-2.701-2.27
			c-0.495,1.143-1.426,2.035-2.728,2.469l-0.635-0.994c1.726-0.58,2.691-1.941,2.691-3.42v-0.209h-2.354v-1.031h2.354v-1.35h1.29
			v1.352h2.342v1.029h-2.354v0.211c0,1.377,0.989,2.678,2.714,3.211L400.368,59.59z M403.89,62.664v1.041h-7.536v-3.369h1.276v2.328
			H403.89z M402.327,56.082v-3.348h1.278v8.316h-1.278v-3.916h-2.058v-1.053H402.327z"/>
	</g>
	<g>
		<defs>
			<rect id="SVGID_155_" y="-23.347" width="437" height="138.257"/>
		</defs>
		<clipPath id="SVGID_156_">
			<use xlink:href="#SVGID_155_"  overflow="visible"/>
		</clipPath>
		<polygon clip-path="url(#SVGID_156_)" fill="#BEC6E5" points="415.262,61.524 415.262,62.574 405.123,62.574 405.123,61.524 
			409.534,61.524 409.534,58.885 406.359,58.885 406.359,53.565 414.021,53.565 414.021,54.596 407.639,54.596 407.639,57.854 
			414.122,57.854 414.122,58.885 410.812,58.885 410.812,61.524 		"/>
	</g>
	<g>
		<defs>
			<rect id="SVGID_157_" y="-23.347" width="437" height="138.257"/>
		</defs>
		<clipPath id="SVGID_158_">
			<use xlink:href="#SVGID_157_"  overflow="visible"/>
		</clipPath>
		<path clip-path="url(#SVGID_158_)" fill="#BEC6E5" d="M419.964,55.475c0,2.082,1.066,4.115,2.777,4.908l-0.757,1.029
			c-1.266-0.631-2.169-1.859-2.652-3.359c-0.496,1.586-1.413,2.889-2.69,3.545l-0.805-1.016c1.747-0.854,2.837-3.014,2.837-5.107
			v-1.848h1.29V55.475z M425.206,52.699v11.23h-1.288v-6.508h-2.394v-1.041h2.394v-3.68h1.288V52.699z"/>
	</g>
	<g>
		<defs>
			<rect id="SVGID_159_" y="-23.347" width="437" height="138.257"/>
		</defs>
		<clipPath id="SVGID_160_">
			<use xlink:href="#SVGID_159_"  overflow="visible"/>
		</clipPath>
		<path clip-path="url(#SVGID_160_)" fill="#BEC6E5" d="M433.629,59.006c-2.331,0.41-4.969,0.473-6.916,0.473l-0.137-1.041
			c0.67,0,1.438,0,2.231-0.027v-2.291h1.265v2.254c1.165-0.047,2.365-0.123,3.472-0.295L433.629,59.006z M431.359,57.383
			c0.223-1.199,0.262-2.082,0.273-2.775h-4.374v-1.041h5.627v0.645c0,0.758,0,1.859-0.272,3.311L431.359,57.383z M429.551,62.664
			h6.322v1.041h-7.61v-3.322h1.291v2.281H429.551z M437,56.268v1.053h-1.486v3.807h-1.289v-8.404h1.289v3.545H437z"/>
	</g>
	<g>
		<defs>
			<rect id="SVGID_161_" y="-23.347" width="437" height="138.257"/>
		</defs>
		<clipPath id="SVGID_162_">
			<use xlink:href="#SVGID_161_"  overflow="visible"/>
		</clipPath>
		<path clip-path="url(#SVGID_162_)" fill="#BEC6E5" d="M126.496,77.735c0,2.416-1.202,3.939-2.876,3.939
			c-1.673,0-2.875-1.525-2.875-3.939c0-2.42,1.203-3.953,2.875-3.953C125.294,73.781,126.496,75.317,126.496,77.735 M125.269,77.735
			c0-1.748-0.681-2.801-1.649-2.801c-0.978,0-1.649,1.053-1.649,2.801c0,1.746,0.671,2.801,1.649,2.801
			C124.588,80.537,125.269,79.481,125.269,77.735 M131.058,78.391h-1.747v5.777h-1.278V72.961h1.278v4.375h1.747V78.391z"/>
	</g>
	<g>
		<defs>
			<rect id="SVGID_163_" y="-23.347" width="437" height="138.257"/>
		</defs>
		<clipPath id="SVGID_164_">
			<use xlink:href="#SVGID_163_"  overflow="visible"/>
		</clipPath>
		<path clip-path="url(#SVGID_164_)" fill="#BEC6E5" d="M137.384,79.457c-1.241-0.434-2.146-1.326-2.641-2.42
			c-0.484,1.229-1.413,2.184-2.727,2.656l-0.694-0.99c1.797-0.607,2.751-2.121,2.751-3.758v-1.301h1.291v1.311
			c0,1.492,0.965,2.904,2.664,3.486L137.384,79.457z M134.383,82.903h6.236v1.039h-7.511v-3.529h1.275V82.903z M141.759,76.309
			v1.053h-1.587v3.846h-1.276v-8.26h1.276v3.361H141.759z"/>
	</g>
	<g>
		<defs>
			<rect id="SVGID_165_" y="-23.347" width="437" height="138.257"/>
		</defs>
		<clipPath id="SVGID_166_">
			<use xlink:href="#SVGID_165_"  overflow="visible"/>
		</clipPath>
		<polygon clip-path="url(#SVGID_166_)" fill="#BEC6E5" points="152.361,81.762 152.361,82.817 142.222,82.817 142.222,81.762 
			146.635,81.762 146.635,79.119 143.46,79.119 143.46,73.805 151.122,73.805 151.122,74.832 144.738,74.832 144.738,78.096 
			151.222,78.096 151.222,79.119 147.914,79.119 147.914,81.762 		"/>
	</g>
	<g>
		<defs>
			<rect id="SVGID_167_" y="-23.347" width="437" height="138.257"/>
		</defs>
		<clipPath id="SVGID_168_">
			<use xlink:href="#SVGID_167_"  overflow="visible"/>
		</clipPath>
		<path clip-path="url(#SVGID_168_)" fill="#BEC6E5" d="M157.064,75.713c0,2.082,1.065,4.115,2.776,4.908l-0.757,1.029
			c-1.266-0.633-2.168-1.859-2.652-3.359c-0.496,1.586-1.412,2.887-2.689,3.547l-0.807-1.02c1.748-0.854,2.839-3.01,2.839-5.105
			v-1.848h1.29V75.713z M162.307,72.938v11.23h-1.289v-6.51h-2.393v-1.039h2.393v-3.682H162.307z"/>
	</g>
	<g>
		<defs>
			<rect id="SVGID_169_" y="-23.347" width="437" height="138.257"/>
		</defs>
		<clipPath id="SVGID_170_">
			<use xlink:href="#SVGID_169_"  overflow="visible"/>
		</clipPath>
		<path clip-path="url(#SVGID_170_)" fill="#BEC6E5" d="M170.73,79.242c-2.332,0.412-4.971,0.473-6.918,0.473l-0.135-1.041
			c0.668,0,1.438,0,2.23-0.023v-2.295h1.264v2.256c1.165-0.049,2.367-0.125,3.472-0.297L170.73,79.242z M168.461,77.623
			c0.224-1.203,0.26-2.082,0.271-2.781h-4.373v-1.037h5.625v0.645c0,0.756,0,1.859-0.271,3.309L168.461,77.623z M166.65,82.903
			h6.322v1.039h-7.609v-3.32h1.287V82.903L166.65,82.903z M174.101,76.508v1.053h-1.485v3.805h-1.291v-8.402h1.291v3.547h1.485
			V76.508z"/>
	</g>
	<g>
		<defs>
			<rect id="SVGID_171_" y="-23.347" width="437" height="138.257"/>
		</defs>
		<clipPath id="SVGID_172_">
			<use xlink:href="#SVGID_171_"  overflow="visible"/>
		</clipPath>
		<path clip-path="url(#SVGID_172_)" fill="#BEC6E5" d="M180.154,77.596c0.496,0,0.893,0.4,0.893,0.895
			c0,0.496-0.396,0.895-0.893,0.895s-0.893-0.398-0.893-0.895C179.262,77.996,179.657,77.596,180.154,77.596"/>
	</g>
	<g>
		<defs>
			<rect id="SVGID_173_" y="-23.347" width="437" height="138.257"/>
		</defs>
		<clipPath id="SVGID_174_">
			<use xlink:href="#SVGID_173_"  overflow="visible"/>
		</clipPath>
		<path clip-path="url(#SVGID_174_)" fill="#BEC6E5" d="M189.729,74.781h2.095v1.031h-5.478v-1.031h2.117v-1.496h1.266V74.781z
			 M191.527,79.047c0,1.539-1.018,2.605-2.432,2.605c-1.412,0-2.429-1.066-2.429-2.605c0-1.547,1.017-2.6,2.429-2.6
			C190.51,76.448,191.527,77.5,191.527,79.047 M190.386,79.047c0-0.928-0.533-1.547-1.29-1.547c-0.756,0-1.287,0.619-1.287,1.547
			s0.531,1.539,1.287,1.539C189.853,80.584,190.386,79.975,190.386,79.047 M195.901,72.961v11.193h-1.215v-5.504h-1.19v4.982h-1.189
			V73.196h1.189v4.4h1.19v-4.635H195.901z"/>
	</g>
	<g>
		<defs>
			<rect id="SVGID_175_" y="-23.347" width="437" height="138.257"/>
		</defs>
		<clipPath id="SVGID_176_">
			<use xlink:href="#SVGID_175_"  overflow="visible"/>
		</clipPath>
		<path clip-path="url(#SVGID_176_)" fill="#BEC6E5" d="M203.008,81.416h-5.255v-7.4h5.255V81.416z M199.004,80.387h2.752V75.03
			h-2.752V80.387z M206.369,84.18h-1.29V72.948h1.29V84.18z"/>
	</g>
	<g>
		<defs>
			<rect id="SVGID_177_" y="-23.347" width="437" height="138.257"/>
		</defs>
		<clipPath id="SVGID_178_">
			<use xlink:href="#SVGID_177_"  overflow="visible"/>
		</clipPath>
		<polygon clip-path="url(#SVGID_178_)" fill="#BEC6E5" points="218.088,81.762 218.088,82.817 207.947,82.817 207.947,81.762 
			212.361,81.762 212.361,79.119 209.187,79.119 209.187,73.805 216.846,73.805 216.846,74.832 210.463,74.832 210.463,78.096 
			216.948,78.096 216.948,79.119 213.637,79.119 213.637,81.762 		"/>
	</g>
	<g>
		<defs>
			<rect id="SVGID_179_" y="-23.347" width="437" height="138.257"/>
		</defs>
		<clipPath id="SVGID_180_">
			<use xlink:href="#SVGID_179_"  overflow="visible"/>
		</clipPath>
		<path clip-path="url(#SVGID_180_)" fill="#BEC6E5" d="M222.789,75.713c0,2.082,1.066,4.115,2.777,4.908l-0.757,1.029
			c-1.265-0.633-2.169-1.859-2.652-3.359c-0.495,1.586-1.413,2.887-2.69,3.547l-0.805-1.02c1.749-0.854,2.838-3.01,2.838-5.105
			v-1.848h1.289V75.713z M228.031,72.938v11.23h-1.288v-6.51h-2.392v-1.039h2.392v-3.682H228.031z"/>
	</g>
	<g>
		<defs>
			<rect id="SVGID_181_" y="-23.347" width="437" height="138.257"/>
		</defs>
		<clipPath id="SVGID_182_">
			<use xlink:href="#SVGID_181_"  overflow="visible"/>
		</clipPath>
		<path clip-path="url(#SVGID_182_)" fill="#BEC6E5" d="M236.455,79.242c-2.332,0.412-4.97,0.473-6.916,0.473l-0.138-1.041
			c0.669,0,1.438,0,2.231-0.023v-2.295h1.266v2.256c1.164-0.049,2.365-0.125,3.471-0.297L236.455,79.242z M234.186,77.623
			c0.224-1.203,0.261-2.082,0.272-2.781h-4.374v-1.037h5.627v0.645c0,0.756,0,1.859-0.272,3.309L234.186,77.623z M232.376,82.903
			h6.323v1.039h-7.611v-3.32h1.291v2.281H232.376z M239.825,76.508v1.053h-1.486v3.805h-1.288v-8.402h1.288v3.547h1.486V76.508z"/>
	</g>
	<g>
		<defs>
			<rect id="SVGID_183_" y="-23.347" width="437" height="138.257"/>
		</defs>
		<clipPath id="SVGID_184_">
			<use xlink:href="#SVGID_183_"  overflow="visible"/>
		</clipPath>
		<path clip-path="url(#SVGID_184_)" fill="#BEC6E5" d="M245.879,77.596c0.495,0,0.892,0.4,0.892,0.895
			c0,0.496-0.396,0.895-0.892,0.895c-0.496,0-0.893-0.398-0.893-0.895C244.986,77.996,245.383,77.596,245.879,77.596"/>
	</g>
	<g>
		<defs>
			<rect id="SVGID_185_" y="-23.347" width="437" height="138.257"/>
		</defs>
		<clipPath id="SVGID_186_">
			<use xlink:href="#SVGID_185_"  overflow="visible"/>
		</clipPath>
		<path clip-path="url(#SVGID_186_)" fill="#BEC6E5" d="M258.652,78.416c-1.463,0.299-2.789,0.371-5.219,0.371h-0.904V73.77h4.982
			v1.039h-3.706v2.938c2.144-0.012,3.347-0.074,4.71-0.371L258.652,78.416z M260.956,81.948c0,1.375-1.437,2.221-3.73,2.221
			c-2.293,0-3.731-0.846-3.731-2.221c0-1.363,1.438-2.191,3.731-2.191C259.52,79.756,260.956,80.584,260.956,81.948 M259.693,81.948
			c0-0.758-0.916-1.162-2.468-1.162c-1.55,0-2.468,0.406-2.468,1.162s0.918,1.178,2.468,1.178
			C258.777,83.125,259.693,82.703,259.693,81.948 M262.42,75.75v1.053h-1.561v2.729h-1.301v-6.57h1.301v2.789H262.42z"/>
	</g>
	<g>
		<defs>
			<rect id="SVGID_187_" y="-23.347" width="437" height="138.257"/>
		</defs>
		<clipPath id="SVGID_188_">
			<use xlink:href="#SVGID_187_"  overflow="visible"/>
		</clipPath>
		<path clip-path="url(#SVGID_188_)" fill="#BEC6E5" d="M269.143,79.619c-1.289-0.422-2.232-1.291-2.73-2.396
			c-0.492,1.191-1.437,2.145-2.772,2.594l-0.669-0.99c1.771-0.598,2.776-2.047,2.776-3.559V74.86h-2.429v-1.031h6.123v1.031h-2.393
			v0.408c0,1.426,1.018,2.791,2.738,3.346L269.143,79.619z M272.428,82.903v1.039h-7.638v-3.568h1.29v2.529H272.428z
			 M272.105,81.117h-1.278v-8.143h1.278V81.117z"/>
	</g>
	<g>
		<defs>
			<rect id="SVGID_189_" y="-23.347" width="437" height="138.257"/>
		</defs>
		<clipPath id="SVGID_190_">
			<use xlink:href="#SVGID_189_"  overflow="visible"/>
		</clipPath>
		<polygon clip-path="url(#SVGID_190_)" fill="#BEC6E5" points="283.813,81.762 283.813,82.817 273.673,82.817 273.673,81.762 
			278.085,81.762 278.085,79.119 274.912,79.119 274.912,73.805 282.573,73.805 282.573,74.832 276.188,74.832 276.188,78.096 
			282.672,78.096 282.672,79.119 279.361,79.119 279.361,81.762 		"/>
	</g>
	<g>
		<defs>
			<rect id="SVGID_191_" y="-23.347" width="437" height="138.257"/>
		</defs>
		<clipPath id="SVGID_192_">
			<use xlink:href="#SVGID_191_"  overflow="visible"/>
		</clipPath>
		<path clip-path="url(#SVGID_192_)" fill="#BEC6E5" d="M288.514,75.713c0,2.082,1.066,4.115,2.777,4.908l-0.756,1.029
			c-1.268-0.633-2.17-1.859-2.653-3.359c-0.495,1.586-1.414,2.887-2.689,3.547l-0.807-1.02c1.749-0.854,2.839-3.01,2.839-5.105
			v-1.848h1.289V75.713z M293.757,72.938v11.23h-1.289v-6.51h-2.392v-1.039h2.392v-3.682H293.757z"/>
	</g>
	<g>
		<defs>
			<rect id="SVGID_193_" y="-23.347" width="437" height="138.257"/>
		</defs>
		<clipPath id="SVGID_194_">
			<use xlink:href="#SVGID_193_"  overflow="visible"/>
		</clipPath>
		<path clip-path="url(#SVGID_194_)" fill="#BEC6E5" d="M302.18,79.242c-2.332,0.412-4.971,0.473-6.918,0.473l-0.135-1.041
			c0.668,0,1.438,0,2.23-0.023v-2.295h1.266v2.256c1.163-0.049,2.365-0.125,3.471-0.297L302.18,79.242z M299.91,77.623
			c0.223-1.203,0.26-2.082,0.272-2.781h-4.373v-1.037h5.625v0.645c0,0.756,0,1.859-0.271,3.309L299.91,77.623z M298.101,82.903
			h6.323v1.039h-7.612v-3.32h1.291v2.281H298.101z M305.55,76.508v1.053h-1.486v3.805h-1.288v-8.402h1.288v3.547h1.486V76.508z"/>
	</g>
	<g>
		<defs>
			<rect id="SVGID_195_" y="-23.347" width="437" height="138.257"/>
		</defs>
		<clipPath id="SVGID_196_">
			<use xlink:href="#SVGID_195_"  overflow="visible"/>
		</clipPath>
		<path clip-path="url(#SVGID_196_)" fill="#BEC6E5" d="M311.602,77.596c0.496,0,0.894,0.4,0.894,0.895
			c0,0.496-0.397,0.895-0.894,0.895c-0.493,0-0.891-0.398-0.891-0.895C310.711,77.996,311.108,77.596,311.602,77.596"/>
	</g>
	<g>
		<defs>
			<rect id="SVGID_197_" y="-23.347" width="437" height="138.257"/>
		</defs>
		<clipPath id="SVGID_198_">
			<use xlink:href="#SVGID_197_"  overflow="visible"/>
		</clipPath>
		<path clip-path="url(#SVGID_198_)" fill="#BEC6E5" d="M327.958,77.584v1.041h-10.14v-1.041h7.314
			c0.286-1.25,0.31-2.193,0.31-3.037h-6.345v-1.041h7.598v0.871c0,0.879,0,1.869-0.286,3.207H327.958z M319.047,79.977h7.648v4.043
			h-7.648V79.977z M320.299,83.002h5.144v-2.008h-5.144V83.002z"/>
	</g>
	<g>
		<defs>
			<rect id="SVGID_199_" y="-23.347" width="437" height="138.257"/>
		</defs>
		<clipPath id="SVGID_200_">
			<use xlink:href="#SVGID_199_"  overflow="visible"/>
		</clipPath>
		<path clip-path="url(#SVGID_200_)" fill="#BEC6E5" d="M334.559,79.457c-1.24-0.434-2.147-1.326-2.643-2.42
			c-0.482,1.229-1.413,2.184-2.726,2.656l-0.695-0.99c1.797-0.607,2.751-2.121,2.751-3.758v-1.301h1.289v1.311
			c0,1.492,0.967,2.904,2.666,3.486L334.559,79.457z M331.558,82.903h6.235v1.039h-7.511v-3.529h1.275V82.903z M338.934,76.309
			v1.053h-1.587v3.846h-1.278v-8.26h1.278v3.361H338.934z"/>
	</g>
	<g>
		<defs>
			<rect id="SVGID_201_" y="-23.347" width="437" height="138.257"/>
		</defs>
		<clipPath id="SVGID_202_">
			<use xlink:href="#SVGID_201_"  overflow="visible"/>
		</clipPath>
		<polygon clip-path="url(#SVGID_202_)" fill="#BEC6E5" points="349.537,81.762 349.537,82.817 339.397,82.817 339.397,81.762 
			343.81,81.762 343.81,79.119 340.635,79.119 340.635,73.805 348.297,73.805 348.297,74.832 341.913,74.832 341.913,78.096 
			348.396,78.096 348.396,79.119 345.087,79.119 345.087,81.762 		"/>
	</g>
	<g>
		<defs>
			<rect id="SVGID_203_" y="-23.347" width="437" height="138.257"/>
		</defs>
		<clipPath id="SVGID_204_">
			<use xlink:href="#SVGID_203_"  overflow="visible"/>
		</clipPath>
		<path clip-path="url(#SVGID_204_)" fill="#BEC6E5" d="M354.241,75.713c0,2.082,1.064,4.115,2.774,4.908l-0.755,1.029
			c-1.265-0.633-2.17-1.859-2.654-3.359c-0.495,1.586-1.412,2.887-2.689,3.547l-0.805-1.02c1.749-0.854,2.838-3.01,2.838-5.105
			v-1.848h1.291V75.713z M359.481,72.938v11.23h-1.29v-6.51H355.8v-1.039h2.392v-3.682H359.481z"/>
	</g>
	<g>
		<defs>
			<rect id="SVGID_205_" y="-23.347" width="437" height="138.257"/>
		</defs>
		<clipPath id="SVGID_206_">
			<use xlink:href="#SVGID_205_"  overflow="visible"/>
		</clipPath>
		<path clip-path="url(#SVGID_206_)" fill="#BEC6E5" d="M367.904,79.242c-2.333,0.412-4.973,0.473-6.919,0.473l-0.136-1.041
			c0.67,0,1.439,0,2.232-0.023v-2.295h1.264v2.256c1.164-0.049,2.367-0.125,3.472-0.297L367.904,79.242z M365.634,77.623
			c0.224-1.203,0.259-2.082,0.273-2.781h-4.373v-1.037h5.627v0.645c0,0.756,0,1.859-0.274,3.309L365.634,77.623z M363.825,82.903
			h6.323v1.039h-7.611v-3.32h1.29v2.281H363.825z M371.275,76.508v1.053h-1.486v3.805H368.5v-8.402h1.289v3.547h1.486V76.508z"/>
	</g>
	<g>
		<defs>
			<rect id="SVGID_207_" y="-23.347" width="437" height="138.257"/>
		</defs>
		<clipPath id="SVGID_208_">
			<use xlink:href="#SVGID_207_"  overflow="visible"/>
		</clipPath>
		<path clip-path="url(#SVGID_208_)" fill="#BEC6E5" d="M377.33,77.596c0.495,0,0.891,0.4,0.891,0.895
			c0,0.496-0.396,0.895-0.891,0.895c-0.496,0-0.894-0.398-0.894-0.895C376.437,77.996,376.831,77.596,377.33,77.596"/>
	</g>
	<g>
		<defs>
			<rect id="SVGID_209_" y="-23.347" width="437" height="138.257"/>
		</defs>
		<clipPath id="SVGID_210_">
			<use xlink:href="#SVGID_209_"  overflow="visible"/>
		</clipPath>
		<path clip-path="url(#SVGID_210_)" fill="#BEC6E5" d="M393.686,80.537h-4.477v3.631h-1.275v-3.631h-4.401v-1.029h10.153V80.537z
			 M392.433,78.293h-7.671v-4.898h1.275v1.414h5.12v-1.414h1.278v4.898H392.433z M391.155,75.838h-5.12v1.426h5.12V75.838z"/>
	</g>
	<g>
		<defs>
			<rect id="SVGID_211_" y="-23.347" width="437" height="138.257"/>
		</defs>
		<clipPath id="SVGID_212_">
			<use xlink:href="#SVGID_211_"  overflow="visible"/>
		</clipPath>
		<path clip-path="url(#SVGID_212_)" fill="#BEC6E5" d="M403.63,72.948V84.18h-1.29v-4.25h-2.577
			c-0.474,1.104-1.353,1.746-2.42,1.746c-1.648,0-2.825-1.525-2.825-3.955c0-2.402,1.177-3.939,2.825-3.939
			c1.018,0,1.849,0.582,2.357,1.588h2.64v-2.42h1.29V72.948z M398.971,77.721c0-1.732-0.659-2.787-1.628-2.787
			c-0.952,0-1.622,1.053-1.622,2.787c0,1.76,0.67,2.816,1.622,2.816C398.312,80.537,398.971,79.481,398.971,77.721 M402.34,78.871
			v-2.453h-2.296c0.09,0.41,0.139,0.834,0.139,1.301c0,0.422-0.037,0.793-0.099,1.152H402.34z"/>
	</g>
	<g>
		<defs>
			<rect id="SVGID_213_" y="-23.347" width="437" height="138.257"/>
		</defs>
		<clipPath id="SVGID_214_">
			<use xlink:href="#SVGID_213_"  overflow="visible"/>
		</clipPath>
		<polygon clip-path="url(#SVGID_214_)" fill="#BEC6E5" points="415.262,81.762 415.262,82.817 405.123,82.817 405.123,81.762 
			409.534,81.762 409.534,79.119 406.359,79.119 406.359,73.805 414.021,73.805 414.021,74.832 407.639,74.832 407.639,78.096 
			414.122,78.096 414.122,79.119 410.812,79.119 410.812,81.762 		"/>
	</g>
	<g>
		<defs>
			<rect id="SVGID_215_" y="-23.347" width="437" height="138.257"/>
		</defs>
		<clipPath id="SVGID_216_">
			<use xlink:href="#SVGID_215_"  overflow="visible"/>
		</clipPath>
		<path clip-path="url(#SVGID_216_)" fill="#BEC6E5" d="M419.964,75.713c0,2.082,1.066,4.115,2.777,4.908l-0.757,1.029
			c-1.266-0.633-2.169-1.859-2.652-3.359c-0.496,1.586-1.413,2.887-2.69,3.547l-0.805-1.02c1.747-0.854,2.837-3.01,2.837-5.105
			v-1.848h1.29V75.713z M425.206,72.938v11.23h-1.288v-6.51h-2.394v-1.039h2.394v-3.682H425.206z"/>
	</g>
	<g>
		<defs>
			<rect id="SVGID_217_" y="-23.347" width="437" height="138.257"/>
		</defs>
		<clipPath id="SVGID_218_">
			<use xlink:href="#SVGID_217_"  overflow="visible"/>
		</clipPath>
		<path clip-path="url(#SVGID_218_)" fill="#BEC6E5" d="M433.629,79.242c-2.331,0.412-4.969,0.473-6.916,0.473l-0.137-1.041
			c0.67,0,1.438,0,2.231-0.023v-2.295h1.265v2.256c1.165-0.049,2.365-0.125,3.472-0.297L433.629,79.242z M431.359,77.623
			c0.223-1.203,0.262-2.082,0.273-2.781h-4.374v-1.037h5.627v0.645c0,0.756,0,1.859-0.272,3.309L431.359,77.623z M429.551,82.903
			h6.322v1.039h-7.61v-3.32h1.291v2.281H429.551z M437,76.508v1.053h-1.486v3.805h-1.289v-8.402h1.289v3.547H437V76.508z"/>
	</g>
	<g>
		<defs>
			<rect id="SVGID_219_" y="-23.347" width="437" height="138.257"/>
		</defs>
		<clipPath id="SVGID_220_">
			<use xlink:href="#SVGID_219_"  overflow="visible"/>
		</clipPath>
		<path clip-path="url(#SVGID_220_)" fill="#BEC6E5" d="M124.698,95.951c0,2.082,1.064,4.113,2.776,4.908l-0.756,1.029
			c-1.265-0.631-2.168-1.857-2.653-3.359c-0.495,1.588-1.412,2.891-2.689,3.545l-0.806-1.014c1.748-0.854,2.838-3.014,2.838-5.109
			v-1.846h1.29V95.951z M129.942,93.178v11.229h-1.29v-6.508h-2.392v-1.041h2.392v-3.68H129.942z"/>
	</g>
	<g>
		<defs>
			<rect id="SVGID_221_" y="-23.347" width="437" height="138.257"/>
		</defs>
		<clipPath id="SVGID_222_">
			<use xlink:href="#SVGID_221_"  overflow="visible"/>
		</clipPath>
		<path clip-path="url(#SVGID_222_)" fill="#BEC6E5" d="M137.471,100.065c-1.266-0.395-2.208-1.211-2.703-2.268
			c-0.496,1.141-1.425,2.037-2.727,2.471l-0.633-0.994c1.723-0.582,2.691-1.943,2.691-3.424v-0.209h-2.355v-1.029h2.355V93.26h1.288
			v1.352h2.343v1.029h-2.355v0.209c0,1.379,0.992,2.678,2.715,3.213L137.471,100.065z M140.99,103.143v1.041h-7.537v-3.371h1.278
			v2.33H140.99z M139.429,96.561v-3.35h1.278v8.318h-1.278v-3.918h-2.058v-1.051H139.429z"/>
	</g>
	<g>
		<defs>
			<rect id="SVGID_223_" y="-23.347" width="437" height="138.257"/>
		</defs>
		<clipPath id="SVGID_224_">
			<use xlink:href="#SVGID_223_"  overflow="visible"/>
		</clipPath>
		<polygon clip-path="url(#SVGID_224_)" fill="#BEC6E5" points="152.361,102 152.361,103.053 142.222,103.053 142.222,102 
			146.635,102 146.635,99.362 143.46,99.362 143.46,94.045 151.122,94.045 151.122,95.073 144.738,95.073 144.738,98.332 
			151.222,98.332 151.222,99.362 147.914,99.362 147.914,102 		"/>
	</g>
	<g>
		<defs>
			<rect id="SVGID_225_" y="-23.347" width="437" height="138.257"/>
		</defs>
		<clipPath id="SVGID_226_">
			<use xlink:href="#SVGID_225_"  overflow="visible"/>
		</clipPath>
		<path clip-path="url(#SVGID_226_)" fill="#BEC6E5" d="M157.064,95.951c0,2.082,1.065,4.113,2.776,4.908l-0.757,1.029
			c-1.266-0.631-2.168-1.857-2.652-3.359c-0.496,1.588-1.412,2.891-2.689,3.545l-0.807-1.014c1.748-0.854,2.839-3.014,2.839-5.109
			v-1.846h1.29V95.951z M162.307,93.178v11.229h-1.289v-6.508h-2.393v-1.041h2.393v-3.68H162.307z"/>
	</g>
	<g>
		<defs>
			<rect id="SVGID_227_" y="-23.347" width="437" height="138.257"/>
		</defs>
		<clipPath id="SVGID_228_">
			<use xlink:href="#SVGID_227_"  overflow="visible"/>
		</clipPath>
		<path clip-path="url(#SVGID_228_)" fill="#BEC6E5" d="M170.73,99.485c-2.332,0.41-4.971,0.475-6.918,0.475l-0.135-1.043
			c0.668,0,1.438,0,2.23-0.025v-2.293h1.264v2.256c1.165-0.049,2.367-0.123,3.472-0.297L170.73,99.485z M168.461,97.86
			c0.224-1.201,0.26-2.082,0.271-2.775h-4.373v-1.039h5.625v0.643c0,0.758,0,1.859-0.271,3.311L168.461,97.86z M166.65,103.143
			h6.322v1.041h-7.609v-3.324h1.287V103.143L166.65,103.143z M174.101,96.746v1.051h-1.485v3.807h-1.291v-8.404h1.291v3.547H174.101
			z"/>
	</g>
	<g>
		<defs>
			<rect id="SVGID_229_" y="-23.347" width="437" height="138.257"/>
		</defs>
		<clipPath id="SVGID_230_">
			<use xlink:href="#SVGID_229_"  overflow="visible"/>
		</clipPath>
		<path clip-path="url(#SVGID_230_)" fill="#BEC6E5" d="M180.154,97.836c0.496,0,0.893,0.396,0.893,0.895
			c0,0.496-0.396,0.891-0.893,0.891s-0.893-0.395-0.893-0.891C179.262,98.233,179.657,97.836,180.154,97.836"/>
	</g>
	<g>
		<defs>
			<rect id="SVGID_231_" y="-23.347" width="437" height="138.257"/>
		</defs>
		<clipPath id="SVGID_232_">
			<use xlink:href="#SVGID_231_"  overflow="visible"/>
		</clipPath>
		<path clip-path="url(#SVGID_232_)" fill="#BEC6E5" d="M192.445,99.547c-1.277-0.359-2.22-1.141-2.729-2.121
			c-0.495,1.119-1.438,1.998-2.752,2.408l-0.619-0.994c1.723-0.531,2.689-1.857,2.689-3.258v-0.1h-2.355v-1.016h2.355v-1.326h1.289
			v1.326h2.344v1.016h-2.355v0.1c0,1.277,1.016,2.492,2.727,2.988L192.445,99.547z M195.691,102.299c0,1.314-1.438,2.094-3.78,2.094
			s-3.768-0.779-3.768-2.094c0-1.313,1.425-2.082,3.768-2.082C194.253,100.217,195.691,100.987,195.691,102.299 M194.412,102.299
			c0-0.707-0.902-1.094-2.502-1.094c-1.588,0-2.491,0.387-2.491,1.094s0.903,1.102,2.491,1.102
			C193.512,103.401,194.412,103.006,194.412,102.299 M194.366,96.287v-3.1h1.277v6.781h-1.277V97.34h-2.021v-1.053H194.366z"/>
	</g>
	<g>
		<defs>
			<rect id="SVGID_233_" y="-23.347" width="437" height="138.257"/>
		</defs>
		<clipPath id="SVGID_234_">
			<use xlink:href="#SVGID_233_"  overflow="visible"/>
		</clipPath>
		<path clip-path="url(#SVGID_234_)" fill="#BEC6E5" d="M200.269,99.186c-1.698,0-2.975-1.102-2.975-2.676s1.276-2.664,2.975-2.664
			c1.711,0,2.987,1.09,2.987,2.664S201.979,99.186,200.269,99.186 M200.269,98.108c1.004,0,1.736-0.619,1.736-1.598
			c0-0.969-0.732-1.6-1.736-1.6c-0.991,0-1.724,0.631-1.724,1.6C198.546,97.487,199.278,98.108,200.269,98.108 M206.02,102.248
			c0,1.34-1.425,2.145-3.73,2.145c-2.292,0-3.73-0.805-3.73-2.145c0-1.35,1.438-2.156,3.73-2.156
			C204.596,100.092,206.02,100.899,206.02,102.248 M204.758,102.248c0-0.742-0.904-1.139-2.467-1.139s-2.467,0.396-2.467,1.139
			c0,0.732,0.904,1.131,2.467,1.131C203.852,103.379,204.758,102.981,204.758,102.248 M205.896,95.778v1.365h1.549v1.055h-1.549
			v1.586h-1.277V93.19h1.277v1.535h1.549v1.053H205.896z"/>
	</g>
	<g>
		<defs>
			<rect id="SVGID_235_" y="-23.347" width="437" height="138.257"/>
		</defs>
		<clipPath id="SVGID_236_">
			<use xlink:href="#SVGID_235_"  overflow="visible"/>
		</clipPath>
		<polygon clip-path="url(#SVGID_236_)" fill="#BEC6E5" points="218.088,102 218.088,103.053 207.947,103.053 207.947,102 
			212.361,102 212.361,99.362 209.187,99.362 209.187,94.045 216.846,94.045 216.846,95.073 210.463,95.073 210.463,98.332 
			216.948,98.332 216.948,99.362 213.637,99.362 213.637,102 		"/>
	</g>
	<g>
		<defs>
			<rect id="SVGID_237_" y="-23.347" width="437" height="138.257"/>
		</defs>
		<clipPath id="SVGID_238_">
			<use xlink:href="#SVGID_237_"  overflow="visible"/>
		</clipPath>
		<path clip-path="url(#SVGID_238_)" fill="#BEC6E5" d="M222.789,95.951c0,2.082,1.066,4.113,2.777,4.908l-0.757,1.029
			c-1.265-0.631-2.169-1.857-2.652-3.359c-0.495,1.588-1.413,2.891-2.69,3.545l-0.805-1.014c1.749-0.854,2.838-3.014,2.838-5.109
			v-1.846h1.289V95.951z M228.031,93.178v11.229h-1.288v-6.508h-2.392v-1.041h2.392v-3.68H228.031z"/>
	</g>
	<g>
		<defs>
			<rect id="SVGID_239_" y="-23.347" width="437" height="138.257"/>
		</defs>
		<clipPath id="SVGID_240_">
			<use xlink:href="#SVGID_239_"  overflow="visible"/>
		</clipPath>
		<path clip-path="url(#SVGID_240_)" fill="#BEC6E5" d="M236.455,99.485c-2.332,0.41-4.97,0.475-6.916,0.475l-0.138-1.043
			c0.669,0,1.438,0,2.231-0.025v-2.293h1.266v2.256c1.164-0.049,2.365-0.123,3.471-0.297L236.455,99.485z M234.186,97.86
			c0.224-1.201,0.261-2.082,0.272-2.775h-4.374v-1.039h5.627v0.643c0,0.758,0,1.859-0.272,3.311L234.186,97.86z M232.376,103.143
			h6.323v1.041h-7.611v-3.324h1.291v2.283H232.376z M239.825,96.746v1.051h-1.486v3.807h-1.288v-8.404h1.288v3.547H239.825z"/>
	</g>
	<g>
		<defs>
			<rect id="SVGID_241_" y="-23.347" width="437" height="138.257"/>
		</defs>
		<clipPath id="SVGID_242_">
			<use xlink:href="#SVGID_241_"  overflow="visible"/>
		</clipPath>
		<path clip-path="url(#SVGID_242_)" fill="#BEC6E5" d="M245.879,97.836c0.495,0,0.892,0.396,0.892,0.895
			c0,0.496-0.396,0.891-0.892,0.891c-0.496,0-0.893-0.395-0.893-0.891C244.986,98.233,245.383,97.836,245.879,97.836"/>
	</g>
	<g>
		<defs>
			<rect id="SVGID_243_" y="-23.347" width="437" height="138.257"/>
		</defs>
		<clipPath id="SVGID_244_">
			<use xlink:href="#SVGID_243_"  overflow="visible"/>
		</clipPath>
		<path clip-path="url(#SVGID_244_)" fill="#BEC6E5" d="M262.209,99.362v1.002h-10.127v-1.002h4.426v-0.73
			c-1.959-0.1-3.039-0.631-3.039-1.588c0-1.066,1.314-1.609,3.684-1.609c2.355,0,3.668,0.543,3.668,1.609
			c0,0.957-1.079,1.486-3.023,1.588v0.73H262.209z M261.65,95.059h-9.061V94.08h3.918v-1.016h1.289v1.016h3.854V95.059z
			 M260.982,102.67c0,1.129-1.4,1.723-3.854,1.723c-2.442,0-3.857-0.594-3.857-1.723c0-1.127,1.415-1.723,3.857-1.723
			C259.582,100.948,260.982,101.543,260.982,102.67 M259.682,102.67c0-0.535-0.867-0.793-2.553-0.793
			c-1.673,0-2.543,0.26-2.543,0.793s0.87,0.793,2.543,0.793C258.813,103.463,259.682,103.203,259.682,102.67 M257.152,97.776
			c1.512,0,2.317-0.248,2.317-0.732c0-0.496-0.806-0.719-2.317-0.719c-1.525,0-2.318,0.223-2.318,0.719
			C254.834,97.528,255.627,97.776,257.152,97.776"/>
	</g>
	<g>
		<defs>
			<rect id="SVGID_245_" y="-23.347" width="437" height="138.257"/>
		</defs>
		<clipPath id="SVGID_246_">
			<use xlink:href="#SVGID_245_"  overflow="visible"/>
		</clipPath>
		<path clip-path="url(#SVGID_246_)" fill="#BEC6E5" d="M268.846,99.35c-1.204-0.434-2.07-1.277-2.555-2.369
			c-0.496,1.24-1.436,2.221-2.789,2.703l-0.668-1.029c1.797-0.607,2.775-2.119,2.775-3.756v-1.102h1.291v1.041
			c0,1.547,0.929,2.949,2.626,3.506L268.846,99.35z M272.204,102.248c0,1.354-1.438,2.145-3.78,2.145c-2.33,0-3.77-0.791-3.77-2.145
			c0-1.35,1.439-2.145,3.77-2.145C270.766,100.104,272.204,100.899,272.204,102.248 M270.928,102.248
			c0-0.73-0.918-1.139-2.504-1.139c-1.587,0-2.49,0.408-2.49,1.139c0,0.732,0.904,1.143,2.49,1.143S270.928,102.981,270.928,102.248
			 M270.88,96.475h-2.271v-1.041h2.271V93.19h1.276v6.607h-1.276V96.475z"/>
	</g>
	<g>
		<defs>
			<rect id="SVGID_247_" y="-23.347" width="437" height="138.257"/>
		</defs>
		<clipPath id="SVGID_248_">
			<use xlink:href="#SVGID_247_"  overflow="visible"/>
		</clipPath>
		<polygon clip-path="url(#SVGID_248_)" fill="#BEC6E5" points="283.813,102 283.813,103.053 273.673,103.053 273.673,102 
			278.085,102 278.085,99.362 274.912,99.362 274.912,94.045 282.573,94.045 282.573,95.073 276.188,95.073 276.188,98.332 
			282.672,98.332 282.672,99.362 279.361,99.362 279.361,102 		"/>
	</g>
	<g>
		<defs>
			<rect id="SVGID_249_" y="-23.347" width="437" height="138.257"/>
		</defs>
		<clipPath id="SVGID_250_">
			<use xlink:href="#SVGID_249_"  overflow="visible"/>
		</clipPath>
		<path clip-path="url(#SVGID_250_)" fill="#BEC6E5" d="M288.514,95.951c0,2.082,1.066,4.113,2.777,4.908l-0.756,1.029
			c-1.268-0.631-2.17-1.857-2.653-3.359c-0.495,1.588-1.414,2.891-2.689,3.545l-0.807-1.014c1.749-0.854,2.839-3.014,2.839-5.109
			v-1.846h1.289V95.951z M293.757,93.178v11.229h-1.289v-6.508h-2.392v-1.041h2.392v-3.68H293.757z"/>
	</g>
	<g>
		<defs>
			<rect id="SVGID_251_" y="-23.347" width="437" height="138.257"/>
		</defs>
		<clipPath id="SVGID_252_">
			<use xlink:href="#SVGID_251_"  overflow="visible"/>
		</clipPath>
		<path clip-path="url(#SVGID_252_)" fill="#BEC6E5" d="M302.18,99.485c-2.332,0.41-4.971,0.475-6.918,0.475l-0.135-1.043
			c0.668,0,1.438,0,2.23-0.025v-2.293h1.266v2.256c1.163-0.049,2.365-0.123,3.471-0.297L302.18,99.485z M299.91,97.86
			c0.223-1.201,0.26-2.082,0.272-2.775h-4.373v-1.039h5.625v0.643c0,0.758,0,1.859-0.271,3.311L299.91,97.86z M298.101,103.143
			h6.323v1.041h-7.612v-3.324h1.291v2.283H298.101z M305.55,96.746v1.051h-1.486v3.807h-1.288v-8.404h1.288v3.547H305.55z"/>
	</g>
	<g>
		<defs>
			<rect id="SVGID_253_" y="-23.347" width="437" height="138.257"/>
		</defs>
		<clipPath id="SVGID_254_">
			<use xlink:href="#SVGID_253_"  overflow="visible"/>
		</clipPath>
		<path clip-path="url(#SVGID_254_)" fill="#BEC6E5" d="M311.602,97.836c0.496,0,0.894,0.396,0.894,0.895
			c0,0.496-0.397,0.891-0.894,0.891c-0.493,0-0.891-0.395-0.891-0.891C310.711,98.233,311.108,97.836,311.602,97.836"/>
	</g>
	<g>
		<defs>
			<rect id="SVGID_255_" y="-23.347" width="437" height="138.257"/>
		</defs>
		<clipPath id="SVGID_256_">
			<use xlink:href="#SVGID_255_"  overflow="visible"/>
		</clipPath>
		<path clip-path="url(#SVGID_256_)" fill="#BEC6E5" d="M323.942,93.41h1.19v10.451h-1.19v-3.582h-1.538
			c-0.396,1.09-1.126,1.732-2.07,1.732c-1.45,0-2.403-1.51-2.403-3.967c0-2.467,0.953-3.979,2.403-3.979
			c0.933,0,1.674,0.619,2.059,1.723h1.549L323.942,93.41L323.942,93.41z M321.588,98.047c0-1.773-0.482-2.775-1.251-2.775
			c-0.77,0-1.253,1.002-1.253,2.775c0,1.771,0.483,2.766,1.253,2.766C321.105,100.813,321.588,99.817,321.588,98.047
			 M323.942,99.239v-2.393h-1.29c0.062,0.371,0.089,0.768,0.089,1.201c0,0.432-0.027,0.818-0.089,1.191H323.942z M327.377,104.381
			h-1.215v-11.18h1.215V104.381z"/>
	</g>
	<g>
		<defs>
			<rect id="SVGID_257_" y="-23.347" width="437" height="138.257"/>
		</defs>
		<clipPath id="SVGID_258_">
			<use xlink:href="#SVGID_257_"  overflow="visible"/>
		</clipPath>
		<path clip-path="url(#SVGID_258_)" fill="#BEC6E5" d="M334.559,99.694c-1.24-0.432-2.147-1.324-2.643-2.416
			c-0.482,1.229-1.413,2.184-2.726,2.652l-0.695-0.992c1.797-0.605,2.751-2.119,2.751-3.756v-1.301h1.289v1.314
			c0,1.488,0.967,2.9,2.666,3.484L334.559,99.694z M331.558,103.143h6.235v1.041h-7.511v-3.533h1.275V103.143z M338.934,96.547
			v1.055h-1.587v3.842h-1.278V93.19h1.278v3.357H338.934L338.934,96.547z"/>
	</g>
	<g>
		<defs>
			<rect id="SVGID_259_" y="-23.347" width="437" height="138.257"/>
		</defs>
		<clipPath id="SVGID_260_">
			<use xlink:href="#SVGID_259_"  overflow="visible"/>
		</clipPath>
		<polygon clip-path="url(#SVGID_260_)" fill="#BEC6E5" points="349.537,102 349.537,103.053 339.397,103.053 339.397,102 
			343.81,102 343.81,99.362 340.635,99.362 340.635,94.045 348.297,94.045 348.297,95.073 341.913,95.073 341.913,98.332 
			348.396,98.332 348.396,99.362 345.087,99.362 345.087,102 		"/>
	</g>
	<g>
		<defs>
			<rect id="SVGID_261_" y="-23.347" width="437" height="138.257"/>
		</defs>
		<clipPath id="SVGID_262_">
			<use xlink:href="#SVGID_261_"  overflow="visible"/>
		</clipPath>
		<path clip-path="url(#SVGID_262_)" fill="#BEC6E5" d="M354.241,95.951c0,2.082,1.064,4.113,2.774,4.908l-0.755,1.029
			c-1.265-0.631-2.17-1.857-2.654-3.359c-0.495,1.588-1.412,2.891-2.689,3.545l-0.805-1.014c1.749-0.854,2.838-3.014,2.838-5.109
			v-1.846h1.291V95.951z M359.481,93.178v11.229h-1.29v-6.508H355.8v-1.041h2.392v-3.68H359.481z"/>
	</g>
	<g>
		<defs>
			<rect id="SVGID_263_" y="-23.347" width="437" height="138.257"/>
		</defs>
		<clipPath id="SVGID_264_">
			<use xlink:href="#SVGID_263_"  overflow="visible"/>
		</clipPath>
		<path clip-path="url(#SVGID_264_)" fill="#BEC6E5" d="M367.904,99.485c-2.333,0.41-4.973,0.475-6.919,0.475l-0.136-1.043
			c0.67,0,1.439,0,2.232-0.025v-2.293h1.264v2.256c1.164-0.049,2.367-0.123,3.472-0.297L367.904,99.485z M365.634,97.86
			c0.224-1.201,0.259-2.082,0.273-2.775h-4.373v-1.039h5.627v0.643c0,0.758,0,1.859-0.274,3.311L365.634,97.86z M363.825,103.143
			h6.323v1.041h-7.611v-3.324h1.29v2.283H363.825z M371.275,96.746v1.051h-1.486v3.807H368.5v-8.404h1.289v3.547H371.275z"/>
	</g>
	<g>
		<defs>
			<rect id="SVGID_265_" y="-23.347" width="437" height="138.257"/>
		</defs>
		<clipPath id="SVGID_266_">
			<use xlink:href="#SVGID_265_"  overflow="visible"/>
		</clipPath>
		<path clip-path="url(#SVGID_266_)" fill="#BEC6E5" d="M377.33,97.836c0.495,0,0.891,0.396,0.891,0.895
			c0,0.496-0.396,0.891-0.891,0.891c-0.496,0-0.894-0.395-0.894-0.891C376.437,98.233,376.831,97.836,377.33,97.836"/>
	</g>
	<g>
		<defs>
			<rect id="SVGID_267_" y="-23.347" width="437" height="138.257"/>
		</defs>
		<clipPath id="SVGID_268_">
			<use xlink:href="#SVGID_267_"  overflow="visible"/>
		</clipPath>
		<path clip-path="url(#SVGID_268_)" fill="#BEC6E5" d="M385.169,100.662c1.438-0.012,2.406-0.063,3.545-0.26l0.111,1.039
			c-1.288,0.236-2.38,0.275-4.129,0.275h-0.755v-7.291h4.463v1.031h-3.235v1.92h3.037v1.006h-3.037V100.662z M393.102,93.201v11.18
			h-1.215v-5.713h-1.252v5.193h-1.189V93.41h1.189v4.215h1.252v-4.426h1.215V93.201z"/>
	</g>
	<g>
		<defs>
			<rect id="SVGID_269_" y="-23.347" width="437" height="138.257"/>
		</defs>
		<clipPath id="SVGID_270_">
			<use xlink:href="#SVGID_269_"  overflow="visible"/>
		</clipPath>
		<path clip-path="url(#SVGID_270_)" fill="#BEC6E5" d="M397.444,99.547c-1.688,0-2.976-1.164-2.976-2.801s1.287-2.791,2.976-2.791
			c1.697,0,2.989,1.154,2.989,2.791S399.142,99.547,397.444,99.547 M397.444,98.444c0.978,0,1.735-0.668,1.735-1.697
			c0-1.02-0.758-1.688-1.735-1.688s-1.724,0.668-1.724,1.688C395.721,97.776,396.464,98.444,397.444,98.444 M397.271,103.143h6.247
			v1.041h-7.535v-3.619h1.288V103.143L397.271,103.143z M404.658,96.522v1.055h-1.588v3.828h-1.277v-8.205h1.277v3.32h1.588V96.522z
			"/>
	</g>
	<g>
		<defs>
			<rect id="SVGID_271_" y="-23.347" width="437" height="138.257"/>
		</defs>
		<clipPath id="SVGID_272_">
			<use xlink:href="#SVGID_271_"  overflow="visible"/>
		</clipPath>
		<polygon clip-path="url(#SVGID_272_)" fill="#BEC6E5" points="415.262,102 415.262,103.053 405.123,103.053 405.123,102 
			409.534,102 409.534,99.362 406.359,99.362 406.359,94.045 414.021,94.045 414.021,95.073 407.639,95.073 407.639,98.332 
			414.122,98.332 414.122,99.362 410.812,99.362 410.812,102 		"/>
	</g>
	<g>
		<defs>
			<rect id="SVGID_273_" y="-23.347" width="437" height="138.257"/>
		</defs>
		<clipPath id="SVGID_274_">
			<use xlink:href="#SVGID_273_"  overflow="visible"/>
		</clipPath>
		<path clip-path="url(#SVGID_274_)" fill="#BEC6E5" d="M419.964,95.951c0,2.082,1.066,4.113,2.777,4.908l-0.757,1.029
			c-1.266-0.631-2.169-1.857-2.652-3.359c-0.496,1.588-1.413,2.891-2.69,3.545l-0.805-1.014c1.747-0.854,2.837-3.014,2.837-5.109
			v-1.846h1.29V95.951z M425.206,93.178v11.229h-1.288v-6.508h-2.394v-1.041h2.394v-3.68H425.206z"/>
	</g>
	<g>
		<defs>
			<rect id="SVGID_275_" y="-23.347" width="437" height="138.257"/>
		</defs>
		<clipPath id="SVGID_276_">
			<use xlink:href="#SVGID_275_"  overflow="visible"/>
		</clipPath>
		<path clip-path="url(#SVGID_276_)" fill="#BEC6E5" d="M433.629,99.485c-2.331,0.41-4.969,0.475-6.916,0.475l-0.137-1.043
			c0.67,0,1.438,0,2.231-0.025v-2.293h1.265v2.256c1.165-0.049,2.365-0.123,3.472-0.297L433.629,99.485z M431.359,97.86
			c0.223-1.201,0.262-2.082,0.273-2.775h-4.374v-1.039h5.627v0.643c0,0.758,0,1.859-0.272,3.311L431.359,97.86z M429.551,103.143
			h6.322v1.041h-7.61v-3.324h1.291v2.283H429.551z M437,96.746v1.051h-1.486v3.807h-1.289v-8.404h1.289v3.547H437z"/>
	</g>
	<g>
		<defs>
			<rect id="SVGID_277_" y="-23.347" width="437" height="138.257"/>
		</defs>
		<clipPath id="SVGID_278_">
			<use xlink:href="#SVGID_277_"  overflow="visible"/>
		</clipPath>
		<rect y="41.689" clip-path="url(#SVGID_278_)" fill="#BEC6E5" width="110.611" height="1.51"/>
	</g>
	<g>
		<defs>
			<rect id="SVGID_279_" y="-23.347" width="437" height="138.257"/>
		</defs>
		<clipPath id="SVGID_280_">
			<use xlink:href="#SVGID_279_"  overflow="visible"/>
		</clipPath>
		<rect y="-23.347" clip-path="url(#SVGID_280_)" fill="#BEC6E5" width="110.611" height="1.51"/>
	</g>
	<g>
		<defs>
			<rect id="SVGID_281_" y="-23.347" width="437" height="138.257"/>
		</defs>
		<clipPath id="SVGID_282_">
			<use xlink:href="#SVGID_281_"  overflow="visible"/>
		</clipPath>
		<rect y="113.399" clip-path="url(#SVGID_282_)" fill="#BEC6E5" width="110.611" height="1.512"/>
	</g>
</g>
</svg>
