<?xml version="1.0" encoding="utf-8"?>
<!-- Generator: Adobe Illustrator 16.0.0, SVG Export Plug-In . SVG Version: 6.00 Build 0)  -->
<!DOCTYPE svg PUBLIC "-//W3C//DTD SVG 1.1//EN" "http://www.w3.org/Graphics/SVG/1.1/DTD/svg11.dtd">
<svg version="1.1" id="Layer_1" xmlns="http://www.w3.org/2000/svg" xmlns:xlink="http://www.w3.org/1999/xlink" x="0px" y="0px"
	 width="139.665px" height="30.941px" viewBox="0 0 139.665 30.941" enable-background="new 0 0 139.665 30.941"
	 xml:space="preserve">
<g>
	<path fill="#FFFFFF" d="M21.399,1.341c-0.622-1.34-2.595-1.744-4.408-0.902c-1.817,0.84-2.783,2.609-2.164,3.947
		c0.621,1.338,2.596,1.742,4.411,0.902C21.051,4.448,22.02,2.682,21.399,1.341"/>
	<path fill="#FFFFFF" d="M16.458,27.757c0.63-0.227-1.576,0.828-2.142,1.125c-1.744,0.916-3.839,1.414-5.455,1.76
		c-3.232,0.689-6.019,0.201-7.591-1.631c-3.146-3.666-0.248-11.311,6.474-17.08c3.36-2.885,7.038-4.752,10.272-5.442
		c1.616-0.345,3.122-0.394,4.419-0.13c0,0,3.632,0.603,1.86,5.06c0,0-4.617,10.039-17.605,15.574c0,0,8.331-5.843,12.351-13.134
		c0,0,3.189-5.256-1.69-5.161c0,0-2.076-0.017-5.285,1.856c-2.831,1.549-6.402,4.385-8.346,9.285c0,0-3.355,8,5.934,8.844
		C9.654,28.683,13.015,28.988,16.458,27.757"/>
	<path fill="#FFFFFF" d="M23.827,13.751c-0.521,0.775-1.537,2.254-2.56,3.541c1.189,0.098,2.357,0.414,1.523,2.734
		c0,0-1.375,3.561-5.39,7.164c0,0,6.783-3.949,9.217-9.137C26.617,18.054,29.451,12.576,23.827,13.751"/>
	<g>
		<ellipse fill="none" cx="118.052" cy="13.85" rx="3.566" ry="2.102"/>
		<path fill="none" d="M67.336,24.484h6.713v-3.437h-7.338v2.813C66.711,24.205,66.99,24.484,67.336,24.484z"/>
		<rect x="116.692" y="19.312" fill="none" width="2.914" height="1.563"/>
		<ellipse fill="none" cx="55.191" cy="22.61" rx="3.564" ry="2.233"/>
		<path fill="none" d="M35.074,22.949c0,1.089,1.642,1.972,3.667,1.972c2.022,0,3.664-0.883,3.664-1.972
			c0-1.086-1.642-1.967-3.664-1.967C36.716,20.982,35.074,21.863,35.074,22.949z"/>
		<ellipse fill="none" cx="133.941" cy="22.61" rx="3.565" ry="2.233"/>
		<path fill="#FFFFFF" d="M99.107,16.293c-0.546,0-0.989,0.44-0.989,0.987v3.756h-2.354c-0.389,0-0.703,0.316-0.703,0.705
			c0,0.387,0.314,0.703,0.703,0.703h12.722c0.388,0,0.701-0.316,0.701-0.703c0-0.389-0.313-0.705-0.701-0.705h-1.69
			c0.266-0.246,1.146-1.261,1.162-3.873h0.003V12.23h-0.003l0,0c0-0.648-0.518-1.173-1.166-1.188v-0.01h-9.879
			c-0.389,0-0.702,0.316-0.702,0.703c0,0.389,0.313,0.703,0.702,0.703h8.473c0.33,0.016,0.594,0.284,0.594,0.619l0.008-0.003v4.108
			h0.013v1.988c0,0-0.074,1.236-0.517,1.885h-1.446v-3.756c0-0.547-0.441-0.987-0.986-0.987c-0.547,0-0.989,0.44-0.989,0.987v3.756
			h-1.967v-3.756C100.094,16.734,99.653,16.293,99.107,16.293z"/>
		<path fill="#FFFFFF" d="M110.943,18.609c0,0.387,0.314,0.703,0.702,0.703h3.071v1.563h-2.022c-0.389,0-0.702,0.314-0.702,0.703
			s0.313,0.703,0.702,0.703h8.743l-0.001,0.008c0.333,0,0.602,0.265,0.617,0.594v2.992h1.977v-3.825h-0.007
			c-0.008-0.653-0.535-1.178-1.189-1.178c-0.014,0-0.023,0.007-0.036,0.008v-0.005h-1.217v-1.563h2.787
			c0.39,0,0.702-0.316,0.702-0.703c0-0.389-0.313-0.701-0.702-0.701h-12.723C111.258,17.908,110.943,18.22,110.943,18.609z
			 M119.606,20.875h-2.914v-1.563h2.914V20.875z"/>
		<path fill="#FFFFFF" d="M123.774,13.85c0-1.84-2.563-3.332-5.723-3.332s-5.724,1.492-5.724,3.332c0,1.839,2.563,3.333,5.724,3.333
			S123.774,15.688,123.774,13.85z M114.486,13.85c0-1.161,1.596-2.102,3.565-2.102c1.971,0,3.566,0.941,3.566,2.102
			c0,1.162-1.596,2.101-3.566,2.101C116.082,15.951,114.486,15.012,114.486,13.85z"/>
		<path fill="#FFFFFF" d="M58.94,15.523v4.419c-1.004-0.54-2.313-0.87-3.75-0.87c-3.159,0-5.72,1.584-5.72,3.539
			s2.561,3.541,5.72,3.541c3.005,0,5.464-1.437,5.697-3.259c0.016-0.049,0.026-0.106,0.026-0.183V11.664
			c0-0.545-0.441-0.984-0.986-0.984c-0.547,0-0.988,0.439-0.988,0.984v2.443h-1.703v1.416H58.94z M55.191,24.843
			c-1.969,0-3.564-0.998-3.564-2.232c0-1.232,1.595-2.234,3.564-2.234c1.97,0,3.566,1.002,3.566,2.234
			C58.757,23.845,57.161,24.843,55.191,24.843z"/>
		<path fill="#FFFFFF" d="M47.822,17.367l0.914,1.171c0,0,2.602-0.813,4.009-3.242c1.407,2.43,4.009,3.242,4.009,3.242l0.914-1.171
			c-2.829-1.09-3.568-3.381-3.749-4.229h2.704c0.389,0,0.702-0.316,0.702-0.703c0-0.389-0.313-0.703-0.702-0.703h-2.835v-1.05
			h-2.121v1.05h-2.848c-0.389,0-0.702,0.314-0.702,0.703c0,0.387,0.313,0.703,0.702,0.703h2.752
			C51.39,13.986,50.651,16.277,47.822,17.367z"/>
		<path fill="#FFFFFF" d="M136.077,12.435c0-0.389-0.314-0.703-0.701-0.703h-2.838v-1.05h-2.12v1.05h-2.849
			c-0.389,0-0.704,0.314-0.704,0.703c0,0.387,0.315,0.703,0.704,0.703h2.753c-0.181,0.848-0.92,3.139-3.75,4.229l0.915,1.171
			c0,0,2.604-0.813,4.009-3.242c1.405,2.43,4.009,3.242,4.009,3.242l0.913-1.171c-2.827-1.09-3.567-3.381-3.748-4.229h2.706
			C135.763,13.138,136.077,12.822,136.077,12.435z"/>
		<path fill="#FFFFFF" d="M138.678,10.68c-0.545,0-0.987,0.439-0.987,0.984v2.443h-1.702v1.416h1.702v4.419
			c-1.005-0.541-2.313-0.87-3.749-0.87c-3.158,0-5.721,1.584-5.721,3.539s2.563,3.541,5.721,3.541c3.007,0,5.469-1.438,5.699-3.263
			c0.015-0.048,0.024-0.105,0.024-0.179V11.664C139.665,11.119,139.224,10.68,138.678,10.68z M133.941,24.843
			c-1.97,0-3.565-0.998-3.565-2.232c0-1.232,1.596-2.234,3.565-2.234c1.972,0,3.565,1.002,3.565,2.234
			C137.507,23.845,135.913,24.843,133.941,24.843z"/>
		<path fill="#FFFFFF" d="M64.696,11.025c-0.544,0-0.988,0.443-0.988,0.988v4.918h0.031c0.053,0.611,0.548,1.096,1.174,1.096
			c0.029,0,0.053-0.015,0.081-0.017c0.028,0.004,0.053,0.017,0.082,0.017h6.886c0.025,0,0.047-0.012,0.071-0.015
			c0.988-0.057,1.651-0.352,2.017-0.583v1.469h1.976v-3.822h1.796V13.66h-1.796v-1.996c0-0.545-0.441-0.985-0.988-0.985
			c-0.545,0-0.987,0.44-0.987,0.985v4.535c-0.501,0.41-1.227,0.42-1.227,0.42h-1.385v0.002h-5.136l0.002-0.014
			c-0.337,0-0.609-0.267-0.62-0.604v-3.99C65.684,11.468,65.241,11.025,64.696,11.025z"/>
		<path fill="#FFFFFF" d="M64.737,19.732v5.004h0.011c0.028,0.635,0.542,1.143,1.183,1.143c0.008,0,0.015-0.004,0.023-0.005
			c0.021,0.002,0.04,0.013,0.062,0.013h8.035h0.857h1.118v-4.839h0.001v-1.314h-9.315v-0.001H64.737z M74.05,21.047v3.437h-6.713
			c-0.346,0-0.625-0.279-0.625-0.623v-2.813H74.05z"/>
		<path fill="#FFFFFF" d="M79.099,21.697c0,0.389,0.316,0.703,0.702,0.703h12.81c0.389,0,0.701-0.314,0.701-0.703
			c0-0.387-0.313-0.703-0.701-0.703h-5.393V19.5c0-0.545-0.452-0.988-1.01-0.988s-1.012,0.443-1.012,0.988v1.494h-5.396
			C79.415,20.994,79.099,21.31,79.099,21.697z"/>
		<path fill="#FFFFFF" d="M91.486,12.439c0.389,0,0.703-0.314,0.703-0.703c0-0.387-0.314-0.703-0.703-0.703H81.294
			c-0.007,0-0.013,0.004-0.02,0.004h-0.913v5.359H80.36c0,0.002,0.001,0.003,0.001,0.005v0.036l0.008,0.001
			c0.022,0.64,0.539,1.153,1.185,1.153c0.019,0,0.033-0.01,0.052-0.011c0.032,0.006,0.062,0.021,0.096,0.021h9.812
			c0.374,0,0.677-0.313,0.677-0.703c0-0.389-0.303-0.701-0.677-0.701h-8.576c-0.332-0.011-0.593-0.274-0.601-0.606v-3.151H91.486z"
			/>
		<path fill="#FFFFFF" d="M31.618,18.419c0,0.39,0.311,0.701,0.699,0.701h5.313v0.762c-2.743,0.274-4.816,1.542-4.816,3.068
			c0,1.729,2.653,3.127,5.928,3.127c3.271,0,5.926-1.398,5.926-3.127c0-1.537-2.106-2.812-4.876-3.073v-0.757h5.336
			c0.389,0,0.702-0.312,0.702-0.701c0-0.387-0.313-0.703-0.702-0.703h-12.81C31.929,17.716,31.618,18.033,31.618,18.419z
			 M42.405,22.949c0,1.089-1.642,1.972-3.664,1.972c-2.025,0-3.667-0.883-3.667-1.972c0-1.086,1.642-1.967,3.667-1.967
			C40.763,20.982,42.405,21.863,42.405,22.949z"/>
		<path fill="#FFFFFF" d="M32.168,15.576l0.549,1.242c3.354,0,5.1-1.045,6.021-2.167c0.921,1.122,2.667,2.167,6.021,2.167
			l0.552-1.242c0,0-4.3,0.018-5.266-2.438h4.043c0.399,0,0.722-0.316,0.722-0.703c0-0.389-0.323-0.703-0.722-0.703H39.79v-1.05
			h-2.161v1.05H33.35c-0.398,0-0.722,0.314-0.722,0.703c0,0.387,0.324,0.703,0.722,0.703h4.082
			C36.468,15.594,32.168,15.576,32.168,15.576z"/>
	</g>
</g>
</svg>
