<?xml version="1.0" encoding="utf-8"?>
<!-- Generator: Adobe Illustrator 16.0.3, SVG Export Plug-In . SVG Version: 6.00 Build 0)  -->
<!DOCTYPE svg PUBLIC "-//W3C//DTD SVG 1.1//EN" "http://www.w3.org/Graphics/SVG/1.1/DTD/svg11.dtd">
<svg version="1.1" id="Layer_1" xmlns="http://www.w3.org/2000/svg" xmlns:xlink="http://www.w3.org/1999/xlink" x="0px" y="0px"
	 width="267px" height="40px" viewBox="0 0 267 40" enable-background="new 0 0 267 40" xml:space="preserve">
<g id="Layer_1_1_">
	<g>
		<g>
			<g>
				<defs>
					<rect id="SVGID_1_" y="1.5" width="32.683" height="37"/>
				</defs>
				<clipPath id="SVGID_2_">
					<use xlink:href="#SVGID_1_"  overflow="visible"/>
				</clipPath>
				<path clip-path="url(#SVGID_2_)" fill="#EE3524" d="M25.589,3.104c-0.743-1.601-3.103-2.084-5.271-1.079
					c-2.171,1.005-3.329,3.12-2.587,4.72c0.744,1.601,3.105,2.085,5.275,1.079C25.174,6.819,26.331,4.705,25.589,3.104"/>
			</g>
		</g>
		<g>
			<g>
				<defs>
					<rect id="SVGID_3_" y="1.5" width="32.683" height="37"/>
				</defs>
				<clipPath id="SVGID_4_">
					<use xlink:href="#SVGID_3_"  overflow="visible"/>
				</clipPath>
				<path clip-path="url(#SVGID_4_)" fill="#00529B" d="M19.681,34.691c0.753-0.271-1.882,0.992-2.561,1.349
					c-2.085,1.093-4.59,1.688-6.523,2.103c-3.865,0.825-7.197,0.239-9.078-1.951c-3.762-4.383-0.296-13.523,7.742-20.421
					c4.017-3.45,8.417-5.685,12.283-6.508c1.934-0.414,3.733-0.472,5.283-0.157c0,0,4.346,0.724,2.226,6.052
					c0,0-5.521,12.005-21.051,18.625c0,0,9.962-6.987,14.767-15.708c0,0,3.814-6.285-2.021-6.172c0,0-2.482-0.019-6.319,2.22
					c-3.385,1.854-7.655,5.243-9.981,11.104c0,0-4.01,9.566,7.098,10.576C11.547,35.801,15.563,36.164,19.681,34.691"/>
			</g>
		</g>
		<g>
			<g>
				<defs>
					<rect id="SVGID_5_" y="1.5" width="32.683" height="37"/>
				</defs>
				<clipPath id="SVGID_6_">
					<use xlink:href="#SVGID_5_"  overflow="visible"/>
				</clipPath>
				<path clip-path="url(#SVGID_6_)" fill="#2DA343" d="M28.493,17.942c-0.622,0.928-1.837,2.697-3.062,4.238
					c1.421,0.114,2.819,0.495,1.822,3.271c0,0-1.645,4.258-6.446,8.565c0,0,8.11-4.722,11.021-10.927
					C31.828,23.09,35.219,16.537,28.493,17.942"/>
			</g>
		</g>
	</g>
</g>
<g id="Layer_2">
	<g>
		<path fill="#FFFFFF" d="M51.53,21.938v1.43c3.521,0.265,5.567,1.431,5.567,3.389c0,2.223-2.619,3.434-7.041,3.434
			c-4.423,0-7.019-1.211-7.019-3.434c0-1.958,2.046-3.124,5.588-3.389v-1.43h-7.679V19.67h18.307v2.268H51.53z M41.716,16.854
			c4.247-0.264,6.227-1.496,6.667-2.839h-5.699v-2.266h5.94V9.967h2.905v1.782h5.963v2.266h-5.699
			c0.44,1.343,2.42,2.575,6.667,2.839l-0.858,2.156c-3.719-0.264-6.249-1.298-7.503-2.904c-1.276,1.606-3.807,2.641-7.525,2.904
			L41.716,16.854z M50.056,25.457c-2.75,0-4.093,0.374-4.093,1.298c0,0.902,1.342,1.298,4.093,1.298c2.75,0,4.092-0.396,4.092-1.298
			C54.148,25.831,52.806,25.457,50.056,25.457z"/>
		<path fill="#FFFFFF" d="M70.273,21.52c-2.266-0.596-3.85-1.85-4.774-3.456c-0.902,1.849-2.486,3.278-4.841,3.961l-1.364-2.244
			c3.212-0.925,4.621-3.213,4.665-5.479h-3.961v-2.288h3.961V9.856h2.904v2.156h4.004V14.3h-4.004
			c0.044,2.091,1.496,4.137,4.73,4.995L70.273,21.52z M76.457,26.357c0,2.422-2.64,3.83-6.931,3.83c-4.313,0-6.953-1.408-6.953-3.83
			c0-2.44,2.64-3.85,6.953-3.85C73.816,22.509,76.457,23.917,76.457,26.357z M73.552,26.357c0-1.1-1.386-1.627-4.027-1.627
			c-2.684,0-4.048,0.527-4.048,1.627c0,1.102,1.364,1.606,4.048,1.606C72.166,27.965,73.552,27.459,73.552,26.357z M73.464,15.335
			V9.923h2.904v12.233h-2.904v-4.488h-3.146v-2.333H73.464z"/>
		<path fill="#FFFFFF" d="M89.7,19.472c-3.301,0.66-6.403,0.858-9.264,0.858H78.72v-9.462h2.904v7.041
			c2.42-0.044,5.017-0.241,7.746-0.77L89.7,19.472z M80.656,22.268h13.202v7.678H80.656V22.268z M83.517,27.68h7.503v-3.146h-7.503
			V27.68z M96.543,16.567h-2.685v4.753h-2.904V9.923h2.904v4.269h2.685V16.567z"/>
		<path fill="#FFFFFF" d="M114.736,25.521v2.377h-18.35v-2.377h7.701v-4.225H98.52v-9.989h14.104v2.332h-11.178v5.325h11.332v2.332
			h-5.787v4.225H114.736z"/>
		<path fill="#FFFFFF" d="M133.217,25.413v2.332h-18.351v-2.332h3.851V19.01h2.86v6.403h2.156V19.01h2.838v6.403H133.217z
			 M127.958,22.706c0.66-3.674,0.682-6.402,0.682-8.735h-11.991v-2.31h14.896v1.958c0,2.486,0,5.28-0.683,9.373L127.958,22.706z"/>
		<path fill="#FFFFFF" d="M147.296,21.672v1.87h2.156v6.667h-2.904v-4.4H135.37v-2.267h2.288v-1.87h-4.313v-2.31h18.307v2.31
			H147.296z M135.172,14.301c0-2.442,2.883-3.96,7.327-3.96c4.467,0,7.349,1.518,7.349,3.96c0,2.486-2.882,4.005-7.349,4.005
			C138.055,18.306,135.172,16.787,135.172,14.301z M138.164,14.301c0,1.188,1.584,1.761,4.335,1.761
			c2.772,0,4.356-0.572,4.356-1.761c0-1.144-1.584-1.738-4.356-1.738C139.748,12.563,138.164,13.157,138.164,14.301z
			 M144.413,21.672h-3.851v1.87h3.851V21.672z"/>
		<path fill="#FFFFFF" d="M162.674,21.52c-2.267-0.596-3.852-1.85-4.775-3.456c-0.9,1.849-2.485,3.278-4.84,3.961l-1.363-2.244
			c3.212-0.925,4.619-3.213,4.664-5.479h-3.961v-2.288h3.961V9.856h2.904v2.156h4.004V14.3h-4.004
			c0.043,2.091,1.496,4.137,4.73,4.995L162.674,21.52z M168.855,26.357c0,2.422-2.641,3.83-6.931,3.83
			c-4.313,0-6.952-1.408-6.952-3.83c0-2.44,2.641-3.85,6.952-3.85C166.216,22.509,168.855,23.917,168.855,26.357z M165.952,26.357
			c0-1.1-1.388-1.627-4.026-1.627c-2.685,0-4.049,0.527-4.049,1.627c0,1.102,1.364,1.606,4.049,1.606
			C164.564,27.965,165.952,27.459,165.952,26.357z M165.863,15.335V9.923h2.904v12.233h-2.904v-4.488h-3.146v-2.333H165.863z"/>
		<path fill="#FFFFFF" d="M191.848,20.374v2.267h-18.33v-2.267h7.701V19.12h-5.412v-8.67h13.949v2.201h-11.066v1.056h10.604v2.112
			h-10.604v1.101h11.222v2.2h-5.787v1.254H191.848z M189.689,26.865c0,2.156-2.573,3.322-7.041,3.322
			c-4.444,0-7.02-1.166-7.02-3.322c0-2.18,2.574-3.323,7.02-3.323C187.116,23.542,189.689,24.688,189.689,26.865z M186.764,26.865
			c0-0.836-1.298-1.188-4.113-1.188c-2.795,0-4.094,0.354-4.094,1.188s1.299,1.21,4.094,1.21
			C185.466,28.075,186.764,27.701,186.764,26.865z"/>
		<path fill="#FFFFFF" d="M203.945,13.971h-11.948v-2.266h4.511V9.769h2.928v1.937h4.531L203.945,13.971z M197.982,21.693
			c-2.928,0-4.974-1.451-4.974-3.586c0-2.156,2.046-3.586,4.974-3.586c2.926,0,4.973,1.43,4.973,3.586
			C202.955,20.242,200.908,21.693,197.982,21.693z M205.089,22.553h2.884v7.414h-13.181v-7.414h2.882v1.54h7.415V22.553
			L205.089,22.553z M197.982,19.582c1.297,0,2.199-0.506,2.199-1.475c0-0.968-0.902-1.474-2.199-1.474c-1.299,0-2.2,0.506-2.2,1.474
			C195.782,19.076,196.684,19.582,197.982,19.582z M205.089,26.293h-7.415v1.408h7.415V26.293z M210.656,17.161h-2.686v4.621h-2.904
			V9.923h2.904v4.862h2.686V17.161z"/>
		<path fill="#FFFFFF" d="M228.852,25.521v2.377H210.5v-2.377h7.701v-4.225h-5.567v-9.989h14.104v2.332h-11.178v5.325h11.332v2.332
			h-5.787v4.225H228.852z"/>
		<path fill="#FFFFFF" d="M236.594,14.411c0,3.828,1.473,7.547,4.817,9.043l-1.716,2.312c-2.223-1.078-3.697-3.06-4.533-5.501
			c-0.881,2.597-2.398,4.708-4.664,5.854l-1.805-2.333c3.433-1.584,4.973-5.522,4.973-9.373v-2.927h2.928V14.411z M245.988,9.9
			V30.23h-2.905v-11.64h-3.896V16.26h3.896V9.9H245.988z"/>
		<path fill="#FFFFFF" d="M259.805,21.496c-4.182,0.771-8.891,0.857-12.367,0.88l-0.264-2.31c1.122,0,2.376,0,3.696-0.022v-3.938
			h2.839v3.828c2.002-0.088,4.025-0.241,5.919-0.506L259.805,21.496z M255.447,18.284c0.33-1.893,0.418-3.367,0.439-4.577h-7.548
			v-2.311h10.407v1.255c0,1.408,0,3.41-0.462,5.962L255.447,18.284z M253.025,27.525h11.244v2.31h-14.147V23.74h2.903V27.525z
			 M266.053,16.083v2.398h-2.421v6.602h-2.903V9.9h2.903v6.183H266.053z"/>
	</g>
</g>
<g id="Layer_3">
</g>
</svg>
