<?xml version="1.0" encoding="utf-8"?>
<!-- Generator: Adobe Illustrator 16.0.3, SVG Export Plug-In . SVG Version: 6.00 Build 0)  -->
<!DOCTYPE svg PUBLIC "-//W3C//DTD SVG 1.1//EN" "http://www.w3.org/Graphics/SVG/1.1/DTD/svg11.dtd">
<svg version="1.1" id="Layer_1" xmlns="http://www.w3.org/2000/svg" xmlns:xlink="http://www.w3.org/1999/xlink" x="0px" y="0px"
	 width="68px" height="12px" viewBox="0 -1.274 68 12" enable-background="new 0 -1.274 68 12" xml:space="preserve">
<rect x="0" y="0.04" fill="#FFFFFF" width="1.603" height="9.373"/>
<path fill="#FFFFFF" d="M3.157,9.234h1.602V2.681H3.157V9.234z M3.157,2.022h1.602V0.218H3.157V2.022z"/>
<g>
	<g>
		<defs>
			<rect id="SVGID_1_" x="0" y="-1.187" width="68" height="11.826"/>
		</defs>
		<clipPath id="SVGID_2_">
			<use xlink:href="#SVGID_1_"  overflow="visible"/>
		</clipPath>
		<path clip-path="url(#SVGID_2_)" fill="#FFFFFF" d="M7.796-1.187v3.3C8.034,1.882,8.3,1.722,8.592,1.634S9.16,1.502,9.424,1.502
			c0.423,0,0.824,0.08,1.203,0.239c0.377,0.16,0.708,0.386,0.992,0.676c0.282,0.292,0.504,0.645,0.668,1.059
			c0.164,0.414,0.246,0.876,0.246,1.387c0,0.597-0.088,1.114-0.264,1.549c-0.174,0.435-0.406,0.794-0.693,1.075
			C11.288,7.77,10.963,7.983,10.6,8.121C10.238,8.259,9.864,8.33,9.484,8.33c-0.304,0-0.615-0.06-0.932-0.178
			c-0.319-0.12-0.61-0.328-0.874-0.623v0.657H6.156v-9.373H7.796z M7.796,5.496c0,0.207,0.036,0.4,0.107,0.58
			c0.072,0.182,0.175,0.339,0.307,0.473c0.13,0.137,0.287,0.244,0.466,0.323c0.179,0.08,0.376,0.122,0.592,0.122
			c0.509,0,0.903-0.188,1.184-0.563C10.731,6.055,10.87,5.546,10.87,4.9c0-0.287-0.034-0.557-0.102-0.808
			c-0.067-0.252-0.171-0.469-0.312-0.652c-0.139-0.184-0.317-0.329-0.531-0.437C9.712,2.895,9.46,2.841,9.173,2.841
			c-0.208,0-0.397,0.046-0.568,0.138C8.431,3.072,8.287,3.193,8.168,3.344S7.956,3.67,7.891,3.87
			c-0.064,0.2-0.095,0.403-0.095,0.611V5.496z"/>
	</g>
	<g>
		<defs>
			<rect id="SVGID_3_" x="0" y="-1.187" width="68" height="11.826"/>
		</defs>
		<clipPath id="SVGID_4_">
			<use xlink:href="#SVGID_3_"  overflow="visible"/>
		</clipPath>
		<rect x="13.618" y="6.585" clip-path="url(#SVGID_4_)" fill="#FFFFFF" width="1.925" height="1.806"/>
	</g>
	<g>
		<defs>
			<rect id="SVGID_5_" x="0" y="-1.187" width="68" height="11.826"/>
		</defs>
		<clipPath id="SVGID_6_">
			<use xlink:href="#SVGID_5_"  overflow="visible"/>
		</clipPath>
		<path clip-path="url(#SVGID_6_)" fill="#FFFFFF" d="M21.266,8.168c-0.346,0.109-0.743,0.163-1.19,0.163
			c-0.502,0-0.96-0.08-1.375-0.238c-0.414-0.161-0.767-0.387-1.058-0.677c-0.291-0.291-0.518-0.648-0.68-1.07
			c-0.165-0.422-0.247-0.895-0.247-1.423c0-0.525,0.082-1.001,0.247-1.423c0.162-0.422,0.397-0.78,0.704-1.075
			c0.308-0.296,0.681-0.522,1.119-0.683c0.438-0.159,0.932-0.239,1.482-0.239c0.351,0,0.692,0.048,1.024,0.145
			c0.329,0.095,0.606,0.212,0.831,0.346l-0.36,1.244c-0.207-0.104-0.439-0.201-0.693-0.294c-0.254-0.091-0.523-0.138-0.802-0.138
			c-0.622,0-1.098,0.188-1.427,0.563c-0.333,0.373-0.499,0.87-0.499,1.492c0,0.335,0.05,0.636,0.15,0.903
			c0.099,0.267,0.234,0.495,0.405,0.682c0.172,0.188,0.373,0.329,0.605,0.426c0.231,0.095,0.474,0.143,0.729,0.143
			c0.287,0,0.569-0.048,0.849-0.143c0.279-0.097,0.534-0.192,0.765-0.287l0.287,1.256C21.901,7.952,21.613,8.061,21.266,8.168"/>
	</g>
	<g>
		<defs>
			<rect id="SVGID_7_" x="0" y="-1.187" width="68" height="11.826"/>
		</defs>
		<clipPath id="SVGID_8_">
			<use xlink:href="#SVGID_7_"  overflow="visible"/>
		</clipPath>
		<path clip-path="url(#SVGID_8_)" fill="#FFFFFF" d="M26.933,3.327c-0.067-0.131-0.158-0.236-0.269-0.316
			c-0.112-0.08-0.239-0.138-0.384-0.174c-0.143-0.035-0.291-0.054-0.441-0.054c-0.104,0-0.216,0.02-0.336,0.061
			c-0.119,0.039-0.238,0.095-0.358,0.167c-0.12,0.071-0.231,0.16-0.335,0.268c-0.104,0.109-0.197,0.227-0.275,0.354v4.556h-1.602
			V1.647h1.603v0.514c0.12-0.143,0.249-0.256,0.388-0.341c0.14-0.083,0.282-0.149,0.43-0.197c0.146-0.047,0.296-0.08,0.442-0.095
			c0.148-0.016,0.285-0.025,0.413-0.025c0.319,0,0.623,0.053,0.915,0.156c0.291,0.104,0.547,0.253,0.771,0.448
			c0.223,0.195,0.401,0.436,0.532,0.719c0.132,0.282,0.197,0.606,0.197,0.973v4.39h-1.59V3.811
			C27.034,3.62,27.001,3.458,26.933,3.327"/>
	</g>
	<g>
		<defs>
			<rect id="SVGID_9_" x="0" y="-1.187" width="68" height="11.826"/>
		</defs>
		<clipPath id="SVGID_10_">
			<use xlink:href="#SVGID_9_"  overflow="visible"/>
		</clipPath>
		<path clip-path="url(#SVGID_10_)" fill="#FFFFFF" d="M35.296,7.421c-0.453,0.327-0.887,0.557-1.297,0.694
			C33.59,8.25,33.152,8.319,32.69,8.319c-0.431,0-0.839-0.069-1.226-0.203C31.078,7.981,30.74,7.775,30.448,7.5
			c-0.291-0.276-0.52-0.624-0.687-1.047C29.594,6.032,29.51,5.537,29.51,4.97c0-0.501,0.068-0.964,0.204-1.386
			c0.135-0.423,0.334-0.788,0.593-1.095s0.575-0.548,0.949-0.724c0.375-0.174,0.797-0.263,1.267-0.263
			c0.527,0,0.973,0.092,1.34,0.274c0.366,0.185,0.668,0.434,0.902,0.754c0.236,0.318,0.407,0.693,0.515,1.124
			s0.161,0.894,0.161,1.387c0,0.056-0.001,0.124-0.006,0.203c-0.004,0.08-0.006,0.152-0.006,0.216h-4.315
			c0.024,0.303,0.083,0.555,0.178,0.752c0.097,0.201,0.218,0.362,0.367,0.486c0.146,0.124,0.316,0.212,0.507,0.263
			c0.19,0.053,0.398,0.077,0.622,0.077c0.604,0,1.282-0.234,2.031-0.703L35.296,7.421z M32.521,2.783
			c-0.237,0-0.442,0.044-0.609,0.131c-0.168,0.088-0.304,0.2-0.411,0.336c-0.108,0.135-0.19,0.285-0.246,0.447
			c-0.057,0.165-0.096,0.317-0.12,0.461h2.69c-0.023-0.144-0.063-0.296-0.12-0.461C33.65,3.535,33.57,3.384,33.467,3.25
			c-0.104-0.136-0.232-0.248-0.39-0.336C32.922,2.827,32.738,2.783,32.521,2.783"/>
	</g>
	<g>
		<defs>
			<rect id="SVGID_11_" x="0" y="-1.187" width="68" height="11.826"/>
		</defs>
		<clipPath id="SVGID_12_">
			<use xlink:href="#SVGID_11_"  overflow="visible"/>
		</clipPath>
		<rect x="36.564" y="6.585" clip-path="url(#SVGID_12_)" fill="#FFFFFF" width="1.926" height="1.806"/>
	</g>
	<g>
		<defs>
			<rect id="SVGID_13_" x="0" y="-1.187" width="68" height="11.826"/>
		</defs>
		<clipPath id="SVGID_14_">
			<use xlink:href="#SVGID_13_"  overflow="visible"/>
		</clipPath>
		<path clip-path="url(#SVGID_14_)" fill="#FFFFFF" d="M46.022,1.648v5.188c0,0.575-0.052,1.096-0.154,1.566
			c-0.104,0.47-0.285,0.87-0.541,1.2c-0.255,0.332-0.595,0.587-1.018,0.767s-0.956,0.27-1.602,0.27
			c-0.397,0-0.808-0.054-1.225-0.161c-0.419-0.108-0.803-0.275-1.154-0.496l0.48-1.161c0.341,0.177,0.666,0.311,0.974,0.401
			c0.307,0.09,0.627,0.137,0.962,0.137c0.224,0,0.436-0.029,0.634-0.089c0.199-0.061,0.376-0.162,0.526-0.3
			c0.15-0.14,0.273-0.317,0.364-0.539c0.092-0.219,0.14-0.484,0.14-0.795c-0.257,0.264-0.53,0.452-0.821,0.562
			c-0.29,0.112-0.587,0.169-0.891,0.169c-0.383,0-0.757-0.073-1.123-0.218C41.208,8.007,40.882,7.79,40.6,7.5
			c-0.284-0.291-0.514-0.655-0.688-1.095c-0.177-0.44-0.263-0.956-0.263-1.554c0-0.511,0.08-0.974,0.245-1.388
			c0.163-0.414,0.387-0.767,0.668-1.058c0.284-0.291,0.614-0.516,0.993-0.67c0.379-0.155,0.778-0.233,1.201-0.233
			c0.296,0,0.585,0.048,0.869,0.145c0.28,0.095,0.533,0.246,0.757,0.454V1.648H46.022z M44.385,4.469
			c0-0.208-0.032-0.409-0.096-0.603c-0.064-0.197-0.155-0.369-0.274-0.521c-0.121-0.153-0.267-0.274-0.439-0.366
			c-0.171-0.091-0.36-0.137-0.566-0.137c-0.286,0-0.539,0.052-0.754,0.156c-0.215,0.102-0.393,0.247-0.531,0.435
			c-0.141,0.188-0.243,0.406-0.312,0.652C41.343,4.333,41.31,4.6,41.31,4.887c0,0.647,0.138,1.165,0.418,1.555
			c0.28,0.393,0.674,0.587,1.183,0.587c0.217,0,0.413-0.04,0.594-0.126c0.18-0.083,0.335-0.195,0.465-0.335
			c0.131-0.139,0.233-0.301,0.306-0.486c0.072-0.183,0.107-0.379,0.107-0.586V4.469H44.385z"/>
	</g>
	<g>
		<defs>
			<rect id="SVGID_15_" x="0" y="-1.187" width="68" height="11.826"/>
		</defs>
		<clipPath id="SVGID_16_">
			<use xlink:href="#SVGID_15_"  overflow="visible"/>
		</clipPath>
		<path clip-path="url(#SVGID_16_)" fill="#FFFFFF" d="M50.087,8.332c-0.443,0-0.86-0.072-1.249-0.216
			c-0.388-0.144-0.729-0.358-1.021-0.646c-0.294-0.287-0.527-0.641-0.695-1.059c-0.167-0.42-0.25-0.904-0.25-1.453
			c0-0.574,0.082-1.076,0.245-1.508c0.163-0.429,0.392-0.79,0.675-1.081c0.288-0.292,0.628-0.509,1.022-0.651
			s0.82-0.216,1.273-0.216c0.454,0,0.88,0.071,1.276,0.216c0.393,0.143,0.734,0.359,1.02,0.651c0.287,0.291,0.513,0.652,0.676,1.081
			c0.163,0.432,0.245,0.934,0.245,1.508c0,0.549-0.084,1.033-0.252,1.453c-0.167,0.418-0.398,0.77-0.692,1.059
			c-0.296,0.285-0.639,0.501-1.029,0.646C50.939,8.259,50.525,8.332,50.087,8.332 M50.087,2.772c-0.271,0-0.506,0.057-0.704,0.172
			c-0.2,0.116-0.364,0.271-0.497,0.467c-0.131,0.195-0.229,0.427-0.293,0.693c-0.063,0.268-0.095,0.553-0.095,0.855
			c0,0.692,0.15,1.218,0.453,1.572c0.304,0.354,0.683,0.532,1.136,0.532c0.454,0,0.833-0.178,1.136-0.532
			c0.304-0.354,0.455-0.88,0.455-1.572c0-0.303-0.032-0.588-0.096-0.855c-0.064-0.267-0.161-0.498-0.293-0.693
			c-0.131-0.195-0.297-0.351-0.495-0.467C50.594,2.828,50.358,2.772,50.087,2.772"/>
	</g>
	<g>
		<defs>
			<rect id="SVGID_17_" x="0" y="-1.187" width="68" height="11.826"/>
		</defs>
		<clipPath id="SVGID_18_">
			<use xlink:href="#SVGID_17_"  overflow="visible"/>
		</clipPath>
		<rect x="54.44" y="6.585" clip-path="url(#SVGID_18_)" fill="#FFFFFF" width="1.924" height="1.806"/>
	</g>
	<g>
		<defs>
			<rect id="SVGID_19_" x="0" y="-1.187" width="68" height="11.826"/>
		</defs>
		<clipPath id="SVGID_20_">
			<use xlink:href="#SVGID_19_"  overflow="visible"/>
		</clipPath>
		<polygon clip-path="url(#SVGID_20_)" fill="#FFFFFF" points="59.461,3.632 61.613,1.648 63.61,1.648 60.645,4.409 63.61,8.188 
			61.757,8.188 59.568,5.437 59.461,5.544 59.461,8.188 57.87,8.188 57.87,-1.187 59.461,-1.187 		"/>
	</g>
	<g>
		<defs>
			<rect id="SVGID_21_" x="0" y="-1.187" width="68" height="11.826"/>
		</defs>
		<clipPath id="SVGID_22_">
			<use xlink:href="#SVGID_21_"  overflow="visible"/>
		</clipPath>
		<path clip-path="url(#SVGID_22_)" fill="#FFFFFF" d="M65.549,2.15c0.189-0.256,0.407-0.427,0.651-0.515
			c0.242-0.088,0.463-0.132,0.662-0.132c0.231,0,0.433,0.021,0.599,0.061C67.63,1.603,67.806,1.659,68,1.732v1.446
			c-0.177-0.088-0.35-0.162-0.521-0.222c-0.172-0.06-0.345-0.09-0.521-0.09c-0.184,0-0.351,0.042-0.502,0.126
			s-0.282,0.193-0.393,0.329c-0.113,0.135-0.208,0.29-0.287,0.466c-0.08,0.175-0.141,0.354-0.18,0.538v3.862h-1.603v-6.54h1.555
			L65.549,2.15L65.549,2.15z"/>
	</g>
</g>
</svg>
